<?xml version="1.0" standalone="no"?><!DOCTYPE svg PUBLIC "-//W3C//DTD SVG 1.1//EN" "http://www.w3.org/Graphics/SVG/1.1/DTD/svg11.dtd" ><svg xmlns="http://www.w3.org/2000/svg"><metadata></metadata><defs><font id="FontForge : AR PL UKai CN : 19-2-2008" horiz-adv-x="1024"><font-face font-family="AR PL UKai CN" font-weight="400" font-stretch="normal" units-per-em="1024" panose-1="2 0 5 3 0 0 0 0 0 0" ascent="997" descent="-133" x-height="0" bbox="0 -108 1019 894" underline-thickness="50" underline-position="-149" unicode-range="U+0000-ff1f" /><missing-glyph horiz-adv-x="512" d="M89 0 l0 668 l334 0 l0 -668 l-334 0 ZM122 33 l268 0 l0 602 l-268 0 l0 -602 Z" /><glyph glyph-name="exclam" unicode="!" d="M213.5 67.5 q-17.5 17.5 -17.5 42.5 q0 25 17.5 42.5 q17.5 17.5 42.5 17.5 q25 0 42.5 -17.5 q17.5 -17.5 17.5 -42.5 q0 -25 -17.5 -42.5 q-17.5 -17.5 -42.5 -17.5 q-25 0 -42.5 17.5 ZM277 266 l-42 0 q-13 204 -33 293 q-18 79 -18 97 q0 28 21 48 q19 18 51 18 q32 0 51 -18 q21 -20 21 -48 q0 -18 -18 -97 q-20 -89 -33 -293 Z" /><glyph glyph-name="quotedbl" unicode="&quot;" d="M193 507 l-30 0 q0 56 -9 97 q-10 46 -10 64 q0 14 8 26 q9 14 26 14 q17 0 26 -14 q8 -12 8 -26 q0 -18 -10 -64 q-9 -41 -9 -97 ZM349 507 l-30 0 q0 56 -9 97 q-10 46 -10 64 q0 14 8 26 q9 14 26 14 q17 0 26 -14 q8 -12 8 -26 q0 -18 -10 -64 q-9 -41 -9 -97 Z" /><glyph glyph-name="numbersign" unicode="#" d="M328 321 l-199 0 l-54 -267 l-34 0 l54 267 l-81 0 l0 76 l97 0 l32 152 l-117 0 l0 76 l133 0 l46 219 l34 0 l-46 -219 l199 0 l46 219 l34 0 l-46 -219 l72 0 l0 -76 l-88 0 l-32 -152 l108 0 l0 -76 l-124 0 l-54 -267 l-34 0 l54 267 ZM376 549 l-199 0 l-32 -152 l199 0 l32 152 Z" /><glyph glyph-name="dollar" unicode="$" d="M86 110 q-58 42 -58 88 q0 34 13 55 q14 20 38 20 q28 0 40 -18 q10 -15 10 -42 q0 -17 -8 -27 q-9 -11 -9 -28 q0 -15 37 -39 q43 -26 94 -30 l0 273 q-34 14 -74 30 q-130 54 -130 150 q0 64 62 112 q59 46 142 49 l0 57 l34 0 l0 -57 q72 -4 127 -41 q65 -42 65 -94 q0 -28 -15 -43 q-14 -18 -36 -18 q-20 0 -34 13 q-16 15 -16 37 q0 15 3 30 q4 20 4 27 q0 16 -19 32 q-40 30 -79 34 l0 -260 q41 -16 71 -31 q57 -23 97 -66 q39 -41 39 -99 q0 -65 -69 -111 q-60 -41 -138 -47 l0 -50 l-34 0 l0 50 q-91 4 -157 44 ZM161 652 q-46 -40 -46 -110 q0 -58 82 -92 q24 -8 46 -17 l0 248 q-52 -2 -82 -29 ZM408 224 q0 71 -99 110 q-13 6 -32 13 l0 -257 q44 7 87 44 q44 38 44 90 Z" /><glyph glyph-name="quotesingle" unicode="&#39;" d="M271 507 l-30 0 q0 56 -9 97 q-10 46 -10 64 q0 14 8 26 q9 14 26 14 q17 0 26 -14 q8 -12 8 -26 q0 -18 -10 -64 q-9 -41 -9 -97 Z" /><glyph glyph-name="parenleft" unicode="(" d="M388 844 l0 -22 q-102 -94 -138 -181 q-50 -114 -50 -253 q0 -131 40 -228 q42 -105 148 -205 l0 -23 q-138 96 -204 213 q-60 103 -60 243 q0 140 66 263 q58 107 198 193 Z" /><glyph glyph-name="parenright" unicode=")" d="M124 844 q140 -86 198 -193 q66 -123 66 -263 q0 -140 -60 -243 q-66 -117 -204 -213 l0 23 q106 100 148 205 q40 97 40 228 q0 139 -50 253 q-36 87 -138 181 l0 22 Z" /><glyph glyph-name="asterisk" unicode="*" d="M282 420 q-11 -9 -27 -9 q-16 0 -27 9 q-12 9 -12 23 q0 15 15 39 q16 31 17 57 q-3 1 -8 3 q-28 -12 -48 -36 q-27 -36 -57 -36 q-15 0 -28 8 q-11 7 -11 20 q0 12 11 25 q11 13 50 13 q36 0 76 16 q-2 5 0 7 q-28 18 -72 18 q-37 0 -53 16 q-12 12 -12 23 q0 11 11 20 q10 8 31 8 q28 0 53 -30 q26 -31 48 -44 q0 1 9 5 q0 27 -18 58 q-14 24 -14 38 q0 14 13 24 q10 8 26 8 q16 0 26 -8 q13 -10 13 -24 q0 -14 -14 -38 q-18 -31 -18 -58 q9 -4 9 -5 q22 13 48 44 q25 30 53 30 q21 0 31 -8 q11 -9 11 -20 q0 -11 -12 -23 q-16 -16 -53 -16 q-44 0 -72 -18 q2 -2 0 -7 q40 -16 76 -16 q39 0 50 -13 q11 -13 11 -25 q0 -13 -11 -20 q-13 -8 -28 -8 q-30 0 -57 36 q-20 24 -48 36 q-5 -2 -8 -3 q1 -26 17 -57 q15 -24 15 -39 q0 -14 -12 -23 Z" /><glyph glyph-name="plus" unicode="+" d="M234 363 l-176 0 l0 44 l176 0 l0 176 l44 0 l0 -176 l176 0 l0 -44 l-176 0 l0 -176 l-44 0 l0 176 Z" /><glyph glyph-name="comma" unicode="," d="M326 115 q0 -56 -40 -95 q-40 -39 -111 -61 l-13 26 q40 13 68 31 q26 16 26 29 q-29 0 -49.5 20.5 q-20.5 20.5 -20.5 49.5 q0 29 20.5 49.5 q20.5 20.5 49.5 20.5 q29 0 49.5 -20.5 q20.5 -20.5 20.5 -49.5 Z" /><glyph glyph-name="hyphen" unicode="-" d="M78 407 l356 0 l0 -44 l-356 0 l0 44 Z" /><glyph glyph-name="period" unicode="." d="M206.5 65.5 q-20.5 20.5 -20.5 49.5 q0 29 20.5 49.5 q20.5 20.5 49.5 20.5 q29 0 49.5 -20.5 q20.5 -20.5 20.5 -49.5 q0 -29 -20.5 -49.5 q-20.5 -20.5 -49.5 -20.5 q-29 0 -49.5 20.5 Z" /><glyph glyph-name="slash" unicode="/" d="M427 844 l76 0 l-418 -912 l-76 0 l418 912 Z" /><glyph glyph-name="zero" unicode="0" d="M402.5 154 q-59.5 -88 -146.5 -88 q-87 0 -146.5 88 q-59.5 88 -59.5 219 q0 127 51 221 q59 109 155 109 q96 0 155 -109 q51 -94 51 -221 q0 -131 -59.5 -219 ZM164 154 q38 -60 92 -60 q54 0 92 60 q38 60 38 219 q0 145 -44 237 q-31 65 -86 65 q-55 0 -86 -65 q-44 -92 -44 -237 q0 -159 38 -219 Z" /><glyph glyph-name="one" unicode="1" d="M292 694 l0 -535 q0 -55 110 -55 l0 -28 l-292 0 l0 28 q110 0 110 55 l0 422 q0 48 -108 48 l0 22 l169 43 l11 0 Z" /><glyph glyph-name="two" unicode="2" d="M297 338 q-107 -68 -155 -131 q-32 -35 -41 -86 l183 0 q98 0 157 81 l17 -8 l-43 -118 l-367 0 q0 80 43 132 q48 71 170 157 q127 90 127 166 q0 65 -47 110 q-36 34 -84 34 q-47 0 -84 -27.5 q-37 -27.5 -37 -46.5 q0 -18 8 -29 q14 -19 14 -42 q0 -12 -14 -27 q-14 -15 -35 -15 q-25 0 -41 15 q-18 17 -18 42 q0 61 64 112 q56 46 144 46 q88 0 148 -49 q58 -47 58 -123 q0 -87 -167 -193 Z" /><glyph glyph-name="three" unicode="3" d="M460 234 q0 -81 -61 -126 q-57 -42 -136 -42 q-97 0 -157 49 q-54 44 -54 100 q0 24 16 40 q16 15 38 15 q17 0 32 -15 q15 -15 15 -40 q0 -12 -9 -21 q-6 -6 -9 -23 q-2 -10 37 -45 q36 -32 91 -32 q42 0 85 35 q36 29 36 105 q0 73 -37 107 q-27 25 -82 25 l-50 0 l0 40 l50 0 q30 0 58 30 q41 44 41 110 q0 66 -35 99 q-32 30 -72 30 q-53 0 -83 -39 q-27 -35 -15 -48 q16 -17 16 -36 q0 -25 -14 -41 q-14 -16 -36 -16 q-20 0 -35 16 q-16 17 -16 41 q0 55 59 108 q48 43 124 43 q76 0 129.5 -41 q53.5 -41 53.5 -116 q0 -93 -92 -139 q-16 -8 -28 -15 q19 -5 40 -12 q100 -35 100 -146 Z" /><glyph glyph-name="four" unicode="4" d="M362 235 l117 0 l0 -28 l-117 0 l0 -57 q1 -46 71 -46 l0 -28 l-213 0 l0 28 q70 0 70 46 l0 57 l-257 0 l0 35 l296 452 l33 0 l0 -459 ZM290 235 l0 348 l-224 -348 l224 0 Z" /><glyph glyph-name="six" unicode="6" d="M123 603 q66 100 166 100 q60 0 102 -32 q49 -37 49 -78 q0 -21 -17 -36 q-18 -11 -31 -11 q-17 0 -31 13 q-16 15 -16 34 q0 17 9 27 q6 7 -13 30 q-21 25 -51 25 q-63 0 -109 -75 q-49 -79 -55 -205 q83 69 159 69 q70 0 119 -44 q58 -52 58 -159 q0 -87 -62 -143 q-58 -52 -145 -52 q-86 0 -147 75 q-59 73 -59 193 q0 157 74 269 ZM125 334 q0 -129 37 -184 q38 -56 93 -56 q63 0 95 39 q36 44 36 128 q0 92 -32 127 q-34 37 -88 37 q-51 0 -141 -65 l0 -26 Z" /><glyph glyph-name="seven" unicode="7" d="M251 104 q0 -16 -11 -27 q-11 -11 -27 -11 q-16 0 -27 11 q-11 11 -11 27 q0 135 46 250 q42 101 191 290 l-105 0 q-95 0 -142 -26 q-37 -21 -92 -135 l-23 17 l56 194 l356 0 l0 -28 q-122 -157 -164 -263 q-47 -118 -47 -299 Z" /><glyph glyph-name="eight" unicode="8" d="M261 66 q-96 0 -162 50 q-60 45 -60 112 q0 39 32 85 q28 40 114 81 q-57 33 -82 64 q-36 44 -36 90 q0 68 57 114 q50 41 130 41 q66 0 114 -36 q66 -49 66 -107 q0 -35 -24 -68 q-24 -34 -111 -82 q100 -44 141 -93 q33 -39 33 -79 q0 -66 -55 -115 q-65 -57 -157 -57 ZM372 286 q-23 27 -120 75 q-14 7 -24 11 q-71 -38 -89 -68 q-24 -39 -24 -76 q0 -56 38 -91 q47 -43 108 -43 q49 0 94 36 q42 34 42 95 q0 31 -25 61 ZM157 495 q25 -30 101 -67 q61 32 86 65 q27 37 27 77 q0 47 -36 77 q-34 28 -86 28 q-49 0 -85 -32 q-34 -30 -34 -78 q0 -37 27 -70 Z" /><glyph glyph-name="colon" unicode=":" d="M206.5 429.5 q-20.5 20.5 -20.5 49.5 q0 29 20.5 49.5 q20.5 20.5 49.5 20.5 q29 0 49.5 -20.5 q20.5 -20.5 20.5 -49.5 q0 -29 -20.5 -49.5 q-20.5 -20.5 -49.5 -20.5 q-29 0 -49.5 20.5 ZM206.5 155.5 q-20.5 20.5 -20.5 49.5 q0 29 20.5 49.5 q20.5 20.5 49.5 20.5 q29 0 49.5 -20.5 q20.5 -20.5 20.5 -49.5 q0 -29 -20.5 -49.5 q-20.5 -20.5 -49.5 -20.5 q-29 0 -49.5 20.5 Z" /><glyph glyph-name="semicolon" unicode=";" d="M206.5 429.5 q-20.5 20.5 -20.5 49.5 q0 29 20.5 49.5 q20.5 20.5 49.5 20.5 q29 0 49.5 -20.5 q20.5 -20.5 20.5 -49.5 q0 -29 -20.5 -49.5 q-20.5 -20.5 -49.5 -20.5 q-29 0 -49.5 20.5 ZM326 115 q0 -56 -40 -95 q-40 -39 -111 -61 l-13 26 q40 13 68 31 q26 16 26 29 q-29 0 -49.5 20.5 q-20.5 20.5 -20.5 49.5 q0 29 20.5 49.5 q20.5 20.5 49.5 20.5 q29 0 49.5 -20.5 q20.5 -20.5 20.5 -49.5 Z" /><glyph glyph-name="less" unicode="&lt;" d="M489 576 l0 -58 l-388 -137 l388 -148 l0 -58 l-466 178 l0 59 l466 164 Z" /><glyph glyph-name="equal" unicode="=" d="M58 501 l396 0 l0 -58 l-396 0 l0 58 ZM58 287 l396 0 l0 -58 l-396 0 l0 58 Z" /><glyph glyph-name="greater" unicode="&gt;" d="M23 576 l466 -164 l0 -59 l-466 -178 l0 58 l388 148 l-388 137 l0 58 Z" /><glyph glyph-name="question" unicode="?" d="M213.5 67.5 q-17.5 17.5 -17.5 42.5 q0 25 17.5 42.5 q17.5 17.5 42.5 17.5 q25 0 42.5 -17.5 q17.5 -17.5 17.5 -42.5 q0 -25 -17.5 -42.5 q-17.5 -17.5 -42.5 -17.5 q-25 0 -42.5 17.5 ZM256 704 q90 0 142 -46 q51 -44 51 -96 q0 -65 -94 -139 q-84 -66 -88 -185 l-24 0 q-7 127 72 212 q58 64 58 112 q0 56 -33 82 q-40 33 -84 32 q-53 0 -80 -33 q-28 -34 -14 -50 q17 -19 17 -35 q0 -25 -17 -39 q-17 -14 -38 -14 q-24 0 -37 18 q-18 25 -18 48 q0 46 37 80 q59 53 150 53 Z" /><glyph glyph-name="at" unicode="@" d="M389 209 q0 -8 5 -8 q23 0 39 40 q24 59 24 117 q0 102 -50 153 q-45 46 -115 46 q-91 0 -148 -56 q-63 -62 -63 -167 q0 -117 56 -178 q57 -62 147 -62 q54 0 142 55 l13 -22 q-97 -61 -176 -61 q-106 0 -176 72 q-73 75 -73 196 q0 107 73 181 q74 75 192 75 q95 0 158 -62 q62 -61 62 -170 q0 -99 -43 -155 q-42 -55 -82 -55 q-24 0 -39 17 q-5 6 -8 13 q-37 -30 -68 -30 q-45 0 -76 41 q-36 48 -36 127 q0 88 39 144 q36 52 81 52 q19 0 55 -23 l0 15 l67 0 l0 -295 ZM238 446 q-24 -48 -24 -130 q0 -83 18 -113 q16 -27 37 -27 q17 0 53 33 l0 249 q-31 21 -41 21 q-25 0 -43 -33 Z" /><glyph glyph-name="A" unicode="a" d="M444 142 q12 -38 58 -38 l0 -28 l-158 0 l0 28 q17 0 24 8 q7 8 0 30 l-41 134 l-185 0 l-42 -151 q-2 -8 5 -17 q3 -4 17 -4 l0 -28 l-111 0 l0 28 q45 0 51 21 l148 541 l66 28 l168 -552 ZM229 594 l-75 -274 l159 0 l-84 274 Z" /><glyph glyph-name="B" unicode="b" d="M90 156 l0 458 q0 52 -66 52 l0 28 l255 0 q54 0 106 -40 q59 -45 59 -114 q0 -54 -54 -96 q-35 -27 -72 -42 q53 -12 96 -39 q74 -46 74 -125 q0 -71 -57 -113 q-66 -49 -187 -49 l-220 0 l0 28 q66 0 66 52 ZM166 385 l0 -229 q0 -52 78 -52 q81 0 128 40 q40 34 40 94 q0 63 -60 108 q-51 39 -132 39 l-54 0 ZM166 614 l0 -201 l54 0 q69 0 108 37 q40 38 40 90 q0 59 -38 93 q-37 33 -105 33 q-59 0 -59 -52 Z" /><glyph glyph-name="C" unicode="c" d="M309 66 q-129 0 -205 89 q-76 89 -76 228 q0 131 76 223 q81 98 219 98 q80 0 155 -51 l0 -103 l-28 0 q-14 57 -44 87 q-39 39 -83 39 q-86 0 -151 -79 q-68 -82 -68 -214 q0 -135 69 -221 q55 -68 136 -68 q32 0 80 35 q27 20 72 96 l23 -11 q-67 -148 -175 -148 Z" /><glyph glyph-name="D" unicode="d" d="M90 614 q0 52 -66 52 l0 28 l196 0 q125 0 182 -69 q86 -107 86 -243 q0 -158 -75 -237 q-67 -69 -193 -69 l-196 0 l0 28 q66 0 66 52 l0 458 ZM166 614 l0 -458 q0 -52 54 -52 q70 0 133 68 q59 63 59 210 q0 150 -60 221 q-53 63 -132 63 q-54 0 -54 -52 Z" /><glyph glyph-name="E" unicode="e" d="M480 694 l0 -155 l-25 0 q0 77 -46 104 q-39 23 -97 23 l-84 0 q-54 0 -54 -52 l0 -209 l109 0 q76 0 76 80 l25 0 l0 -193 l-25 0 q0 85 -76 85 l-109 0 l0 -221 q0 -52 54 -52 l28 0 q72 0 125 25 q43 20 80 104 l18 -6 l-38 -151 l-409 0 l0 28 q66 0 66 52 l0 458 q0 52 -66 52 l0 28 l448 0 Z" /><glyph glyph-name="F" unicode="f" d="M174 156 q0 -52 66 -52 l0 -28 l-208 0 l0 28 q66 0 66 52 l0 458 q0 52 -66 52 l0 28 l448 0 l0 -155 l-25 0 q0 78 -46 104 q-39 23 -97 23 l-84 0 q-54 0 -54 -52 l0 -209 l109 0 q76 0 76 80 l25 0 l0 -193 l-25 0 q0 85 -76 85 l-109 0 l0 -221 Z" /><glyph glyph-name="G" unicode="g" d="M291 66 q-129 0 -205 89 q-76 89 -76 228 q0 131 76 223 q81 98 219 98 q80 0 155 -51 l0 -103 l-28 0 q-14 57 -44 87 q-39 39 -83 39 q-86 0 -151 -79 q-68 -82 -68 -214 q0 -135 69 -221 q55 -68 136 -68 q34 0 71 18 q13 6 27 18 l0 159 q0 52 -66 52 l0 28 l187 0 l0 -28 q-45 0 -45 -52 l0 -129 q-69 -94 -174 -94 Z" /><glyph glyph-name="H" unicode="h" d="M496 76 l-208 0 l0 28 q66 0 66 52 l0 220 l-196 0 l0 -220 q0 -52 66 -52 l0 -28 l-208 0 l0 28 q66 0 66 52 l0 458 q0 52 -66 52 l0 28 l208 0 l0 -28 q-66 0 -66 -52 l0 -210 l196 0 l0 210 q0 52 -66 52 l0 28 l208 0 l0 -28 q-66 0 -66 -52 l0 -458 q0 -52 66 -52 l0 -28 Z" /><glyph glyph-name="I" unicode="i" d="M294 156 q0 -52 66 -52 l50 0 l0 -28 l-308 0 l0 28 l50 0 q66 0 66 52 l0 458 q0 52 -66 52 l-50 0 l0 28 l308 0 l0 -28 l-50 0 q-66 0 -66 -52 l0 -458 Z" /><glyph glyph-name="J" unicode="j" d="M117 156 q0 -23 24 -43 q23 -19 59 -19 q39 0 67 27 q30 29 30 106 l0 387 q0 52 -66 52 l-50 0 l0 28 l308 0 l0 -28 l-50 0 q-66 0 -66 -52 l0 -387 q0 -78 -49 -121 q-46 -40 -124 -40 q-76 0 -130 45 q-47 39 -47 84 q0 23 16 39 q16 16 39 16 q23 0 39 -16 q16 -16 16 -39 q0 -23 -16 -39 Z" /><glyph glyph-name="K" unicode="k" d="M167 333 l0 -177 q0 -52 66 -52 l0 -28 l-208 0 l0 28 q66 0 66 52 l0 458 q0 52 -66 52 l0 28 l208 0 l0 -28 q-66 0 -66 -52 l0 -178 l167 190 q36 40 -24 40 l0 28 l158 0 l0 -28 q-56 0 -92 -40 l-185 -206 l241 -285 q26 -31 55 -31 l0 -28 l-165 0 l0 28 q17 0 24 6 q7 6 -9 25 l-170 198 Z" /><glyph glyph-name="L" unicode="l" d="M302 104 q40 0 71 17 q29 16 100 123 l17 -8 l-74 -160 l-385 0 l0 28 q66 0 66 52 l0 458 q0 52 -66 52 l0 28 l208 0 l0 -28 q-66 0 -66 -52 l0 -458 q0 -52 66 -52 l63 0 Z" /><glyph glyph-name="M" unicode="m" d="M380 156 l0 445 l-132 -462 l-34 0 l-124 398 l0 -381 q0 -52 44 -52 l0 -28 l-122 0 l0 28 q44 0 44 52 l0 458 q0 52 -44 52 l0 28 l106 0 l127 -443 l128 443 l127 0 l0 -28 q-44 0 -44 -52 l0 -458 q0 -52 44 -52 l0 -28 l-164 0 l0 28 q44 0 44 52 Z" /><glyph glyph-name="N" unicode="n" d="M395 239 l0 375 q0 52 -66 52 l0 28 l166 0 l0 -28 q-66 0 -66 -52 l0 -538 l-34 0 l-278 529 l0 -449 q0 -52 66 -52 l0 -28 l-166 0 l0 28 q66 0 66 52 l0 458 q0 52 -66 52 l0 28 l139 0 l239 -455 Z" /><glyph glyph-name="O" unicode="o" d="M104 611 q70 93 152 93 q82 0 152 -93 q73 -97 73 -226 q0 -129 -73 -226 q-70 -93 -152 -93 q-82 0 -152 93 q-73 97 -73 226 q0 129 73 226 ZM351 587 q-46 89 -95 89 q-49 0 -95 -89 q-54 -106 -54 -202 q0 -96 54 -202 q46 -89 95 -89 q49 0 95 89 q54 106 54 202 q0 96 -54 202 Z" /><glyph glyph-name="P" unicode="p" d="M240 104 l0 -28 l-208 0 l0 28 q66 0 66 52 l0 458 q0 52 -66 52 l0 28 l221 0 l44 0 q81 0 133 -39 q58 -43 58 -102 q0 -81 -59 -123 q-69 -49 -200 -49 l-55 0 l0 -225 q0 -52 66 -52 ZM233 666 q-59 0 -59 -52 l0 -205 l55 0 q77 0 128 36 q55 38 55 108 q0 49 -46 80 q-49 33 -133 33 Z" /><glyph glyph-name="Q" unicode="q" d="M351 587 q-46 89 -95 89 q-49 0 -95 -89 q-54 -106 -54 -202 q0 -80 37 -167 q38 55 97 55 q63 0 106 -98 l4 8 q54 106 54 202 q0 96 -54 202 ZM104 611 q70 93 152 93 q82 0 152 -93 q73 -97 73 -226 q0 -129 -73 -226 q-19 -25 -38 -43 q28 -67 58 -67 q21 0 46 22 l20 -16 q-51 -68 -94 -68 q-54 0 -79 94 q-32 -15 -65 -15 q-82 0 -152 93 q-73 97 -73 226 q0 129 73 226 ZM311 123 q-30 122 -70 122 q-54 0 -68 -84 q40 -67 83 -67 q28 0 55 29 Z" /><glyph glyph-name="R" unicode="r" d="M225 104 l0 -28 l-208 0 l0 28 q66 0 66 52 l0 458 q0 52 -66 52 l0 28 l221 0 l44 0 q81 0 133 -39 q58 -43 58 -102 q0 -82 -59 -123 q-48 -33 -122 -44 l137 -244 q22 -38 66 -38 l0 -28 l-110 0 l-171 305 l-55 0 l0 -225 q0 -52 66 -52 ZM218 666 q-59 0 -59 -52 l0 -205 l55 0 q77 0 128 36 q55 38 55 108 q0 49 -46 80 q-49 33 -133 33 Z" /><glyph glyph-name="S" unicode="s" d="M51 545 q0 62 53 107 q62 53 152 53 q93 0 191 -74 l-8 -103 l-25 0 q-20 68 -62 106 q-48 43 -96 43 q-57 0 -95 -41 q-34 -37 -34 -82 q0 -92 149 -129 q191 -48 191 -179 q0 -74 -60 -126 q-62 -54 -151 -54 q-129 0 -200 90 l-27 117 l24 6 q50 -106 93 -145 q44 -40 110 -40 q56 0 97 44 q38 40 38 99 q0 98 -159 138 q-181 46 -181 170 Z" /><glyph glyph-name="T" unicode="t" d="M294 156 q0 -52 66 -52 l50 0 l0 -28 l-308 0 l0 28 l50 0 q66 0 66 52 l0 510 l-52 0 q-56 0 -112 -110 l-27 11 l42 127 l374 0 l42 -127 l-27 -11 q-56 110 -112 110 l-52 0 l0 -510 Z" /><glyph glyph-name="U" unicode="u" d="M168 232 q0 -67 26 -104 q24 -34 75 -34 q53 0 82 38 q35 46 35 111 l0 371 q0 52 -66 52 l0 28 l166 0 l0 -28 q-66 0 -66 -52 l0 -371 q0 -79 -44 -130 q-41 -47 -107 -47 q-90 0 -130 42 q-47 49 -47 124 l0 382 q0 52 -66 52 l0 28 l208 0 l0 -28 q-66 0 -66 -52 l0 -382 Z" /><glyph glyph-name="W" unicode="w" d="M41 638 q-2 12 -10 20 q-8 8 -20 8 l0 28 l143 0 l0 -28 q-19 0 -29 -6 q-11 -6 -8 -22 l72 -398 l58 371 l-3 23 q-2 16 -12 26 q-10 6 -28 6 l0 28 l152 0 l0 -28 q-24 0 -36 -6 q-12 -6 -9 -26 l60 -397 l68 400 q4 21 -4 25 q-7 4 -19 4 l0 28 l86 0 l0 -28 q-20 0 -27 -8 q-7 -8 -9 -21 l-95 -561 l-39 0 l-72 457 l-72 -457 l-35 0 l-112 562 Z" /><glyph glyph-name="Y" unicode="y" d="M81 628 q-21 38 -75 38 l0 28 l208 0 l0 -28 q-69 0 -48 -38 l118 -213 l113 230 q10 21 -24 21 l0 28 l133 0 l0 -28 q-61 0 -71 -21 l-141 -289 l0 -200 q0 -52 66 -52 l0 -28 l-208 0 l0 28 q66 0 66 52 l0 225 l-137 247 Z" /><glyph glyph-name="bracketleft" unicode="[" d="M366 -68 l-220 0 l0 912 l220 0 l0 -28 l-144 0 l0 -856 l144 0 l0 -28 Z" /><glyph glyph-name="backslash" unicode="\" d="M9 844 l76 0 l418 -912 l-76 0 l-418 912 Z" /><glyph glyph-name="bracketright" unicode="]" d="M290 -40 l0 856 l-144 0 l0 28 l220 0 l0 -912 l-220 0 l0 28 l144 0 Z" /><glyph glyph-name="underscore" unicode="_" d="M0 -64 l512 0 l0 -44 l-512 0 l0 44 Z" /><glyph glyph-name="a" unicode="a" d="M409 129 q0 -18 18 -18 q16 0 35 19 l17 -22 q-42 -42 -88 -42 q-25 0 -37 12 q-16 16 -16 37 l0 6 q-22 -17 -38 -25 q-63 -30 -136 -30 q-48 0 -87 29 q-43 32 -43 88 q0 63 66 100 q61 34 161 34 q38 0 77 -13 l0 82 q0 38 -29 61 q-25 20 -59 20 q-20 0 -43.5 -13 q-23.5 -13 -23.5 -47 q0 -25 -18 -34 q-20 -10 -33 -10 q-21 0 -31 12 q-15 17 -15 32 q0 38 44 62 q48 26 113 26 q70 0 118 -38 q48 -38 48 -98 l0 -230 ZM315 286 q-100 0 -157 -31 q-53 -29 -53 -72 q0 -25 20 -53 q18 -25 76 -25 q48 0 88 23 q25 15 49 36 l0 119 l-23 3 Z" /><glyph glyph-name="b" unicode="b" d="M100 110 l0 468 q0 51 -65 51 l0 22 l114 53 l22 0 l0 -261 q58 51 115 51 q70 0 130.5 -62.5 q60.5 -62.5 60.5 -151.5 q0 -89 -60.5 -151.5 q-60.5 -62.5 -145.5 -62.5 q-121 0 -171 44 ZM171 410 l0 -281 q40 -35 98 -35 q58 0 97.5 54.5 q39.5 54.5 39.5 131.5 q0 77 -39.5 131.5 q-39.5 54.5 -95.5 54.5 q-37 -1 -100 -56 Z" /><glyph glyph-name="c" unicode="c" d="M277 494 q76 0 119 -31 q25 -18 25 -44 q0 -43 -41 -43 q-37 0 -49 43 q-13 47 -74 47 q-46 0 -82 -51 q-45 -61 -45 -139 q0 -87 50 -135 q49 -47 105 -47 q68 0 142 85 l26 -23 q-77 -90 -168 -90 q-95 0 -157 51 q-69 57 -69 159 q0 88 49 146 q63 72 169 72 Z" /><glyph glyph-name="d" unicode="d" d="M354 133 l0 303 q-34 30 -97 30 q-56 0 -95.5 -54.5 q-39.5 -54.5 -39.5 -131.5 q0 -77 39.5 -131.5 q39.5 -54.5 95.5 -54.5 q58 0 97 39 ZM354 465 l0 113 q0 51 -65 51 l0 22 l114 53 l22 0 l0 -579 q0 -24 32 -24 l3 -20 l-106 -15 l0 40 q-52 -40 -97 -40 q-85 0 -145.5 62.5 q-60.5 62.5 -60.5 151.5 q0 89 61 152 q60 62 145 62 q54 0 97 -29 Z" /><glyph glyph-name="e" unicode="e" d="M124 321 l264 0 q-8 51 -36 91 q-40 54 -96 54 q-56 0 -96 -54 q-28 -40 -36 -91 ZM434 207 l25 -8 q-16 -39 -48 -71 q-62 -62 -153 -62 q-87 0 -148 62 q-60 61 -60 152 q0 89 60 152 q59 62 146 62 q85 0 146 -62 q54 -56 60 -139 l-341 0 q0 -6 0 -48 q0 -42 39 -97 q38 -54 98 -54 q79 0 135 54 q27 26 41 59 Z" /><glyph glyph-name="f" unicode="f" d="M245 156 q0 -52 66 -52 l49 0 l0 -28 l-302 0 l0 28 l50 0 q66 0 66 52 l0 278 l-140 0 l0 28 l140 0 l0 97 q0 56 37 100 q38 45 113 45 q63 0 107 -25 q47 -27 47 -54 q0 -18 -10 -31 q-12 -15 -33 -15 q-29 0 -39.5 14 q-10.5 14 -10.5 41 q0 17 -18 31 q-14 11 -42 11 q-35 0 -56 -33 q-24 -38 -24 -84 l0 -97 l141 0 l0 -28 l-141 0 l0 -278 Z" /><glyph glyph-name="g" unicode="g" d="M234 -43 q-78 0 -125 15 q-57 18 -57 59 q0 40 45 79 q12 10 34 22 q-20 6 -25 9 q-34 19 -34 41 q0 24 38 46 q25 15 46 20 q-24 9 -42 22 q-50 35 -50 96 q0 55 47 94 q42 35 97 35 q43 0 108 -26 q26 11 41 15 q29 13 47 13 q20 0 33 -11 q24 -20 24 -38 q0 -18 -8 -28 q-8 -10 -16 -10 q-19 0 -35 19 q-16 19 -41 19 q-6 0 -13 -2 q42 -37 42 -89 q0 -52 -53 -86.5 q-53 -34.5 -115 -34.5 q-15 0 -25 2 q-43 -20 -43 -36 q0 -15 105 -3 q63 7 130 -30 q61 -37 61 -100 q0 -49 -51 -81 q-50 -31 -165 -31 ZM363 103 q-31 20 -104 20 q-51 0 -85 3 q-11 -4 -17 -10 q-29 -26 -29 -57 q0 -29 35 -46 q35 -17 111 -17 q53 0 84 19 q34 21 34 45 q0 24 -29 43 ZM140 403 q0 -62 29 -103 q25 -35 67 -35 q27 0 49 16 q29 21 29 45 q0 62 -46 107 q-31 30 -70 30 q-19 0 -36 -16 q-22 -20 -22 -44 Z" /><glyph glyph-name="h" unicode="h" d="M425 156 q0 -52 66 -52 l0 -28 l-203 0 l0 28 q66 0 66 52 l0 242 q0 52 -56 52 q-54 0 -139 -67 l0 -227 q0 -52 66 -52 l0 -28 l-203 0 l0 28 q66 0 66 52 l0 418 q0 51 -65 51 l0 22 l114 53 l22 0 l0 -288 q90 83 139 83 q127 0 127 -97 l0 -242 Z" /><glyph glyph-name="i" unicode="i" d="M213.5 589.5 q-17.5 17.5 -17.5 42.5 q0 25 17.5 42.5 q17.5 17.5 42.5 17.5 q25 0 42.5 -17.5 q17.5 -17.5 17.5 -42.5 q0 -25 -17.5 -42.5 q-17.5 -17.5 -42.5 -17.5 q-25 0 -42.5 17.5 ZM292 156 q0 -52 66 -52 l50 0 l0 -28 l-303 0 l0 28 l50 0 q66 0 66 52 l0 233 q0 20 -116 20 l0 28 q105 0 159 58 l28 0 l0 -339 Z" /><glyph glyph-name="j" unicode="j" d="M352.5 589.5 q-17.5 17.5 -17.5 42.5 q0 25 17.5 42.5 q17.5 17.5 42.5 17.5 q25 0 42.5 -17.5 q17.5 -17.5 17.5 -42.5 q0 -25 -17.5 -42.5 q-17.5 -17.5 -42.5 -17.5 q-25 0 -42.5 17.5 ZM431 495 l0 -385 q0 -77 -49 -122 q-50 -46 -150 -46 q-71 0 -131 46 q-61 47 -61 124 q0 45 19 67 q19 22 55 22 q18 0 31 -16 q11 -14 11 -30 q0 -21 -20 -43 q-19 -21 -19 -43 q0 -40 31.5 -69.5 q31.5 -29.5 83.5 -29.5 q67 0 98 42 q30 43 30 110 l0 267 q0 20 -116 20 l0 28 q105 0 159 58 l28 0 Z" /><glyph glyph-name="k" unicode="k" d="M420 142 q41 -38 70 -38 l0 -28 l-212 0 l0 28 q80 0 38 38 l-157 146 l0 -132 q0 -52 66 -52 l0 -28 l-203 0 l0 28 q66 0 66 52 l0 418 q0 51 -65 51 l0 22 l114 53 l22 0 l0 -391 l170 127 q28 21 -24 21 l0 28 l142 0 l0 -28 q-43 0 -71 -21 l-150 -113 l194 -181 Z" /><glyph glyph-name="l" unicode="l" d="M292 156 q0 -52 66 -52 l50 0 l0 -28 l-303 0 l0 28 l50 0 q66 0 66 52 l0 442 q0 20 -116 20 l0 28 q105 0 159 58 l28 0 l0 -548 Z" /><glyph glyph-name="m" unicode="m" d="M115 437 q37 58 100 58 q29 0 54 -23 q14 -14 20 -35 q39 58 103 58 q29 0 54 -23 q23 -22 23 -65 l0 -271 q0 -32 26 -32 l0 -28 l-123 0 l0 28 q26 0 26 32 l0 271 q0 48 -28 48 q-48 0 -78 -54 l0 -265 q0 -32 26 -32 l0 -28 l-123 0 l0 28 q26 0 26 32 l0 271 q0 48 -28 48 q-48 0 -78 -62 l0 -257 q0 -32 26 -32 l0 -28 l-123 0 l0 28 q26 0 26 32 l0 243 q0 31 -26 31 l0 22 l75 53 l22 0 l0 -48 Z" /><glyph glyph-name="n" unicode="n" d="M152 377 l0 -221 q0 -52 66 -52 l0 -28 l-203 0 l0 28 q66 0 66 52 l0 203 q0 51 -65 51 l0 22 l114 53 l22 0 l0 -74 q89 85 174 85 q105 0 105 -108 l0 -232 q0 -52 66 -52 l0 -28 l-203 0 l0 28 q66 0 66 52 l0 232 q0 63 -69 63 q-51 0 -139 -74 Z" /><glyph glyph-name="o" unicode="o" d="M160.5 411.5 q-39.5 -54.5 -39.5 -131.5 q0 -77 39.5 -131.5 q39.5 -54.5 95.5 -54.5 q56 0 95.5 54.5 q39.5 54.5 39.5 131.5 q0 77 -39.5 131.5 q-39.5 54.5 -95.5 54.5 q-56 0 -95.5 -54.5 ZM110.5 128.5 q-60.5 62.5 -60.5 151.5 q0 89 60.5 151.5 q60.5 62.5 145.5 62.5 q85 0 145.5 -62.5 q60.5 -62.5 60.5 -151.5 q0 -89 -60.5 -151.5 q-60.5 -62.5 -145.5 -62.5 q-85 0 -145.5 62.5 Z" /><glyph glyph-name="p" unicode="p" d="M169 95 l0 -73 q0 -52 66 -52 l0 -28 l-203 0 l0 28 q66 0 66 52 l0 337 q0 51 -65 51 l0 22 l114 53 l22 0 l0 -53 q69 63 132 63 q76 0 129 -62 q50 -58 50 -161 q0 -86 -50 -142 q-57 -64 -133 -64 q-59 0 -128 29 ZM169 401 l0 -268 q58 -39 104 -39 q53 0 95 51 q41 50 41 127 q0 89 -39 134 q-38 44 -95 44 q-48 0 -106 -49 Z" /><glyph glyph-name="q" unicode="q" d="M347 452 l35 33 l22 0 l0 -463 q0 -52 66 -52 l0 -28 l-203 0 l0 28 q66 0 66 52 l0 70 q-50 -26 -92 -26 q-86 0 -137 55 q-61 66 -61 157 q0 95 51 157 q50 60 118 60 q65 0 135 -43 ZM333 120 l0 305 q-53 25 -92 25 q-56 0 -92 -45 q-35 -44 -35 -127 q0 -92 46 -140 q42 -44 94 -44 q39 0 79 26 Z" /><glyph glyph-name="r" unicode="r" d="M449 454 q13 -13 13 -32 q0 -19 -13 -32 q-13 -13 -32 -13 q-24 0 -32 13 q-26 43 -56 43 q-30 0 -69 -22 q-33 -19 -70 -61 l0 -194 q0 -52 66 -52 l0 -28 l-203 0 l0 28 q66 0 66 52 l0 203 q0 51 -65 51 l0 22 l114 53 l22 0 l0 -101 q34 46 72 72 q56 39 93 39 q60 0 94 -41 Z" /><glyph glyph-name="s" unicode="s" d="M429 435 l-8 -71 l-20 0 q-27 63 -62 83 q-34 20 -71 20 q-54 0 -82 -23 q-25 -21 -25 -55 q0 -27 13 -43 q10 -13 105 -34 q104 -23 127 -53 q25 -32 25 -65 q0 -51 -39 -87 q-44 -41 -113 -41 q-91 0 -189 55 l-14 87 l22 16 q27 -66 82 -100 q48 -30 86 -30 q43 0 70 30 q24 26 24 58 q0 25 -18 44 q-8 9 -109 35 q-94 21 -122 49 q-21 21 -21 64 q0 54 46 88 q45 33 117 33 q78 0 176 -60 Z" /><glyph glyph-name="t" unicode="t" d="M186 457 l-139 0 l0 28 q106 0 142 40 q42 47 42 108 l26 0 l0 -148 l180 0 l-11 -28 l-169 0 l0 -279 q0 -27 17 -49 q14 -18 51 -18 q34 0 61 26 q37 36 51 72 l29 -12 q-31 -75 -68 -101 q-42 -30 -97 -30 q-50 0 -82 29 q-33 30 -33 83 l0 279 Z" /><glyph glyph-name="u" unicode="u" d="M160 190 q0 -39 21 -59 q21 -20 63 -20 q31 0 71 21 q7 4 45 28 l0 275 q0 32 -41 32 l0 28 l112 0 l0 -355 q7 -22 35 -15 l0 -28 q-48 -5 -106 -20 l0 46 q-82 -57 -140 -57 q-53 0 -92 28 q-39 28 -39 96 l0 244 q0 33 -42 33 l0 28 l113 0 l0 -305 Z" /><glyph glyph-name="v" unicode="v" d="M279 76 l-33 0 l-133 329 q-21 52 -66 52 l0 28 l209 0 l0 -28 q-87 0 -66 -52 l94 -235 l86 235 q19 52 -66 52 l0 28 l160 0 l0 -28 q-47 0 -66 -52 l-119 -329 Z" /><glyph glyph-name="w" unicode="w" d="M451 425 l-93 -349 l-29 0 l-75 300 l-80 -300 l-27 0 l-86 349 q-8 32 -26 32 l0 28 l125 0 l0 -28 q-34 0 -26 -32 l50 -204 l54 204 q8 32 -26 32 l0 28 l129 0 l0 -28 q-34 0 -26 -32 l52 -208 l55 208 q8 32 -26 32 l0 28 l81 0 l0 -28 q-17 0 -26 -32 Z" /><glyph glyph-name="x" unicode="x" d="M388 156 q36 -52 106 -52 l0 -28 l-219 0 l0 28 q62 0 26 52 l-67 97 l-76 -97 q-41 -52 26 -52 l0 -28 l-167 0 l0 28 q66 0 106 52 l94 121 l-90 128 q-37 52 -106 52 l0 28 l219 0 l0 -28 q-62 0 -26 -52 l49 -70 l55 70 q41 52 -26 52 l0 28 l167 0 l0 -28 q-65 0 -106 -52 l-73 -93 l108 -156 Z" /><glyph glyph-name="y" unicode="y" d="M202 4 l39 97 l-123 304 q-21 52 -86 52 l0 28 l209 0 l0 -28 q-67 0 -46 -52 l84 -211 l85 211 q21 52 -46 52 l0 28 l162 0 l0 -28 q-65 0 -86 -52 l-163 -405 q-19 -46 -79 -46 q-21 0 -35.5 14.5 q-14.5 14.5 -14.5 35.5 q0 21 14.5 35.5 q14.5 14.5 35.5 14.5 q21 0 35.5 -14.5 q14.5 -14.5 14.5 -35.5 Z" /><glyph glyph-name="braceleft" unicode="{" d="M105 402 q47 0 89 37 q31 27 31 147 q0 258 182 258 l0 -28 q-111 0 -111 -212 q0 -133 -39 -183 q-15 -19 -46 -33 q31 -14 46 -33 q39 -56 39 -183 q0 -212 111 -212 l0 -28 q-182 0 -182 258 q0 120 -31 147 q-42 37 -89 37 l0 28 Z" /><glyph glyph-name="bar" unicode="|" d="M222 844 l71 0 l0 -912 l-71 0 l0 912 Z" /><glyph glyph-name="braceright" unicode="}" d="M407 402 l0 -28 q-47 0 -89 -37 q-31 -27 -31 -147 q0 -258 -182 -258 l0 28 q111 0 111 212 q0 127 39 183 q15 19 46 33 q-31 14 -46 33 q-39 50 -39 183 q0 212 -111 212 l0 28 q182 0 182 -258 q0 -120 31 -147 q42 -37 89 -37 Z" /><glyph glyph-name="asciitilde" unicode="~" d="M74 626 q36 74 96 74 q60 0 96 -37 q36 -37 96 -37 q60 0 96 74 l-20 -53 q-36 -74 -96 -74 q-60 0 -96 37 q-36 37 -96 37 q-60 0 -96 -74 l20 53 Z" /><glyph glyph-name="copyright" unicode="©" d="M510 391 q0 -104 -75 -179 q-74 -75 -178 -75 q-106 0 -180 76 q-75 74 -75 178 q0 105 76 179 q73 75 179 75 q104 0 178.5 -74.5 q74.5 -74.5 74.5 -179.5 ZM257 163 q88 0 153 58 q74 66 74 170 q0 89 -58 154 q-65 74 -169 74 q-90 0 -155 -58 q-73 -66 -73 -170 q0 -89 57 -154 q67 -74 171 -74 ZM155 395 q0 -77 43 -115 q27 -23 66 -23 q41 0 64 10 q30 13 62 62 l10 -8 q-29 -66 -77 -86 q-29 -12 -68 -12 q-42 0 -102 44 q-45 33 -45 128 q0 74 47 118 q45 42 114 42 q92 0 109 -47 q4 -11 4 -22 q0 -31 -35 -31 q-31 0 -31 27 q0 10 14 28 q0 21 -61 21 q-53 0 -86 -43 q-28 -37 -28 -93 Z" /><glyph glyph-name="quotedblleft" unicode="&#x201c;" d="M882 727 q-13 0 -23 -5 q0 31 21 63 q19 25 51 43 l-18 15 q-49 -21 -77 -53 q-25 -31 -26 -78 q0 -42 18 -72 q16 -25 43 -25 q28 0 43 11 q19 16 20 40 q0 25 -14 43 q-15 18 -38 18 ZM666 727 q-13 0 -23 -5 q0 31 19 62 q19 27 51 44 l-16 15 q-49 -21 -77 -53 q-25 -31 -26 -78 q0 -42 17 -69 q18 -28 44 -28 q28 0 42 11 q21 18 21 40 q0 25 -14 42 q-15 19 -38 19 Z" /><glyph glyph-name="quotedblright" unicode="&#x201d;" d="M150 865 q-22 0 -41 -14 q-18 -16 -18 -41 q0 -19 13 -36 q13 -16 35 -17 q13 0 28 5 q-1 -43 -26 -76 q-24 -28 -53 -44 l18 -13 q46 22 71 49 q37 36 38 86 q0 46 -16 73 q-16 28 -49 28 ZM364 865 q-22 0 -41 -14 q-18 -16 -18 -41 q0 -19 13 -36 q13 -16 35 -17 q13 0 28 5 q-1 -43 -25 -75 q-25 -28 -54 -45 l18 -13 q46 22 71 49 q37 36 38 86 q0 46 -17 75 q-18 25 -48 26 Z" /><glyph glyph-name="ellipsis" unicode="&#x2026;" d="M512 452 q-25 0 -46 -18 q-18 -19 -18 -46 q0 -25 18 -44 q19 -18 46 -18 q25 0 44 18 q18 19 18 44 q0 25 -18 46 q-19 18 -44 18 ZM172 452 q-25 0 -46 -18 q-18 -19 -18 -46 q0 -25 18 -44 q19 -18 46 -18 q25 0 45 18 q18 19 18 44 q0 25 -18 46 q-19 18 -45 18 ZM860 452 q-25 0 -45 -18 q-19 -19 -19 -46 q0 -25 19 -44 q19 -18 45 -18 q25 0 45 18 q19 19 19 44 q0 25 -19 46 q-19 18 -45 18 Z" /><glyph glyph-name="uni3001" unicode="&#x3001;" d="M392 507 l-6 -29 q75 -40 141 -123 q55 -75 74 -75 q18 0 28 9 q10 13 11 44 q0 39 -50 79 q-60 51 -198 95 Z" /><glyph glyph-name="uni3002" unicode="&#x3002;" d="M512 513 q-51 0 -89 -37 q-36 -37 -36 -88 q0 -49 36 -87 q37 -37 89 -37 q49 0 87 37 q37 37 37 87 q0 51 -36 87 q-37 37 -88 38 ZM449 325 q-27 27 -27 63 q0 37 26 63 q27 27 64 27 q36 0 63 -27 q25 -25 26 -63 q0 -36 -26 -62 q-27 -27 -63 -27 q-37 0 -63 26 Z" /><glyph glyph-name="uni300C" unicode="&#x300c;" d="M597 848 l0 -704 l55 0 l0 649 l286 0 l0 55 l-341 0 Z" /><glyph glyph-name="uni300D" unicode="&#x300d;" d="M100 3 l0 -55 l328 0 l0 683 l-55 0 l0 -628 l-273 0 Z" /><glyph glyph-name="uni4E00" unicode="&#x4e00;" d="M114 407 q-16 0 -18 -14 q-1 -16 22 -34 q51 -39 96 -26 q120 42 450 62 q106 6 246 -13 q30 -4 37 7 q10 16 -5 32 q-37 34 -92 60 q-18 7 -50 -3 q-42 -12 -100 -18 q-261 -24 -419 -42 q-96 -13 -167 -11 Z" /><glyph glyph-name="uni4E07" unicode="&#x4e07;" d="M480 467 q39 -22 185 8 q19 4 28 -7 q7 -15 -3 -45 q-40 -160 -73 -226 q-25 -52 -47 -67 q-22 -16 -51 5 q-25 16 -58 40 q-16 10 -18 2 q-1 -12 13 -31 q34 -58 50 -102 q7 -28 25 -32 q18 -3 52 16 q40 30 71 90 q34 69 93 255 q15 46 39 70 q19 15 16 31 q-4 18 -80 59 q-24 13 -47 -1 q-76 -33 -181 -36 q4 10 9 19 q37 81 47 93 q15 13 12 30 q-12 25 -39 49 q136 18 388 19 q24 1 29 11 q7 13 -13 30 q-66 49 -137 28 q-208 -42 -627 -97 q-25 -3 -7 -23 q18 -16 38 -22 q25 -6 44 0 q111 31 238 47 q4 -33 -12 -83 q-6 -13 -12 -30 q-94 -247 -256 -386 q-34 -31 -67 -59 q-7 -4 -12 -11 q-7 -10 5 -12 q16 -3 72 32 q163 87 286 336 Z" /><glyph glyph-name="uni4E0A" unicode="&#x4e0a;" d="M456 132 q-103 -7 -181 -17 q-103 -12 -178 -9 q-16 0 -17 -12 q-1 -15 19 -31 q43 -33 96 -21 q120 40 473 58 q114 6 263 -15 q27 -4 33 6 q10 15 -4 29 q-33 31 -81 55 q-16 7 -45 -2 q-36 -9 -320 -36 q6 171 11 322 q57 -13 132 4 q48 10 98 22 q28 7 33 12 q10 10 5 20 q-10 15 -46 22 q-37 6 -75 -10 q-31 -12 -66 -21 q-37 -7 -79 -13 q9 189 20 219 q15 25 -3 42 q-45 36 -81 46 q-19 4 -37 -11 q-7 -9 0 -23 q30 -45 30 -141 q0 -232 0 -495 Z" /><glyph glyph-name="uni4E0B" unicode="&#x4e0b;" d="M538 505 q3 -7 13 -14 q78 -46 173 -117 q21 -18 37 -19 q10 0 16 12 q10 16 -12 59 q-27 57 -219 97 q-6 1 -7 0 q1 97 10 138 q3 16 -18 32 q201 25 386 5 q27 -3 33 7 q9 15 -5 28 q-34 31 -83 53 q-16 7 -45 -3 q-43 -13 -104 -20 q-271 -30 -436 -51 q-100 -15 -173 -15 q-16 0 -17 -12 q-1 -15 20 -30 q48 -36 87 -23 q96 37 278 55 q21 -63 3 -419 q-15 -138 -20 -149 q-15 -57 47 -133 q3 -1 7 -5 q13 -1 20 15 q9 24 10 105 q0 66 -1 404 Z" /><glyph glyph-name="uni4E0D" unicode="&#x4e0d;" d="M636 400 q94 -73 210 -183 q18 -21 34 -24 q10 -1 17 10 q12 15 -4 60 q-21 66 -258 170 q-10 6 -11 -8 q0 -15 12 -25 ZM559 674 l1 -2 q3 -51 -56 -144 q-13 18 -34 27 q-12 1 -16 -6 q-7 -15 18 -67 q-108 -133 -274 -252 q-34 -24 -75 -53 q-10 -4 1 -9 q58 0 215 110 q82 66 148 141 q6 -186 -22 -316 q-13 -49 24 -104 q1 -3 5 -6 q21 -18 33 12 q16 46 16 97 q-10 283 -3 348 q6 22 1 35 q94 120 103 126 q9 6 8 17 q-1 12 -13 26 q-15 16 -35 25 q78 18 244 3 q24 -1 30 7 q7 13 -5 25 q-69 57 -112 42 q-36 -10 -85 -19 q-213 -27 -343 -47 q-79 -13 -137 -14 q-13 -1 -14 -12 q-1 -13 18 -26 q42 -28 86 -15 q75 31 273 51 Z" /><glyph glyph-name="uni4E0E" unicode="&#x4e0e;" d="M358 609 q43 -21 96 -9 q112 19 230 38 q54 10 61 18 q10 9 6 18 q-7 13 -40 24 q-27 6 -136 -24 q-126 -24 -205 -33 q19 52 37 83 q10 18 1 31 q-16 19 -32 30 q-24 13 -34 10 q-10 -4 -6 -20 q21 -57 -75 -298 q-10 -15 -39 -40 q-13 -15 -6 -30 q10 -13 31 -33 q10 -12 31 0 q126 60 432 73 q81 3 62 -92 q-19 -112 -68 -264 q-13 -33 -38 -48 q-12 -6 -90 15 q-19 10 -21 0 q-1 -12 20 -30 q37 -46 50 -83 q24 -40 55 -16 q61 42 85 86 q21 51 66 313 q7 57 34 81 q18 18 10 30 q-13 16 -66 45 q-30 18 -101 1 q-282 -30 -386 -50 q-21 -1 -16 11 q27 94 52 163 ZM105 258 q-13 0 -14 -11 q0 -12 18 -25 q16 -12 48 -23 q9 -1 26 5 q78 28 282 42 q67 4 154 -6 q22 -1 28 6 q7 13 -5 24 q-28 25 -71 44 q-13 6 -38 -3 q-25 -7 -62 -12 q-343 -39 -366 -41 Z" /><glyph glyph-name="uni4E16" unicode="&#x4e16;" d="M484 438 q-4 -111 -19 -144 q-30 -25 12 -68 q1 0 3 -2 q10 -7 25 5 q25 19 64 32 q46 12 134 19 q22 1 23 12 q-1 12 -23 26 q10 70 19 135 q112 4 256 -15 q25 -3 31 6 q7 13 -4 26 q-76 73 -131 46 q-45 -10 -105 -17 q-21 -1 -41 -4 q18 180 43 227 q13 18 1 32 q-31 31 -58 42 q-15 4 -30 -5 q-6 -7 -1 -18 q19 -37 13 -80 q-10 -97 -21 -202 q-76 -4 -144 -12 q-3 237 -5 240 q-3 3 -4 5 q-10 9 -39 23 q-21 10 -29 2 q-6 -7 2 -21 q27 -48 28 -253 q-75 -6 -136 -13 q0 4 0 9 q-4 108 0 129 q10 19 -10 31 q-49 22 -69 22 q-13 1 -22 -7 q-10 -7 7 -25 q15 -16 17 -45 q7 -52 15 -121 q-7 0 -15 -1 q-114 -15 -197 -12 q-15 1 -16 -11 q-1 -13 18 -28 q45 -33 80 -24 q90 33 134 34 q18 -271 -23 -312 q-33 -28 16 -70 q18 -12 38 4 q40 48 289 51 q144 0 193 -8 q27 -4 40 2 q12 7 12 14 q-1 16 -37 40 q-40 25 -104 17 q-73 -6 -245 -25 q-105 -15 -111 5 q0 3 -4 122 q-3 28 -6 170 q55 9 136 15 ZM655 324 q-31 -6 -55 -10 q-25 -3 -54 -10 q-4 -1 -7 0 q-4 1 -6 13 q0 60 -1 125 q63 6 139 9 q-7 -61 -13 -127 q-1 1 -3 0 Z" /><glyph glyph-name="uni4E22" unicode="&#x4e22;" d="M515 687 q37 10 70 23 q49 13 90 16 q16 -1 22 6 q4 10 -6 23 q-19 19 -62 42 q-15 10 -29 10 q-7 -3 -10 -14 q-6 -49 -288 -133 q-6 -9 0 -12 q18 -6 140 23 q9 1 19 3 q18 -18 25 -75 q0 -25 3 -53 q-102 -19 -208 -25 q-42 -4 -13 -25 q46 -30 110 -18 q55 9 113 18 q1 -61 1 -129 q-1 1 -3 0 q-124 -16 -189 -25 q-70 -13 -176 -16 q-15 -1 -15 -13 q-1 -13 19 -27 q18 -13 51 -24 q10 -4 29 5 q18 6 92 20 q72 19 159 30 q0 -72 -94 -166 q-28 -31 -83 -56 q-31 -12 -32 -23 q-3 -19 8 -43 q10 -22 24 -29 q9 -4 22 2 q87 48 345 103 q22 4 42 6 q24 -34 49 -74 q13 -25 30 -33 q9 -3 20 6 q16 13 11 64 q-4 66 -168 164 q-10 7 -14 -6 q-4 -15 6 -29 q24 -31 50 -68 q-136 -16 -278 -34 q-12 -3 -14 1 q-3 4 6 12 q114 135 156 168 q18 15 8 27 q-7 9 -25 16 q240 30 349 20 q57 0 60 2 q0 3 2 3 q7 13 -5 26 q-31 28 -77 48 q-16 6 -42 -4 q-82 -18 -282 -47 q4 67 9 130 q57 13 116 20 q66 13 75 21 q10 9 6 18 q-7 15 -40 24 q-34 9 -69 -3 q-43 -12 -84 -24 q1 10 2 21 q7 49 14 68 q3 10 -17 25 q-16 9 -30 14 Z" /><glyph glyph-name="uni4E24" unicode="&#x4e24;" d="M564 348 q48 -43 105 -107 q15 -19 29 -23 q7 -1 15 8 q10 13 0 52 q-9 45 -139 97 q21 78 28 112 q57 4 143 10 q16 0 21 -8 q10 -7 11 -50 q10 -181 -10 -286 q-9 -42 -44 -38 q-46 10 -90 17 q-16 4 -16 -3 q0 -7 13 -20 q94 -66 120 -101 q10 -16 22 -14 q16 3 29 31 q34 63 45 254 q3 178 17 202 q19 24 4 29 q-16 18 -58 35 q-25 16 -53 5 q-33 -10 -115 -18 q-16 -1 -33 -4 q6 85 14 106 q7 13 1 27 q-15 15 -40 26 q10 3 158 18 q12 -1 23 13 q1 13 -24 26 q-39 24 -122 1 q-111 -24 -307 -49 q-19 -1 -37 -4 q-33 -3 -8 -23 q37 -30 62 -25 q1 1 28 5 q21 -21 7 -155 q-61 -10 -120 -21 q-9 18 -57 31 q-10 1 -16 -7 q-4 -6 4 -17 q45 -135 1 -313 q-12 -12 -6 -51 q0 -1 1 -3 q10 -34 22 -48 q12 -15 22 0 q28 34 29 201 q0 108 7 168 q42 15 102 22 q1 1 5 0 q-18 -90 -79 -193 q-4 -6 -6 -11 q-3 -10 6 -7 q28 6 83 97 q1 3 3 5 q4 -4 12 -11 q70 -66 78 -68 q7 0 12 9 q4 10 -1 30 q-7 30 -90 62 l-1 0 q15 34 26 74 q1 10 5 20 q76 13 141 20 q-1 -6 -1 -13 q-18 -123 -103 -272 q-4 -6 -6 -12 q-3 -10 8 -9 q25 4 88 101 q9 18 19 37 q7 16 13 33 ZM539 676 q21 -36 11 -154 q-79 -7 -137 -19 q4 24 7 46 q1 39 9 60 q7 13 1 24 q-13 13 -36 23 q64 13 143 24 q0 -1 2 -4 Z" /><glyph glyph-name="uni4E2A" unicode="&#x4e2a;" d="M505 679 q109 -141 251 -288 q21 -24 56 -22 q121 4 159 12 q12 3 13 8 q0 6 -17 13 q-177 54 -225 93 q-103 84 -223 205 q12 24 32 44 q9 6 7 16 q-1 10 -15 24 q-36 31 -68 27 q-10 -3 -7 -16 q18 -103 -168 -310 q-4 -3 -7 -7 q-52 -55 -183 -162 q-10 -4 2 -8 q66 9 194 121 q81 75 199 250 ZM472 486 q28 -45 3 -333 q-1 -10 -3 -22 q-1 -28 -5 -40 q-13 -54 41 -110 q1 -1 4 -3 q12 -1 17 12 q6 18 7 102 q-7 294 4 363 q1 13 -5 19 q-24 21 -43 30 q-13 4 -22 -4 q-6 -4 2 -14 Z" /><glyph glyph-name="uni4E2D" unicode="&#x4e2d;" d="M473 359 q-3 -385 10 -414 q1 -4 4 -8 q16 -18 26 6 q19 45 20 421 q102 10 237 14 q13 1 16 12 q0 10 -30 33 q16 40 30 77 q19 51 59 83 q27 25 -6 49 q-28 25 -60 44 q-18 15 -84 -5 q-15 -1 -156 -23 q3 105 24 137 q7 18 -14 35 q-28 22 -76 34 q-22 7 -36 -9 q-12 -10 3 -23 q31 -27 33 -64 q0 -49 1 -119 q-49 -4 -100 -14 q-129 -16 -144 -14 q-46 10 -53 2 q-7 -9 5 -27 q40 -75 69 -200 q6 -37 29 -61 q22 -25 28 -6 q1 10 3 21 q7 0 16 1 q58 10 146 18 ZM474 401 q-1 0 -1 -1 q-88 -10 -166 -16 q-1 9 -3 17 q-30 127 -38 168 q9 9 124 26 q43 9 84 11 q0 -88 0 -205 ZM538 614 q75 9 174 15 q21 1 28 -10 q13 -27 -48 -186 q-84 -12 -159 -26 q1 123 5 207 Z" /><glyph glyph-name="uni4E3A" unicode="&#x4e3a;" d="M324 704 q25 -31 54 -69 q12 -16 28 -18 q10 -1 19 12 q7 15 3 47 q-6 39 -101 78 q-16 7 -23 5 q-6 -3 -6 -17 q1 -12 26 -38 ZM475 530 q-16 -1 -32 -5 q-145 -21 -227 -18 q-22 3 -24 -10 q-1 -12 24 -29 q31 -22 61 -14 q91 25 183 42 q-93 -165 -103 -182 q-4 -3 -7 -9 q-87 -118 -235 -247 q-7 -4 -11 -11 q-6 -10 6 -12 q33 -3 156 100 q42 37 83 85 q100 121 178 289 q85 16 172 25 q28 1 34 -13 q9 -19 5 -67 q-13 -178 -46 -273 q-18 -60 -37 -78 q-13 -15 -42 -7 q-42 13 -80 25 q-25 7 -7 -16 q55 -55 86 -99 q12 -25 36 -17 q22 4 48 34 q76 78 102 383 q6 67 31 108 q19 25 9 37 q-19 22 -60 40 q-30 15 -61 0 q-76 -28 -175 -49 l32 80 q40 103 56 129 q13 13 9 29 q-12 24 -41 48 q-18 18 -33 16 q-15 -4 -12 -21 q10 -37 -1 -88 q-12 -31 -24 -71 q-25 -70 -53 -134 ZM496 321 q28 -30 58 -65 q10 -13 26 -14 q10 -1 17 11 q6 13 1 43 q-7 36 -101 72 q-15 4 -21 3 q-4 -3 -5 -16 q1 -10 25 -34 Z" /><glyph glyph-name="uni4E3B" unicode="&#x4e3b;" d="M476 759 q28 -25 60 -57 q18 -16 39 -16 q15 1 21 19 q6 19 -6 59 q-12 34 -121 59 q-21 4 -29 1 q-7 -6 -4 -23 q4 -15 40 -42 ZM541 117 q4 103 8 191 q147 30 153 35 q10 7 5 17 q-7 12 -37 20 q-27 6 -118 -22 q1 82 7 127 q10 30 -23 54 q69 13 143 26 q69 13 79 23 q10 9 5 18 q-7 13 -40 23 q-30 6 -132 -23 q-159 -42 -302 -53 q-42 -4 -13 -25 q42 -24 128 -13 q33 6 70 13 q15 -31 14 -186 q-6 0 -12 -2 q-76 -16 -165 -23 q-37 -4 -11 -23 q37 -27 99 -13 q43 7 89 15 q-1 -73 -2 -184 q-325 -30 -365 -30 q-16 0 -17 -13 q-1 -13 19 -30 q48 -37 86 -24 q123 42 468 63 q109 7 254 -12 q27 -4 34 6 q9 15 -5 28 q-33 31 -81 54 q-16 7 -46 -1 q-43 -13 -103 -19 q-103 -7 -189 -17 Z" /><glyph glyph-name="uni4E48" unicode="&#x4e48;" d="M460 772 q12 -87 -128 -246 q-76 -75 -158 -144 q-10 -6 2 -10 q93 15 223 147 q3 4 7 8 q51 54 129 166 q10 15 18 20 q9 7 7 19 q-1 12 -16 26 q-16 16 -38 24 q-25 10 -38 7 q-10 -1 -8 -17 ZM729 172 q70 -108 85 -116 q10 -3 19 6 q16 13 11 62 q-4 72 -200 206 q-9 7 -13 -6 q-4 -15 6 -28 q33 -42 70 -92 q-163 -19 -340 -57 q-18 -6 -23 -1 q-4 10 15 34 q322 319 389 369 q19 10 14 29 q-4 19 -62 64 q-21 15 -35 12 q-19 -4 -17 -34 q4 -37 -30 -82 q-109 -160 -279 -313 q-40 -40 -114 -75 q-22 -13 -19 -28 q4 -25 33 -58 q13 -16 33 -5 q81 57 440 109 q9 1 17 4 Z" /><glyph glyph-name="uni4E4B" unicode="&#x4e4b;" d="M394 746 q31 -24 67 -53 q18 -13 37 -11 q13 1 18 18 q4 19 -10 55 q-13 33 -123 50 q-19 3 -27 -1 q-6 -6 -3 -21 q6 -13 41 -37 ZM233 282 q-40 -6 -80 -25 q-34 -9 -81 -6 q-22 1 -21 -11 q1 -15 31 -33 q22 -16 52 -5 q108 67 232 21 q135 -51 311 -162 q69 -39 78 -41 q19 -3 40 1 q126 34 169 58 q16 10 18 17 q3 9 -22 8 q-165 6 -200 14 q-147 39 -288 105 q-135 60 -182 60 q60 24 237 160 q147 115 149 116 q27 16 64 31 q28 10 12 29 q-13 24 -75 55 q-16 7 -34 -6 q-76 -58 -403 -119 q-39 -4 -58 -5 q-19 1 -21 -16 q-1 -15 36 -40 q34 -22 64 -4 q52 33 302 97 q16 4 22 -2 q4 -6 -8 -16 q-187 -172 -343 -280 q-1 0 -1 -1 Z" /><glyph glyph-name="uni4E50" unicode="&#x4e50;" d="M292 261 q-43 -58 -96 -107 q-30 -30 -21 -70 q4 -21 29 -13 q28 10 51 40 q36 42 48 83 q15 33 14 61 q-3 10 -9 13 q-9 1 -16 -7 ZM340 603 q157 48 256 99 q48 19 89 29 q19 1 22 9 q4 12 -9 23 q-22 16 -70 35 q-16 7 -30 6 q-7 -4 -9 -16 q0 -46 -258 -166 q-22 25 -54 37 q-16 6 -25 -4 q-6 -6 5 -25 q19 -31 16 -75 q-3 -108 -41 -160 q-13 -16 -7 -28 q7 -22 27 -39 q13 -12 31 3 q63 43 228 61 q6 -276 -17 -295 q-10 -7 -25 -3 q-46 10 -90 22 q-13 1 -12 -6 q1 -7 13 -16 q91 -70 124 -113 q16 -19 33 -3 q40 42 36 116 q-4 43 -7 304 q103 10 233 -2 q24 -4 34 3 q7 6 2 19 q-6 13 -47 38 q-24 15 -98 2 q-34 -1 -125 -13 q1 46 13 78 q10 21 -9 35 q-28 22 -61 34 q-19 7 -29 -2 q-6 -7 6 -24 q25 -42 24 -88 q0 -19 1 -40 q-88 -10 -176 -30 q-19 -6 -22 0 q-9 7 -4 27 q16 123 30 157 q1 6 2 11 ZM692 252 q60 -67 130 -162 q16 -25 32 -31 q10 -3 19 8 q16 13 7 64 q-9 69 -184 156 q-9 7 -13 -7 q-1 -15 9 -28 Z" /><glyph glyph-name="uni4E5F" unicode="&#x4e5f;" d="M243 328 q9 -174 47 -211 q7 -9 20 -18 q57 -49 225 -67 q249 -18 389 25 q31 7 40 24 q6 10 -6 35 q-25 49 -44 162 q-4 16 -14 23 q-7 3 -10 -13 q-12 -61 -23 -112 q-10 -43 -35 -61 q-25 -12 -150 -20 q-130 -4 -229 10 q-76 13 -104 35 q-28 15 -37 47 q-15 55 -16 177 q49 34 119 78 q-4 -91 -11 -161 q0 -33 8 -56 q7 -13 18 -6 q21 18 26 111 q4 75 9 144 q52 37 119 78 q18 12 26 1 q7 -13 -27 -173 q-9 -45 -39 -31 q-16 6 -33 11 q-16 4 -13 -5 q4 -12 57 -84 q25 -31 47 -7 q46 52 59 128 q10 54 19 109 q7 43 40 82 q13 19 -6 32 q-24 13 -84 20 q-22 3 -37 -14 q-34 -42 -108 -90 q-9 -4 -17 -12 q12 198 22 238 q10 22 -4 37 q-18 16 -50 32 q-25 10 -52 1 q-13 -10 2 -28 q27 -48 30 -99 q7 -91 1 -216 q-57 -34 -119 -73 q3 52 13 81 q7 21 -4 34 q-16 15 -58 30 q-36 10 -47 -1 q-9 -9 8 -32 q24 -31 26 -82 q1 -31 4 -63 q-109 -60 -173 -90 q-16 -4 -15 -16 q0 -9 52 -17 q33 -6 57 14 q19 16 82 59 Z" /><glyph glyph-name="uni4E60" unicode="&#x4e60;" d="M667 715 q19 -25 18 -82 q-3 -178 -22 -292 q-19 -96 -46 -164 q-13 -28 -26 -34 q-9 -4 -120 26 q-31 9 -33 4 q-4 -7 15 -21 q66 -49 103 -94 q21 -34 41 -29 q54 15 101 154 q28 94 50 402 q4 81 27 107 q21 24 -5 44 q-82 55 -122 42 q-223 -54 -382 -65 q-10 1 -12 -7 q-3 -9 10 -15 q51 -25 88 -14 q46 15 264 49 q37 4 51 -11 ZM336 555 q27 -22 55 -49 q15 -13 30 -12 q10 1 16 14 q4 16 -6 45 q-6 19 -37 33 q-70 24 -86 17 q-4 -4 -3 -17 q4 -10 31 -31 ZM213 293 q-15 -4 -14 -18 q1 -16 14 -23 q31 -12 75 -25 q13 -1 25 13 q25 33 181 157 q22 16 36 35 q13 12 11 23 q-7 4 -22 -1 q-112 -67 -256 -144 q-18 -10 -50 -17 Z" /><glyph glyph-name="uni4E66" unicode="&#x4e66;" d="M472 -11 q6 -28 13 -38 q6 -7 14 -5 q15 9 24 74 q12 103 9 204 q-3 43 -1 151 q238 24 263 4 q7 -7 6 -22 q-40 -166 -59 -187 q-10 -16 -27 -9 q-31 6 -65 13 q-30 4 -9 -16 q61 -55 86 -93 q7 -16 23 -9 q30 16 58 95 q46 168 70 188 q19 22 12 31 q-7 16 -63 57 q-19 18 -38 12 q-34 -10 -94 -16 q-7 0 -13 -2 q27 103 67 136 q18 19 2 39 q-76 58 -136 33 q-42 -13 -80 -25 q0 67 17 153 q4 19 -12 30 q-34 24 -52 27 q-13 6 -31 -4 q-10 -9 -2 -21 q30 -48 30 -142 q-1 -25 -1 -54 q-85 -15 -171 -22 q-18 -1 -17 -11 q3 -10 23 -16 q27 -13 65 -2 q48 9 99 17 q-1 -70 -4 -154 q-103 -7 -155 -20 q-78 -13 -135 -17 q-27 -1 -32 -13 q-3 -7 17 -20 q37 -25 73 -13 q73 24 207 45 q10 1 24 2 q-13 -298 -5 -380 ZM534 568 q36 7 73 14 q28 6 39 -6 q12 -10 9 -33 q-10 -69 -26 -125 q-52 -3 -98 -8 q0 70 3 158 ZM739 695 q25 -25 51 -53 q12 -13 27 -14 q10 0 16 13 q4 13 -2 43 q-6 27 -94 57 q-15 4 -21 2 q-4 -4 -4 -16 q3 -10 27 -32 Z" /><glyph glyph-name="uni4E71" unicode="&#x4e71;" d="M259 103 q9 -1 20 2 q57 15 181 30 q12 1 13 11 q0 9 -30 26 q24 84 55 107 q16 19 1 35 q-16 13 -68 35 q-15 6 -85 -21 q9 72 17 137 q19 7 149 25 q12 -1 21 13 q1 13 -24 24 q-40 24 -126 -8 q-9 -1 -15 -4 q6 52 21 86 q3 10 -14 24 q-22 13 -38 19 q36 16 68 35 q42 19 79 29 q16 1 19 9 q4 10 -9 21 q-57 36 -91 32 q-7 -4 -7 -14 q3 -42 -220 -157 q-4 -9 2 -11 q58 19 119 40 q18 -28 19 -90 q0 -16 0 -37 q-30 -6 -236 -42 q-31 -4 -7 -23 q33 -25 78 -16 q72 18 164 36 q-3 -66 -9 -140 q-46 -10 -94 -20 q-12 4 -37 9 q-13 3 -16 -3 q-7 -6 2 -23 q31 -61 49 -161 q3 -30 21 -50 q19 -22 24 -6 q6 15 4 41 ZM389 174 q-75 -22 -135 -36 q-19 105 -21 130 q10 1 23 5 q64 13 127 28 q16 4 22 -3 q10 -7 8 -26 q-9 -54 -20 -97 q-3 0 -4 -1 ZM968 72 q19 19 -4 55 q-27 63 -39 145 q-1 12 -10 20 q-12 4 -13 -20 q-21 -141 -27 -153 q-6 -13 -33 -18 q-91 -27 -172 1 q-39 13 -51 57 q-21 67 -6 308 q12 229 39 271 q18 45 -75 74 q-3 1 -5 1 q-21 4 -29 -5 q-9 -10 -1 -20 q22 -21 24 -98 q-15 -451 3 -542 q9 -51 55 -81 q75 -49 251 -31 q13 3 26 5 q46 13 67 31 Z" /><glyph glyph-name="uni4E86" unicode="&#x4e86;" d="M507 563 q-31 22 -46 25 q-13 3 -13 -21 q1 -18 23 -34 q42 -36 54 -116 q19 -237 -19 -291 q-1 0 -1 -2 q-12 -10 -36 -1 q-39 7 -86 18 q-19 7 -20 -1 q0 -3 93 -90 q24 -22 40 -53 q10 -10 22 -5 q16 7 45 50 q51 85 22 394 q-4 28 -8 49 q-9 43 -50 64 q45 22 142 85 q46 33 75 37 q49 10 55 30 q3 10 -34 55 q-34 40 -46 40 q-1 0 -57 -12 q-348 -81 -418 -65 q-19 4 -28 -8 q-4 -9 6 -21 q10 -15 38 -33 q24 -18 35 -18 q10 0 33 14 q54 37 271 82 q85 21 94 15 q3 -1 3 -6 q-3 -12 -173 -168 q-10 -7 -16 -13 Z" /><glyph glyph-name="uni4E8E" unicode="&#x4e8e;" d="M496 505 q1 -145 2 -371 q-1 -36 -13 -49 q-10 -6 -99 19 q-13 4 -14 -4 q1 -9 12 -20 q70 -64 113 -113 q13 -10 30 8 q48 66 42 152 q-15 276 -12 384 q124 13 295 14 q87 -3 96 10 q7 15 -14 32 q-70 52 -137 30 q-96 -18 -239 -42 q1 64 7 127 q7 37 -14 56 q40 9 171 21 q12 -1 22 12 q1 13 -23 25 q-37 22 -110 3 q-148 -30 -290 -44 q-31 -3 -7 -22 q33 -28 79 -20 q39 9 88 14 q9 -24 14 -181 q-181 -24 -392 -51 q-25 -3 -6 -24 q16 -16 39 -23 q25 -7 45 -1 q126 36 268 52 q22 4 47 6 Z" /><glyph glyph-name="uni4E92" unicode="&#x4e92;" d="M517 135 q-145 -10 -248 -21 q-99 -10 -172 -8 q-16 1 -17 -12 q-1 -13 19 -31 q45 -33 96 -22 q115 37 455 53 q109 4 253 -17 q25 -4 33 6 q9 15 -4 29 q-75 72 -144 49 q-9 0 -217 -22 q37 133 95 275 q13 37 36 54 q19 15 10 31 q-15 22 -54 47 q-19 16 -53 5 q-88 -30 -159 -37 q46 106 62 132 q10 12 1 23 q-7 7 -32 16 q106 18 219 34 q73 13 85 23 q10 10 6 20 q-7 15 -42 25 q-36 9 -129 -20 q-169 -42 -338 -52 q-43 -4 -13 -27 q42 -27 133 -15 q9 1 20 3 q1 -4 5 -11 q13 -24 3 -62 q-22 -108 -75 -224 q-18 -37 -61 -77 q-12 -13 -6 -24 q7 -16 35 -32 q13 -9 24 4 q27 27 237 96 q-28 -97 -63 -211 ZM438 484 q15 -9 70 2 q78 24 98 9 q7 -7 2 -35 q-9 -40 -20 -86 q-1 1 -3 0 q-94 -16 -196 -44 q-10 -4 -13 -1 q-4 4 1 22 q31 78 57 135 q1 -1 4 -2 Z" /><glyph glyph-name="uni4E9B" unicode="&#x4e9b;" d="M250 333 q-90 -21 -122 -20 q-15 -1 -17 -13 q-3 -15 8 -24 q25 -19 61 -41 q12 -4 25 6 q52 34 107 57 q85 33 171 67 q33 13 57 29 q15 9 15 19 q-6 6 -20 3 q-61 -19 -126 -39 q1 88 2 169 q3 3 113 25 q25 7 14 21 q-13 15 -42 16 q-49 0 -85 -27 q0 30 14 143 q3 10 -18 25 q-36 18 -61 20 q-16 3 -23 -6 q-7 -7 1 -23 q25 -31 26 -54 q16 -148 16 -321 q-37 -9 -73 -20 q-9 130 -4 174 q3 22 -13 35 q-24 19 -52 27 q-15 6 -24 -1 q-7 -7 -1 -23 q19 -30 28 -63 q7 -33 23 -161 ZM620 555 q6 133 28 194 q13 33 -8 51 q-55 42 -72 37 q-16 -7 -8 -25 q22 -42 17 -102 q-6 -301 26 -354 q31 -48 95 -68 q49 -16 126 -13 q66 4 89 22 q34 13 24 48 q-13 36 -23 97 q-1 18 -8 24 q-9 7 -15 -15 q-27 -69 -40 -79 q-6 -16 -29 -21 q-96 -16 -154 14 q-21 13 -27 28 q-16 40 -21 137 q63 18 102 33 q90 36 121 39 q27 4 20 26 q-9 22 -32 47 q-21 22 -36 23 q-15 3 -14 -13 q-3 -31 -128 -109 q-16 -9 -33 -21 ZM379 234 q-40 -7 -11 -26 q45 -28 110 -13 q67 13 136 26 q31 7 37 11 q10 9 5 18 q-9 13 -42 22 q-34 7 -68 -6 q-36 -12 -74 -20 q-43 -9 -93 -12 ZM206 40 q-22 -1 -6 -21 q33 -33 77 -23 q192 51 527 51 q19 0 40 -1 q22 0 27 10 q7 13 -12 28 q-57 43 -99 35 q-142 -30 -554 -79 Z" /><glyph glyph-name="uni4EAB" unicode="&#x4eab;" d="M491 814 q22 -18 46 -40 q16 -13 35 -11 q12 1 16 17 q4 18 -9 51 q-7 16 -37 27 q-72 19 -86 9 q-6 -4 -3 -19 q6 -13 38 -34 ZM208 686 q-21 -3 -5 -19 q13 -13 31 -18 q19 -6 36 -1 q211 60 557 61 q19 0 24 9 q6 10 -11 24 q-51 37 -87 29 q-165 -34 -545 -85 ZM422 474 q6 0 13 1 q82 18 260 31 q10 1 12 9 q0 7 -18 21 q27 45 52 56 q18 16 5 35 q-15 15 -63 43 q-18 9 -39 2 q-144 -51 -299 -51 q-6 0 -11 0 q-10 1 -13 -4 q-4 -6 5 -19 q28 -39 53 -106 q7 -21 21 -32 q19 -16 21 -2 q1 7 1 16 ZM631 546 q-121 -27 -217 -39 q-18 55 -24 79 q10 1 21 4 q106 18 206 35 q25 6 36 -5 q6 -6 3 -18 q-10 -31 -20 -56 q-3 1 -5 0 ZM584 218 q54 6 335 5 q22 -1 28 9 q6 13 -12 28 q-70 54 -113 33 q-97 -16 -249 -38 q-6 24 -28 40 q129 85 179 92 q21 6 15 23 q-1 16 -66 57 q-18 12 -41 4 q-79 -27 -197 -58 q-31 -10 -105 -6 q-22 1 -15 -19 q7 -13 27 -24 q31 -18 65 2 q207 66 220 61 q10 -4 8 -16 q-49 -49 -105 -107 q-9 4 -19 8 q-22 7 -31 0 q-13 -7 1 -20 q25 -16 38 -44 q-178 -19 -385 -40 q-22 -1 -6 -21 q16 -16 35 -22 q24 -7 41 -2 q139 36 325 52 q27 -111 -6 -183 q-13 -22 -44 -16 q-27 4 -51 10 q-12 3 -7 -8 q4 -7 20 -20 q34 -34 46 -58 q10 -18 26 -15 q13 1 40 27 q70 73 32 262 q-1 3 -1 4 Z" /><glyph glyph-name="uni4EBA" unicode="&#x4eba;" d="M456 471 q13 -30 115 -172 q84 -118 160 -198 q34 -36 61 -34 q88 7 166 12 q33 2 33 10 q1 11 -35 25 q-189 74 -227 106 q-126 107 -236 250 q-17 23 -22 28 q0 0 -2 2 q64 156 82 187 q10 12 2 25 q-7 13 -46 34 q-28 15 -40 11 q-16 -4 -14 -23 q19 -200 -173 -425 q-11 -13 -23 -24 q-72 -79 -202 -183 q-9 -10 -1 -13 q10 -3 24 3 q89 41 185 120 q111 92 193 259 Z" /><glyph glyph-name="uni4EC0" unicode="&#x4ec0;" d="M247 507 q21 -54 21 -115 q0 -135 -33 -257 q-13 -46 22 -98 q1 -4 6 -8 q19 -18 32 12 q16 43 15 93 q7 258 17 315 q9 30 -3 41 q-37 43 -49 51 q39 52 83 116 q28 49 54 73 q12 13 7 29 q-4 16 -39 45 q-33 22 -55 23 q-22 -1 -14 -29 q15 -34 2 -62 q-40 -94 -99 -182 q-58 -85 -137 -177 q-13 -12 -15 -20 q-4 -13 12 -10 q36 3 173 160 ZM618 444 q6 -109 -2 -282 q-3 -183 19 -218 q16 -16 26 7 q16 42 18 475 q0 13 1 27 q85 13 210 17 q60 0 67 11 q6 13 -13 27 q-60 43 -125 22 q-57 -13 -139 -32 q1 139 8 212 q1 34 20 63 q7 19 -15 36 q-28 22 -76 33 q-22 6 -36 -10 q-12 -9 3 -22 q31 -25 33 -62 q1 -93 1 -262 q-102 -16 -218 -38 q-22 -3 -5 -21 q37 -30 85 -15 q64 21 138 32 Z" /><glyph glyph-name="uni4ECA" unicode="&#x4eca;" d="M495 715 q106 -154 243 -318 q22 -27 62 -26 q135 -1 178 5 q12 3 15 9 q0 7 -18 16 q-183 69 -243 117 q-103 91 -223 220 q6 21 27 37 q10 7 8 20 q-9 33 -60 51 q-27 7 -40 5 q-10 -1 -8 -18 q18 -114 -161 -332 q-141 -141 -221 -210 q-10 -7 2 -10 q13 1 49 22 q58 28 111 70 q67 52 137 136 q58 72 142 206 ZM449 469 q55 -54 98 -68 q18 -1 27 15 q6 16 1 35 q-10 27 -33 40 q-51 25 -99 26 q-9 0 -14 -3 q-7 -3 -3 -17 q3 -13 23 -28 ZM283 277 q-36 1 -34 -6 q-7 -16 21 -33 q30 -25 48 -22 q21 -1 52 14 q193 75 222 47 l1 -2 q7 -16 -8 -39 q-12 -16 -37 -75 q-45 -88 -63 -102 q-34 -33 -22 -83 q3 -22 13 -28 q10 -6 24 6 q36 27 120 226 q27 60 62 82 q10 9 12 20 q1 13 -35 38 q-36 24 -54 26 q-7 0 -17 -7 q-126 -49 -305 -62 Z" /><glyph glyph-name="uni4ECE" unicode="&#x4ece;" d="M303 307 q36 -36 112 -131 q13 -19 27 -25 q7 -1 15 7 q12 12 4 52 q-10 54 -152 120 q27 106 37 235 q3 39 20 84 q7 13 -4 23 q-21 19 -63 38 q-25 12 -44 6 q-24 -9 -6 -30 q33 -34 32 -71 q-1 -133 -18 -220 q-36 -183 -151 -293 q-22 -19 -49 -42 q-13 -7 -17 -13 q-4 -7 14 -7 q36 -4 133 78 q70 63 110 189 ZM637 327 q156 -288 205 -292 q69 -1 128 -3 q25 -1 26 5 q1 7 -25 22 q-141 73 -171 106 q-82 91 -153 202 q13 66 33 242 q3 46 22 100 q7 13 -4 23 q-21 19 -63 38 q-25 12 -44 6 q-24 -9 -6 -30 q33 -34 32 -71 q-1 -172 -26 -284 q-33 -178 -150 -297 q-28 -25 -66 -58 q-15 -7 -17 -13 q-6 -7 14 -8 q42 0 143 85 q76 69 122 226 q-1 1 0 1 Z" /><glyph glyph-name="uni4ED6" unicode="&#x4ed6;" d="M237 511 q16 -36 17 -127 q1 -118 -28 -249 q-10 -45 24 -96 q1 0 3 -3 q19 -17 30 11 q15 40 14 87 q-4 297 4 346 q5 28 -2 38 q-3 8 -32 34 q0 0 -1 1 q112 184 113 189 q0 7 -2 9 q-3 15 -35 36 q-28 19 -49 17 q-21 -2 -10 -26 q15 -32 5 -57 q-33 -91 -84 -176 q-56 -94 -118 -173 q-11 -14 -12 -17 q-4 -13 11 -9 q43 12 152 165 ZM427 368 q7 -154 23 -193 q15 -37 44 -61 q91 -72 326 -36 q103 19 142 46 q31 16 18 47 q-16 57 -21 152 q-1 16 -9 23 q-9 6 -14 -16 q-25 -117 -44 -137 q-10 -27 -55 -39 q-61 -16 -145 -22 q-97 -4 -139 10 q-39 16 -50 40 q-34 75 -27 217 q37 24 99 59 q-4 -85 -10 -149 q1 -31 8 -53 q7 -13 17 -6 q22 24 24 105 q4 67 8 130 q51 31 116 68 q15 10 21 1 q7 -12 -4 -44 q-13 -43 -30 -99 q-10 -37 -36 -25 q-10 4 -23 9 q-13 4 -12 -4 q1 -10 40 -74 q19 -30 40 -9 q43 42 61 108 q28 121 62 156 q13 16 -3 29 q-19 12 -72 22 q-19 4 -34 -10 q-28 -30 -85 -64 q-19 -10 -39 -24 q4 159 20 225 q10 21 -4 34 q-16 16 -47 31 q-24 10 -49 -1 q-13 -9 2 -26 q7 -15 14 -24 q10 -18 15 -67 q6 -85 1 -200 q-81 -39 -97 -51 q4 43 13 69 q12 34 -11 51 q-57 37 -74 32 q-16 -7 -7 -25 q25 -40 23 -101 q0 -27 1 -52 q-55 -24 -89 -39 q-13 -3 -14 -13 q-1 -7 45 -18 q28 -7 50 10 q4 4 11 8 Z" /><glyph glyph-name="uni4EE3" unicode="&#x4ee3;" d="M280 502 q18 -36 18 -122 q-1 -9 -1 -20 q-1 -108 -30 -217 q-13 -46 22 -98 q1 -4 6 -8 q19 -18 32 12 q16 43 15 93 q4 258 13 315 q9 30 -3 41 q-25 30 -42 46 q108 162 108 167 q-1 3 -2 7 q-4 13 -35 38 q-28 19 -47 18 q-19 -1 -11 -24 q13 -33 2 -60 q-37 -91 -95 -177 q-55 -82 -131 -173 q-10 -10 -13 -17 q-4 -12 11 -9 q37 4 183 188 ZM595 455 q82 -300 250 -424 q69 -54 101 -52 q22 6 14 37 q-9 45 -18 175 q-1 28 -12 28 q-3 0 -36 -81 q-13 -33 -41 -20 q-9 6 -19 13 q-135 117 -191 340 q190 66 200 77 q9 10 2 19 q-10 13 -43 17 q-34 1 -67 -15 q-52 -25 -106 -49 q-40 153 -34 254 q10 45 -51 63 q-39 13 -59 4 q-22 -9 -9 -29 q52 -40 55 -76 q25 -133 52 -234 q-76 -25 -165 -47 q-40 -12 -8 -27 q52 -19 111 2 q36 13 74 25 ZM732 720 q28 -24 57 -53 q15 -13 31 -13 q12 1 17 15 q4 15 -5 46 q-6 21 -38 35 q-75 28 -90 21 q-6 -4 -4 -18 q4 -10 32 -33 Z" /><glyph glyph-name="uni4EE5" unicode="&#x4ee5;" d="M214 502 q4 -19 6 -93 q1 -60 -10 -94 q-3 -43 -40 -99 q-13 -16 -1 -41 q15 -33 34 -46 q16 -10 30 10 q57 105 245 331 q16 16 15 28 q1 7 -7 5 q-18 -7 -187 -193 q-13 -13 -22 -10 q-4 1 -4 14 q3 213 7 236 q4 22 -11 32 q-13 13 -67 26 q-21 3 -27 -4 q-9 -7 6 -30 q24 -31 33 -72 ZM452 663 q63 -64 97 -78 q16 -3 26 12 q6 13 3 31 q-15 54 -111 75 q-1 1 -2 1 q-18 4 -28 1 q-7 -1 -3 -15 q1 -13 18 -27 ZM692 296 q1 -3 5 -6 q69 -67 149 -164 q16 -22 33 -28 q10 -1 18 9 q15 13 3 62 q-12 63 -194 151 q55 90 77 181 q33 132 58 173 q13 22 -7 34 q-52 48 -87 39 q-16 -4 -11 -23 q27 -60 -14 -221 q-13 -45 -34 -96 q-81 -171 -255 -270 q-19 -13 -40 -25 q-16 -10 -2 -15 q18 -1 61 12 q76 28 135 76 q67 49 103 107 q1 3 2 4 Z" /><glyph glyph-name="uni4EEC" unicode="&#x4eec;" d="M354 604 q22 -51 23 -113 q6 -228 -31 -350 q-16 -57 18 -96 q12 -15 22 0 q33 39 33 189 q0 261 13 337 q1 19 -15 29 q-22 19 -51 28 q-10 3 -16 -6 q-4 -7 4 -18 ZM448 683 q51 -70 80 -74 q13 -1 21 18 q1 13 -7 35 q-10 18 -34 28 q-39 19 -55 22 q-10 1 -11 -10 q-1 -9 6 -19 ZM592 673 q-16 1 -12 -9 q6 -13 27 -23 q13 -9 36 -5 q42 13 92 26 q22 1 32 -12 q13 -7 18 -70 q13 -211 1 -451 q0 -34 -14 -45 q-16 -13 -103 7 q-16 1 -15 -8 q1 -7 15 -12 q76 -45 117 -81 q22 -19 34 -16 q13 3 23 32 q15 46 12 111 q-16 328 -15 450 q1 39 13 62 q13 21 3 32 q-10 16 -56 40 q-18 10 -89 -9 q-108 -18 -119 -19 ZM187 488 l1 -2 q4 -16 11 -28 q30 -63 7 -238 q-7 -51 -21 -105 q-15 -49 22 -97 q1 -3 5 -6 q19 -16 31 12 q15 42 15 90 q3 247 12 303 q7 28 -3 39 q-18 22 -32 36 q-12 13 -28 21 q52 64 110 156 q25 49 50 72 q10 10 5 25 q-4 13 -35 37 q-28 19 -47 19 q-19 -1 -11 -25 q13 -31 2 -58 q-37 -91 -93 -176 q-55 -82 -129 -171 q-10 -10 -13 -17 q-4 -12 11 -9 q34 4 130 122 Z" /><glyph glyph-name="uni4EF6" unicode="&#x4ef6;" d="M242 514 q28 -64 9 -257 q-7 -55 -22 -114 q-15 -49 22 -97 q1 -3 5 -6 q19 -16 31 12 q15 42 15 90 q-1 274 8 335 q7 30 -19 58 q-6 6 -19 20 q31 46 67 103 q27 49 50 72 q10 12 5 27 q-4 13 -37 38 q-30 19 -51 19 q-21 -1 -11 -26 q15 -31 3 -59 q-34 -91 -89 -177 q-54 -82 -126 -174 q-10 -12 -13 -18 q-4 -13 12 -10 q39 10 160 164 ZM617 345 q-3 -363 15 -393 q15 -16 24 6 q16 40 17 394 q114 13 214 13 q25 1 46 1 q23 0 28 10 q7 14 -13 28 q-60 42 -120 26 q-62 -17 -155 -32 q0 82 1 145 q147 34 153 40 q9 9 4 17 q-8 13 -37 19 q-27 5 -62 -7 q-28 -10 -57 -19 q1 141 24 177 q7 16 -14 33 q-25 19 -70 31 q-18 5 -34 -9 q-10 -9 3 -21 q31 -26 32 -61 q1 -64 1 -166 q-103 -19 -116 -19 q0 0 -4 0 q6 16 34 53 q10 13 -5 25 q-39 31 -64 24 q-10 -3 -7 -16 q14 -69 -54 -159 q-23 -30 -25 -34 q-7 -13 7 -9 q13 1 30 16 q45 37 73 79 q11 -11 44 -16 q28 -4 61 4 q12 3 26 5 q3 -127 0 -142 q-126 -23 -276 -43 q-25 -3 -5 -22 q16 -15 36 -20 q24 -6 41 0 q144 42 204 42 Z" /><glyph glyph-name="uni4EFB" unicode="&#x4efb;" d="M212 493 q34 -34 12 -256 q-7 -54 -21 -110 q-13 -46 22 -98 q1 -4 6 -8 q19 -18 32 12 q16 43 15 93 q1 261 9 319 q9 30 -3 41 q-36 42 -41 45 q42 55 89 128 q28 49 52 73 q10 12 5 27 q-4 15 -36 40 q-31 22 -52 21 q-21 -1 -12 -27 q15 -33 2 -60 q-64 -159 -227 -354 q-12 -12 -14 -19 q-4 -13 12 -10 q33 7 137 127 q6 9 13 16 ZM586 143 q-87 -10 -185 -24 q-22 -1 -6 -20 q15 -15 34 -20 q22 -6 38 -1 q124 31 386 32 q21 0 26 9 q6 12 -11 26 q-61 45 -132 24 q-42 -6 -96 -17 q4 126 8 233 q96 13 239 16 q69 0 74 11 q6 13 -13 28 q-61 42 -101 31 q-75 -18 -198 -41 q1 99 7 148 q10 33 -35 61 q-3 3 -4 3 q97 36 159 46 q21 0 26 9 q4 13 -9 27 q-24 21 -76 44 q-19 10 -35 10 q-9 -4 -10 -17 q-6 -51 -262 -151 q-7 -10 0 -14 q15 -4 132 26 q10 3 24 5 q18 -36 22 -128 q0 -30 0 -80 q-115 -16 -247 -38 q-22 -3 -5 -22 q16 -15 36 -20 q24 -6 41 0 q82 25 175 37 q-1 -91 -2 -233 Z" /><glyph glyph-name="uni4F17" unicode="&#x4f17;" d="M495 633 q91 -99 191 -189 q22 -21 57 -21 q66 -1 132 14 q18 3 19 7 q1 7 -12 12 q-46 16 -102 32 q-117 37 -273 165 q33 63 53 89 q9 9 4 20 q-6 10 -35 31 q-21 15 -31 13 q-13 -1 -14 -18 q1 -126 -133 -251 q-3 -1 -5 -4 q-37 -37 -129 -99 q-9 -7 -2 -11 q7 -3 19 1 q64 19 119 57 q75 48 142 152 ZM310 224 q1 -4 7 -8 q49 -40 108 -101 q15 -18 29 -21 q7 -1 15 8 q10 13 -3 52 q-7 36 -79 65 q-40 16 -65 23 q3 12 76 113 q12 13 -3 29 q-42 37 -70 35 q-13 -1 -11 -18 q7 -117 -130 -263 q-39 -34 -82 -77 q-10 -16 7 -12 q24 4 57 28 q88 66 144 147 ZM654 236 q61 -97 144 -201 q25 -30 168 -9 q9 3 10 7 q1 4 -11 12 q-127 54 -213 134 q-42 39 -87 84 q12 30 23 64 q7 25 20 48 q7 10 0 20 q-7 10 -40 25 q-24 10 -33 7 q-13 -4 -10 -20 q22 -105 -76 -249 q-3 -1 -4 -5 q-27 -40 -99 -111 q-7 -9 0 -11 q7 -1 19 4 q54 28 98 71 q51 48 91 130 Z" /><glyph glyph-name="uni4F18" unicode="&#x4f18;" d="M217 476 q1 -6 5 -11 q30 -64 5 -258 q-9 -55 -25 -112 q-10 -45 24 -96 q1 0 3 -3 q18 -16 30 11 q15 40 14 87 q6 273 16 334 q7 27 -2 38 q-39 42 -44 46 q37 54 79 122 q25 51 50 75 q10 12 4 26 q-4 13 -34 36 q-28 19 -49 18 q-19 -1 -10 -25 q15 -33 3 -61 q-37 -94 -93 -183 q-55 -85 -131 -180 q-10 -10 -12 -17 q-4 -12 11 -9 q42 10 138 139 q9 12 18 23 ZM520 452 q-48 -247 -155 -376 q-19 -22 -45 -49 q-13 -7 -15 -12 q-4 -7 13 -6 q9 0 46 24 q25 16 67 59 q108 120 146 373 q72 16 221 41 q10 -1 20 12 q0 12 -23 21 q-27 21 -108 -5 q-72 -16 -104 -28 q3 132 40 224 q7 12 -2 20 q-52 52 -95 42 q-21 -7 -5 -26 q28 -33 26 -64 q-7 -115 -21 -209 q-123 -18 -155 -24 q-28 -4 -6 -21 q36 -24 73 -15 q37 9 82 19 ZM729 677 q31 -28 62 -60 q13 -13 29 -14 q10 0 17 14 q4 15 -3 44 q-9 36 -108 64 q-16 4 -22 2 q-4 -4 -4 -17 q3 -10 29 -33 ZM606 294 q-19 -190 -6 -244 q3 -19 21 -36 q84 -55 238 -25 q3 1 6 1 q37 9 75 31 q22 19 3 49 q-18 25 -47 107 q-3 16 -11 21 q-7 3 -10 -17 q-18 -91 -33 -121 q-30 -28 -111 -26 q-33 1 -57 11 q-21 9 -26 22 q-28 66 15 273 q9 30 -40 51 q-13 4 -21 0 q-7 -3 -3 -21 q12 -39 7 -76 Z" /><glyph glyph-name="uni4F1A" unicode="&#x4f1a;" d="M496 691 q3 -3 7 -8 q115 -145 244 -276 q24 -28 67 -31 q78 -7 159 4 q22 1 23 6 q3 7 -13 15 q-58 27 -127 54 q-153 66 -326 238 q-13 13 -21 19 q9 18 28 37 q9 6 7 17 q-1 12 -16 25 q-36 33 -73 28 q-10 -3 -7 -16 q18 -102 -153 -301 q-10 -12 -21 -23 q-52 -57 -184 -166 q-10 -6 2 -9 q36 4 140 77 q3 3 7 5 q117 88 257 305 ZM362 428 q-39 -7 -11 -25 q43 -27 106 -10 q69 13 140 28 q33 7 38 12 q10 9 5 18 q-9 13 -40 20 q-30 6 -110 -20 q-64 -16 -128 -23 ZM668 105 q27 -36 57 -81 q13 -22 27 -28 q9 -3 17 6 q13 12 8 56 q-4 58 -159 148 q-7 7 -12 -5 q-1 -13 7 -25 q19 -22 39 -50 q-132 -21 -269 -44 q-10 -3 -13 1 q-1 3 5 10 q94 112 129 141 q16 15 7 25 q-7 9 -26 16 q90 12 284 13 q22 0 27 9 q6 13 -12 28 q-57 42 -97 31 q-118 -25 -478 -76 q-22 -3 -5 -21 q15 -15 34 -20 q22 -6 40 -1 q69 19 147 29 q0 -66 -79 -148 q-25 -25 -70 -47 q-31 -12 -31 -23 q-1 -19 8 -41 q10 -22 25 -29 q7 -4 20 2 q96 57 340 118 q15 4 30 6 Z" /><glyph glyph-name="uni4F38" unicode="&#x4f38;" d="M244 515 q34 -70 11 -255 q-7 -54 -22 -109 q-15 -49 22 -97 q1 -3 5 -6 q19 -16 31 12 q15 42 15 90 q3 261 12 319 q7 30 -19 58 q-6 6 -25 26 q36 49 76 111 q28 49 53 73 q10 12 6 27 q-4 13 -36 40 q-30 19 -50 20 q-21 -1 -12 -26 q15 -33 2 -61 q-40 -94 -98 -180 q-58 -84 -135 -175 q-12 -12 -14 -18 q-4 -13 12 -10 q48 10 166 161 ZM609 284 q-6 -318 15 -348 q15 -16 24 6 q19 45 16 347 q37 4 84 7 q19 -30 36 -39 q12 -9 28 14 q21 33 60 213 q10 34 36 61 q13 13 2 28 q-16 19 -63 48 q-19 9 -91 -9 q-27 -1 -90 -16 q3 147 25 182 q7 16 -14 33 q-25 19 -70 31 q-21 6 -34 -9 q-10 -9 3 -21 q31 -25 33 -63 q0 -64 0 -164 q-15 -1 -30 -5 q-57 -12 -100 -19 q-12 7 -51 16 q-13 4 -17 -1 q-7 -7 2 -24 q34 -85 50 -222 q3 -40 24 -69 q19 -24 24 -8 q3 7 4 17 q4 0 12 1 q31 7 82 13 ZM664 342 q0 45 0 84 q39 7 74 12 q25 4 15 18 q-10 15 -38 20 q-19 3 -51 -6 q0 49 1 91 q117 25 141 9 q19 -15 13 -41 q-39 -189 -58 -204 q-30 24 -97 5 l0 12 ZM610 454 q-39 -10 -71 -20 q-16 -4 5 -20 q9 -7 29 -3 q16 4 37 6 q0 -72 -1 -98 q-49 -7 -92 -15 q-1 18 -4 39 q-22 132 -28 180 q19 10 124 28 q1 -45 1 -97 Z" /><glyph glyph-name="uni4F46" unicode="&#x4f46;" d="M229 515 q21 -42 22 -133 q-1 -10 -1 -22 q0 -112 -29 -229 q-15 -49 22 -97 q1 -3 5 -6 q19 -16 31 12 q15 42 15 90 q-1 277 8 339 q7 30 -19 58 q-6 6 -25 26 q37 52 80 117 q28 51 53 75 q10 12 6 27 q-4 15 -36 40 q-30 19 -50 20 q-21 -1 -12 -27 q15 -34 2 -62 q-40 -96 -100 -185 q-58 -85 -137 -180 q-12 -12 -14 -18 q-4 -13 12 -10 q45 9 167 165 ZM533 346 q6 -1 14 0 q55 10 173 15 q1 -4 3 -8 q7 -18 22 -16 q15 3 24 20 q18 28 43 159 q16 61 58 97 q22 19 2 37 q-22 19 -81 48 q-18 9 -83 -9 q-28 0 -211 -48 q-10 7 -48 17 q-13 4 -16 -2 q-7 -6 1 -22 q34 -90 47 -233 q1 -43 23 -73 q16 -22 23 -7 q4 10 6 25 ZM706 400 q-16 10 -47 3 q-69 -15 -126 -23 q0 7 -15 103 q3 0 168 27 q25 4 15 18 q-12 15 -38 19 q-33 3 -148 -39 q-10 64 -12 94 q6 0 12 2 q61 22 204 45 q25 3 34 -2 q15 -7 8 -52 q-27 -180 -40 -206 q-6 4 -15 11 ZM359 181 q-24 -1 -7 -22 q34 -34 79 -25 q189 45 487 37 q22 0 44 -2 q22 0 28 9 q7 13 -11 30 q-58 45 -103 37 q-144 -27 -517 -64 Z" /><glyph glyph-name="uni4F4D" unicode="&#x4f4d;" d="M221 479 q21 -31 23 -121 q0 -121 -23 -219 q-15 -49 22 -97 q1 -3 5 -6 q19 -16 31 12 q15 42 15 90 q-3 234 4 287 q7 28 -3 39 q-18 22 -32 36 q-7 7 -16 14 q39 55 81 127 q25 51 50 75 q10 13 5 28 q-6 15 -38 39 q-31 19 -53 19 q-21 -3 -11 -27 q16 -33 5 -61 q-36 -96 -91 -185 q-54 -87 -128 -182 q-12 -12 -14 -19 q-3 -13 13 -9 q42 9 140 141 q7 10 15 19 ZM564 749 q31 -25 65 -56 q16 -15 34 -13 q12 1 17 16 q4 18 -6 51 q-7 22 -43 37 q-82 28 -99 19 q-6 -4 -3 -19 q4 -13 35 -35 ZM435 546 q-40 -7 -11 -26 q45 -27 110 -12 q117 25 237 51 q55 13 64 21 q10 9 5 19 q-9 13 -42 21 q-24 6 -145 -32 q-112 -30 -218 -42 ZM449 372 q27 -72 59 -110 q13 -9 27 0 q10 10 15 27 q3 48 -73 114 l-1 1 q-13 10 -24 11 q-7 1 -9 -11 q-3 -12 6 -32 ZM607 171 q-124 -13 -269 -31 q-22 -3 -6 -21 q15 -15 34 -21 q22 -6 40 -1 q174 43 486 44 q18 0 36 -1 q22 0 27 9 q6 13 -12 28 q-54 42 -96 33 q-73 -13 -189 -32 q84 189 114 232 q7 10 -7 31 q-28 31 -50 43 q-15 9 -25 3 q-10 -4 -8 -22 q9 -30 4 -47 q-30 -115 -79 -247 Z" /><glyph glyph-name="uni4F4E" unicode="&#x4f4e;" d="M235 504 q21 -63 21 -114 q-9 -162 -11 -173 q-9 -60 -26 -122 q-13 -46 22 -98 q1 -4 6 -8 q19 -18 32 12 q16 43 15 93 q6 297 17 363 q9 30 -3 41 q-37 43 -45 47 q33 51 69 112 q25 52 50 77 q10 12 4 27 q-4 13 -37 38 q-31 19 -51 18 q-21 -3 -11 -27 q16 -33 5 -62 q-60 -163 -222 -374 q-10 -12 -13 -18 q-3 -13 12 -9 q36 4 141 144 q12 16 25 33 ZM644 418 q33 -121 122 -241 q34 -48 83 -84 q60 -43 98 -51 q28 0 26 38 q-12 33 -16 184 q0 16 -8 17 q-6 1 -10 -15 q-12 -33 -22 -65 q-13 -42 -29 -42 q-48 7 -125 120 q-42 70 -67 133 q-4 10 -8 21 q58 21 119 40 q42 16 47 22 q9 10 3 17 q-9 12 -40 15 q-31 3 -60 -13 q-40 -19 -82 -37 q-15 87 2 129 q4 19 -45 53 q-1 1 -2 1 q84 51 130 66 q18 4 20 12 q3 12 -11 22 q-69 36 -105 29 q-7 -4 -7 -17 q1 -39 -180 -159 q-13 10 -55 22 q-18 1 -23 -4 q-7 -7 5 -25 q30 -42 35 -151 q0 -225 -45 -302 q-6 -7 -13 -18 q-12 -13 -2 -35 q10 -30 27 -42 q13 -9 26 7 q40 61 164 194 q16 13 17 23 q1 7 -6 5 q-10 -1 -112 -80 q-7 -6 -12 -4 q-7 4 -6 23 q7 322 12 357 q1 7 0 13 q28 12 77 34 q12 6 24 11 q16 -27 22 -68 q7 -60 20 -112 q-48 -13 -99 -26 q-36 -10 -8 -24 q43 -16 109 4 q4 1 10 3 ZM486 33 q-22 -4 4 -24 q12 -10 38 -7 q124 16 217 24 q30 3 20 20 q-13 19 -45 27 q-30 6 -84 -6 q-79 -19 -150 -34 Z" /><glyph glyph-name="uni4F53" unicode="&#x4f53;" d="M201 492 q21 -66 22 -108 q-1 -19 -1 -41 q0 -106 -28 -216 q-10 -45 24 -96 q1 0 3 -3 q18 -16 30 11 q15 40 14 87 q0 259 8 318 q7 27 -2 38 q-39 42 -43 44 q40 55 85 127 q25 46 47 68 q10 12 4 26 q-4 13 -34 36 q-28 19 -49 19 q-19 -3 -10 -26 q12 -27 -6 -78 q-60 -139 -194 -310 q-10 -10 -13 -17 q-4 -12 11 -9 q39 9 131 128 q0 1 1 2 ZM589 201 q51 10 96 16 q25 4 16 18 q-12 16 -40 22 q-25 4 -72 -9 q0 108 1 268 q10 -12 20 -27 q171 -264 208 -276 q136 0 145 1 q16 1 23 8 q4 7 -6 11 q-144 63 -185 101 q-76 67 -184 208 q-7 13 -21 18 q0 10 1 22 q111 10 225 21 q10 3 13 8 q4 12 -12 23 q-57 36 -100 19 q-49 -13 -125 -32 q3 82 19 139 q9 16 6 29 q-7 10 -63 44 q-24 16 -45 1 q-4 -4 2 -21 q34 -51 35 -102 q1 -46 2 -99 q-85 -16 -178 -35 q-19 -3 -4 -18 q15 -12 31 -16 q19 -4 35 2 q48 18 108 27 q-49 -129 -176 -297 q-31 -39 -69 -86 q-6 -10 5 -11 q6 -1 15 7 q147 123 233 292 q-3 -115 -3 -240 q-1 -1 -1 -2 q-58 -13 -112 -28 q-19 -4 4 -21 q13 -9 38 -4 q34 7 67 11 q-7 -57 -21 -113 q-12 -42 15 -102 q7 -18 15 -21 q7 -7 14 2 q7 4 18 25 q10 25 8 57 q-1 28 -1 160 Z" /><glyph glyph-name="uni4F55" unicode="&#x4f55;" d="M211 528 q21 -33 21 -127 q-1 -16 -1 -33 q-1 -115 -34 -233 q-15 -49 22 -97 q1 -3 5 -6 q19 -16 31 12 q15 42 15 90 q6 283 16 347 q7 28 -3 39 q-18 22 -32 36 q-4 4 -10 9 q37 49 78 112 q30 49 55 74 q10 10 5 26 q-4 13 -34 39 q-28 19 -48 20 q-21 -1 -12 -25 q13 -34 0 -62 q-40 -94 -102 -181 q-58 -84 -139 -175 q-10 -10 -14 -17 q-4 -13 12 -10 q39 6 146 135 q10 13 23 27 ZM703 621 q1 -7 9 -18 q13 -28 13 -75 q3 -127 2 -418 q-1 -37 -13 -50 q-12 -6 -96 16 q-13 4 -14 -4 q1 -9 12 -20 q67 -61 110 -109 q13 -10 29 8 q49 67 43 151 q-12 300 -2 452 q7 31 0 43 q-9 13 -37 28 q60 6 184 6 q19 1 25 9 q4 12 -12 26 q-54 37 -90 29 q-112 -25 -502 -85 q-21 -1 -5 -19 q31 -28 70 -19 q118 34 274 49 ZM464 291 q36 9 144 18 q10 1 12 10 q0 9 -27 25 q22 82 48 108 q24 25 0 41 q-21 12 -48 30 q-21 12 -63 -14 q-61 -21 -101 -30 q-12 6 -37 10 q-13 4 -17 -1 q-7 -7 2 -24 q25 -55 40 -146 q3 -27 18 -45 q19 -24 24 -8 q4 10 5 26 ZM461 326 q-13 100 -13 125 q12 4 85 20 q24 4 29 -4 q7 -7 -2 -44 q-10 -36 -21 -77 q-43 -10 -78 -20 Z" /><glyph glyph-name="uni4F5C" unicode="&#x4f5c;" d="M245 531 q24 -60 25 -127 q-1 -15 -1 -30 q-1 -106 -30 -215 q-13 -46 22 -98 q1 -4 6 -8 q19 -18 32 12 q16 43 15 93 q4 253 13 311 q9 30 -3 41 q-40 46 -53 54 q34 48 74 106 q28 49 54 73 q10 12 6 28 q-4 15 -36 41 q-31 21 -52 21 q-21 -1 -12 -27 q15 -33 1 -61 q-40 -94 -100 -182 q-58 -84 -138 -176 q-12 -12 -14 -19 q-4 -13 12 -10 q39 9 179 173 ZM658 200 q7 -1 21 1 q108 15 187 24 q30 4 19 21 q-13 19 -45 25 q-37 6 -183 -37 q0 67 1 136 q4 0 13 1 q94 16 165 27 q28 4 18 21 q-13 16 -45 22 q-34 3 -151 -37 q1 76 9 109 q3 16 -27 38 q132 30 264 61 q4 3 7 4 q10 9 5 19 q-9 13 -42 21 q-25 6 -144 -31 q-123 -27 -178 -35 q60 99 102 191 q16 37 17 39 q-1 1 -1 3 q-3 10 -20 22 q-42 30 -78 16 q-10 -4 -5 -18 q31 -75 -79 -258 q-3 -1 -4 -6 q-31 -49 -113 -149 q-7 -7 4 -9 q43 6 148 128 q4 7 11 15 l1 0 q15 -9 55 -17 q27 -40 8 -366 q-18 -159 -10 -180 q12 -54 43 -75 l1 -1 q13 -1 19 14 q15 37 11 71 q-3 100 -4 190 Z" /><glyph glyph-name="uni4F60" unicode="&#x4f60;" d="M242 526 q0 -1 2 -4 q16 -34 17 -68 q-1 -43 -3 -84 q-4 -117 -37 -235 q-6 -21 3 -55 q12 -36 24 -48 q19 -16 31 12 q15 42 15 90 q9 286 20 351 q7 28 -3 39 q-18 22 -32 36 q-3 4 -6 6 q33 46 69 102 q28 49 53 73 q10 12 6 27 q-4 13 -36 40 q-30 19 -50 20 q-21 -1 -12 -26 q15 -33 2 -61 q-40 -94 -98 -180 q-58 -84 -135 -175 q-12 -12 -14 -18 q-4 -13 12 -10 q42 9 144 135 q13 16 28 33 ZM514 545 q1 -1 3 -3 q25 -25 54 -13 q159 63 193 53 q22 -10 18 -25 q0 -3 -32 -80 q-7 -10 -1 -16 q4 -6 16 8 q91 76 133 96 q10 3 10 12 q1 13 -31 29 q-25 13 -49 28 q-30 16 -46 7 q-94 -42 -254 -75 q40 60 80 145 q18 43 36 65 q9 13 2 28 q-7 13 -41 34 q-31 16 -52 14 q-21 -4 -9 -28 q16 -25 10 -50 q-21 -82 -58 -161 q-37 -76 -89 -162 q-10 -13 -11 -20 q-1 -13 13 -8 q30 12 105 122 ZM602 362 q9 -265 -12 -281 q-7 -6 -20 -2 q-37 13 -75 27 q-13 4 -12 -4 q0 -7 10 -16 q75 -76 97 -119 q15 -19 32 -5 q39 39 42 109 q-7 58 -8 269 q1 39 12 65 q10 19 -8 33 q-27 22 -58 33 q-19 7 -28 -1 q-6 -7 5 -23 q24 -40 23 -85 ZM435 326 q-22 -60 -55 -115 q-18 -30 0 -67 q9 -16 29 -4 q49 40 54 129 q4 34 -4 58 q-6 9 -11 9 q-9 -1 -13 -10 ZM738 307 q51 -58 109 -139 q13 -22 29 -29 q9 -1 17 7 q15 13 7 58 q-9 60 -157 134 q-9 7 -12 -6 q-3 -13 7 -25 Z" /><glyph glyph-name="uni4F7F" unicode="&#x4f7f;" d="M213 490 q22 -36 24 -126 q0 -138 -26 -245 q-13 -46 22 -98 q1 -4 6 -8 q19 -18 32 12 q16 43 15 93 q-3 261 5 319 q9 30 -3 41 q-36 42 -48 51 q34 52 73 117 q25 51 48 76 q10 10 4 25 q-4 13 -35 36 q-28 18 -49 17 q-19 -3 -10 -25 q16 -31 5 -60 q-34 -94 -89 -183 q-52 -85 -125 -180 q-10 -10 -12 -17 q-4 -12 11 -9 q40 10 134 140 l18 24 ZM575 165 q180 -180 197 -188 q19 -6 140 4 q36 4 48 11 q19 7 2 15 q-18 9 -149 47 q-66 18 -218 148 q27 67 34 165 q67 10 163 17 q10 1 11 9 q0 7 -18 20 q30 61 59 73 q19 18 4 38 q-16 15 -69 44 q-19 9 -42 2 q-52 -19 -102 -31 q1 43 3 85 q150 42 154 45 q7 7 3 16 q-7 10 -35 17 q-30 4 -58 -8 q-31 -12 -62 -23 q0 57 23 105 q7 16 -3 28 q-24 19 -65 30 q-25 7 -35 -1 q-10 -7 -2 -20 q25 -37 29 -87 q1 -34 3 -70 q-57 -13 -122 -24 q-36 -7 -10 -22 q39 -16 107 -4 q12 3 26 6 q0 -40 -1 -82 q-106 -16 -175 -17 q-18 4 -23 -2 q-4 -6 5 -19 q27 -42 48 -113 q4 -21 20 -34 q18 -18 21 -4 q0 3 1 6 q7 -1 17 0 q31 7 76 13 q-6 -63 -26 -123 q-69 69 -112 69 q-18 0 -34 -5 q-13 -3 -13 -10 q1 -7 16 -11 q45 0 98 -51 q13 -13 29 -28 q-46 -81 -184 -150 q-13 -7 -13 -12 q1 -4 13 -5 q18 -4 62 12 q99 30 159 119 ZM583 391 q-52 -7 -99 -14 q-21 87 -24 100 q82 16 129 23 q-1 -54 -6 -109 ZM634 508 q34 7 73 13 q28 6 40 -6 q9 -10 -17 -94 q-52 -10 -99 -21 q1 55 3 108 Z" /><glyph glyph-name="uni4F9B" unicode="&#x4f9b;" d="M205 508 q24 -72 25 -79 q-1 -1 0 -4 q0 -184 -33 -314 q-15 -49 22 -97 q1 -3 5 -6 q19 -16 31 12 q15 42 15 90 q1 280 12 343 q7 28 -3 39 q-18 22 -32 36 q-7 9 -17 15 q34 54 74 121 q24 49 46 72 q10 12 4 26 q-4 13 -37 37 q-30 19 -50 17 q-19 -3 -10 -26 q16 -31 5 -58 q-31 -91 -82 -177 q-49 -82 -118 -174 q-10 -10 -13 -18 q-3 -12 12 -9 q40 9 131 137 q6 9 13 17 ZM499 353 q-93 -9 -194 -22 q-22 -1 -6 -20 q15 -15 33 -20 q22 -6 39 -1 q195 51 562 52 q21 0 26 9 q6 12 -11 26 q-55 42 -121 27 q-58 -10 -137 -24 q15 96 29 185 q124 30 126 30 q10 7 6 17 q-7 13 -37 21 q-30 7 -87 -11 q7 58 37 153 q4 12 -15 29 q-36 24 -61 31 q-16 4 -26 -3 q-10 -7 -2 -24 q22 -40 20 -66 q-3 -66 -9 -136 q-37 -7 -74 -17 q-31 -6 -63 -11 q0 70 3 89 q3 25 -13 37 q-24 19 -53 30 q-16 6 -25 -1 q-9 -7 -2 -23 q30 -58 40 -139 q-40 -3 -81 -6 q-37 -4 -11 -23 q37 -24 96 -16 q4 -64 11 -173 ZM608 368 q-33 -4 -66 -9 q-6 102 -8 175 q64 12 133 22 q-9 -88 -22 -183 q-19 -1 -37 -5 ZM493 256 q-10 -67 -160 -203 q-22 -16 6 -12 q60 4 182 131 q4 9 47 52 q10 13 7 22 q-4 13 -30 20 q-30 10 -42 6 q-7 -1 -10 -16 ZM677 216 q54 -70 116 -171 q13 -25 29 -33 q9 -3 19 6 q16 12 12 62 q-4 66 -169 169 q-9 7 -13 -5 q-4 -15 6 -28 Z" /><glyph glyph-name="uni4FDD" unicode="&#x4fdd;" d="M231 513 q33 -66 13 -275 q-9 -58 -23 -119 q-15 -49 22 -97 q1 -3 5 -6 q19 -16 31 12 q15 42 15 90 q-1 289 8 355 q7 28 -3 39 q-18 22 -32 36 q-3 4 -6 6 q34 49 70 110 q25 46 47 70 q10 12 4 27 q-4 13 -37 38 q-31 19 -51 18 q-21 -3 -11 -26 q16 -31 5 -57 q-58 -159 -202 -344 q-10 -12 -13 -18 q-3 -13 13 -10 q36 9 132 134 q6 9 13 17 ZM629 358 q76 -102 172 -211 q19 -18 49 -15 q100 10 132 17 q9 3 10 8 q0 4 -13 12 q-148 54 -210 104 q-66 51 -139 117 q0 16 0 30 q88 13 224 18 q60 0 67 10 q4 13 -13 26 q-52 36 -90 27 q-72 -18 -187 -41 q1 42 6 65 q3 13 -5 20 q-19 16 -36 26 q60 9 155 15 q10 1 12 9 q0 7 -18 21 q34 85 68 107 q19 19 4 39 q-81 67 -138 35 q-147 -46 -224 -39 q-7 1 -15 2 q-12 3 -15 -3 q-6 -7 3 -22 q30 -54 50 -144 q4 -27 21 -44 q19 -22 24 -5 q1 9 3 20 q10 -1 21 1 q6 1 14 2 q15 -34 20 -114 q-103 -16 -221 -36 q-21 -3 -5 -20 q15 -13 33 -18 q21 -4 37 1 q57 19 121 28 q-21 -105 -217 -262 q-16 -13 0 -14 q10 -1 48 18 q46 21 86 57 q34 33 74 83 q27 37 44 69 q-1 -22 -1 -47 q-4 -172 -19 -222 q-12 -36 26 -94 q13 -19 21 -25 q13 -1 18 13 q13 34 9 66 q-6 169 -6 310 ZM687 626 q-91 -21 -165 -31 q-9 18 -24 122 q10 3 185 36 q22 4 30 -4 q9 -9 5 -27 q-12 -52 -27 -96 q-1 1 -4 0 Z" /><glyph glyph-name="uni4FE1" unicode="&#x4fe1;" d="M227 519 q27 -66 28 -129 q-1 -22 -1 -45 q-1 -118 -33 -238 q-15 -49 22 -97 q1 -3 5 -6 q19 -16 31 12 q15 42 15 90 q1 289 12 355 q7 28 -3 39 q-18 22 -32 36 q-9 10 -20 17 q34 49 70 108 q25 49 49 73 q10 12 4 27 q-4 13 -37 38 q-30 19 -51 19 q-21 -3 -11 -27 q16 -31 4 -59 q-58 -153 -212 -354 q-10 -12 -14 -18 q-3 -13 13 -9 q37 4 136 136 q12 16 25 32 ZM588 778 q28 -25 59 -56 q16 -15 35 -14 q13 1 18 16 q6 19 -5 53 q-12 33 -113 58 q-19 4 -26 1 q-6 -4 -4 -21 q4 -13 36 -37 ZM372 598 q-21 -1 -5 -19 q30 -27 70 -18 q196 58 487 58 q1 0 3 0 q21 1 25 9 q6 13 -12 26 q-54 36 -90 28 q-97 -22 -478 -84 ZM500 482 q-33 -6 -9 -21 q39 -21 89 -10 q66 13 135 28 q31 7 36 11 q7 7 4 15 q-7 10 -33 18 q-28 4 -55 -6 q-36 -12 -74 -21 q-43 -10 -93 -14 ZM493 354 q-34 -6 -10 -21 q34 -22 89 -10 q70 13 144 27 q34 7 39 12 q7 7 4 15 q-7 10 -33 18 q-27 6 -102 -19 q-112 -19 -131 -22 ZM530 40 q9 -1 20 1 q70 13 223 19 q12 1 14 10 q0 7 -20 23 q33 84 70 105 q19 19 4 41 q-18 15 -77 48 q-18 9 -41 1 q-88 -33 -234 -48 q-12 4 -37 8 q-12 4 -15 -2 q-7 -6 2 -22 q28 -57 45 -150 q4 -28 20 -47 q18 -22 23 -6 q3 9 3 19 ZM706 105 q-100 -19 -178 -29 q-3 4 -20 129 q42 6 194 31 q22 4 30 -6 q15 -16 -22 -125 q-1 1 -4 0 Z" /><glyph glyph-name="uni4FEE" unicode="&#x4fee;" d="M194 511 q19 -42 20 -113 q-1 -16 -1 -36 q-1 -111 -31 -223 q-10 -45 24 -96 q1 0 3 -3 q18 -16 30 11 q15 40 14 87 q3 270 12 330 q7 27 -2 38 q-39 42 -40 43 q37 54 79 126 q22 45 44 67 q9 12 3 25 q-4 13 -35 36 q-30 18 -49 17 q-19 -3 -10 -26 q15 -28 5 -53 q-51 -145 -186 -329 q-10 -10 -13 -17 q-3 -12 12 -9 q36 9 121 125 ZM322 540 q28 -72 4 -241 q-9 -33 19 -65 q7 -10 17 0 q16 31 17 118 q0 115 7 161 q6 21 -12 30 q-15 10 -29 17 q-10 4 -19 -1 q-7 -4 -4 -19 ZM630 532 q6 -4 12 -11 q144 -135 209 -130 q54 18 113 34 q12 4 23 12 q6 7 -6 14 q-16 6 -136 23 q-78 10 -189 85 q97 114 99 117 q-4 25 -38 42 q-3 1 -5 2 q103 24 107 26 q7 7 4 15 q-7 10 -33 18 q-28 4 -55 -6 q-37 -12 -76 -21 q-40 -9 -86 -14 l2 2 q24 42 46 76 q10 13 -6 27 q-42 31 -68 26 q-12 -3 -8 -17 q18 -84 -76 -202 q-12 -6 -38 -46 q-7 -16 7 -10 q9 1 64 44 q7 -4 14 -7 q18 -6 89 -69 q-60 -66 -185 -152 q-7 -4 1 -7 q60 0 174 91 q24 21 41 38 ZM559 634 q-21 18 -49 18 q27 31 49 62 q45 -13 97 -4 q10 3 25 4 q0 -54 -61 -127 q-1 0 -1 -1 q-28 22 -60 48 ZM591 444 q-6 -48 -126 -145 q-19 -13 5 -11 q66 9 149 91 q24 24 35 33 q10 10 8 19 q-3 12 -25 19 q-25 10 -36 7 q-7 -1 -10 -13 ZM635 343 q-10 -67 -179 -204 q-19 -13 6 -10 q75 7 189 131 q4 9 48 53 q10 10 7 18 q-3 12 -25 19 q-25 9 -36 6 q-7 -1 -10 -13 ZM696 244 q3 -73 -144 -205 q-4 -1 -6 -4 q-42 -34 -143 -99 q-10 -4 1 -9 q76 0 211 103 q3 3 7 6 q49 42 132 130 q10 10 17 16 q9 4 9 15 q0 10 -11 25 q-30 37 -64 37 q-9 -1 -9 -15 Z" /><glyph glyph-name="uni5019" unicode="&#x5019;" d="M210 488 q31 -61 7 -256 q-7 -55 -23 -113 q-10 -45 24 -96 q1 0 3 -3 q18 -16 30 11 q15 40 14 87 q3 273 12 334 q7 27 -2 38 q-19 21 -32 35 q-3 3 -5 5 q34 55 71 124 q24 51 46 76 q10 13 3 26 q-4 13 -36 35 q-30 16 -49 15 q-19 -3 -10 -25 q16 -31 7 -60 q-31 -96 -82 -185 q-49 -87 -119 -183 q-10 -12 -12 -18 q-3 -13 12 -9 q43 16 129 145 q6 9 12 17 ZM326 528 q28 -75 4 -248 q-7 -33 19 -66 q7 -10 17 0 q16 31 17 113 q0 127 7 175 q6 19 -12 29 q-15 10 -29 17 q-10 4 -20 -1 q-7 -4 -3 -19 ZM634 239 q64 -100 149 -208 q31 -31 171 -5 q9 3 10 7 q1 4 -11 12 q-130 55 -218 134 q-45 40 -93 88 l2 6 q75 13 193 16 q48 0 55 9 q4 10 -10 22 q-54 36 -94 19 q-55 -13 -137 -30 q15 70 17 72 q7 7 1 17 l-41 21 q168 39 171 43 q9 7 4 15 q-7 10 -33 17 q-28 4 -55 -6 q-39 -13 -80 -25 q-42 -9 -88 -17 q36 63 54 79 q7 9 2 20 q-9 21 -37 31 q93 24 301 24 q16 0 20 7 q4 10 -10 21 q-46 36 -103 18 q-24 -4 -51 -11 q30 64 57 79 q16 18 3 35 q-73 60 -126 30 q-78 -27 -158 -40 q-16 -1 -13 -11 q3 -7 20 -13 q24 -10 57 2 q120 27 128 20 q7 -7 4 -24 q-13 -49 -31 -89 q-16 0 -230 -34 q-18 -1 -4 -15 q12 -12 26 -16 q9 -1 74 10 q0 -1 2 -4 q21 -39 -80 -196 q-7 -9 -9 -14 q-1 -9 9 -6 q22 3 72 68 q1 3 5 6 q24 -10 54 -11 q19 -39 11 -114 q-76 -12 -160 -27 q-18 -1 -4 -16 q13 -12 28 -15 q18 -4 32 0 q46 15 98 24 q-21 -126 -169 -205 q-21 -10 -43 -22 q-24 -12 5 -12 q81 -3 170 69 q10 12 23 26 q39 46 60 119 Z" /><glyph glyph-name="uni503C" unicode="&#x503c;" d="M241 480 q21 -63 21 -118 q-9 -138 -13 -164 q-10 -58 -27 -119 q-10 -45 24 -96 q1 0 3 -3 q18 -16 30 11 q15 40 14 87 q9 292 20 358 q7 27 -2 38 q-39 42 -43 44 q37 55 78 124 q27 52 51 78 q10 12 5 26 q-6 13 -37 37 q-28 19 -49 18 q-21 -3 -11 -26 q16 -34 4 -63 q-64 -168 -227 -375 q-10 -10 -12 -18 q-4 -12 11 -9 q42 9 141 145 q9 12 19 25 ZM546 153 q6 -1 14 0 q96 12 167 17 q1 -12 9 -25 q13 -28 22 -27 q13 1 29 33 q15 25 13 45 q-10 79 -8 202 q0 36 20 66 q10 16 2 25 q-25 22 -71 40 q-15 4 -36 -3 q-34 -18 -82 -29 q-1 0 -4 -1 q15 58 30 112 q72 15 146 27 q57 12 65 19 q9 7 4 15 q-6 10 -32 19 q-28 6 -55 -4 q-57 -18 -116 -33 q7 39 40 112 q4 10 -11 27 q-28 24 -51 32 q-13 6 -23 -1 q-9 -4 -3 -21 q13 -28 10 -47 q-7 -54 -17 -112 q-63 -10 -131 -16 q-33 -4 -10 -20 q39 -24 92 -12 q19 4 42 6 q-10 -55 -24 -114 q-18 -1 -33 -6 q-9 9 -31 18 q-9 4 -18 0 q-6 -4 -1 -14 q1 -7 5 -14 q24 -52 7 -227 q-18 -73 14 -110 q9 -10 17 0 q7 10 9 21 ZM718 204 q-18 4 -169 -26 q0 10 1 74 q3 0 8 0 q63 7 109 13 q22 4 14 16 q-10 13 -34 18 q-37 6 -97 -22 q0 43 0 75 q3 0 8 0 q63 10 110 17 q22 4 13 16 q-10 13 -34 17 q-37 3 -96 -24 q0 69 3 75 q9 -1 19 1 q138 43 151 28 q15 -18 14 -81 q1 -157 -6 -202 q-6 4 -14 5 ZM452 325 q7 16 -8 27 q-22 22 -55 32 q-16 4 -23 -5 q-6 -7 6 -24 q19 -28 20 -70 q13 -151 -31 -230 q-12 -15 -6 -26 q7 -19 25 -35 q12 -10 28 3 q76 45 274 56 q118 6 267 -14 q22 -6 33 0 q7 6 3 19 q-6 13 -44 39 q-21 13 -99 5 q-309 -18 -382 -30 q-19 -6 -23 1 q-13 10 -8 36 q7 166 23 216 Z" /><glyph glyph-name="uni505A" unicode="&#x505a;" d="M193 498 q30 -70 8 -264 q-7 -58 -23 -119 q-10 -45 24 -96 q1 0 3 -3 q18 -16 30 11 q15 40 14 87 q-1 289 8 354 q7 27 -2 38 q-19 21 -32 35 q34 51 71 115 q22 46 44 70 q10 12 4 26 q-6 13 -36 35 q-30 18 -49 16 q-19 -3 -10 -25 q16 -30 5 -55 q-51 -150 -191 -339 q-10 -10 -12 -17 q-3 -12 12 -9 q45 10 132 140 ZM367 161 q7 -1 17 1 q40 9 126 17 q10 1 10 10 q0 7 -23 21 q19 82 45 107 q21 24 -1 37 q-18 10 -43 27 q-16 10 -35 0 q-16 -10 -33 -18 q13 75 26 144 q34 12 76 22 q28 9 33 13 q7 7 3 15 q-7 10 -35 15 q-28 4 -68 -15 q13 90 42 172 q4 10 -13 26 q-31 22 -53 28 q-15 6 -23 -2 q-9 -6 -2 -21 q19 -37 16 -60 q-4 -76 -15 -160 q-4 -1 -6 -2 q-39 -12 -85 -19 q-33 -9 -8 -22 q42 -21 91 -2 l2 0 q-10 -69 -22 -145 q-27 -6 -58 -12 q-7 4 -24 7 q-10 4 -14 -1 q-6 -4 1 -20 q22 -54 33 -141 q1 -25 15 -44 q15 -21 20 -7 q4 12 5 29 ZM448 213 q-46 -13 -83 -22 q-10 103 -11 123 q7 1 15 4 q40 9 73 16 q22 6 28 -4 q7 -7 -20 -117 l-2 0 ZM688 209 q60 -88 115 -157 q15 -19 41 -21 q138 3 150 15 q4 7 -6 11 q-162 75 -229 145 q-24 22 -47 49 q18 36 55 161 q7 33 24 62 q10 16 -5 27 q-16 15 -30 22 q-3 1 -5 3 q148 40 153 44 q7 7 3 15 q-7 10 -34 16 q-27 4 -109 -28 q-93 -22 -110 -26 q25 55 53 127 q13 42 28 64 q7 12 -1 24 q-7 12 -40 27 q-30 12 -48 8 q-16 -6 -5 -25 q48 -60 -93 -357 q-7 -12 -8 -18 q-1 -12 12 -6 q27 12 89 130 q0 1 1 2 q33 -10 64 -9 q30 -67 -30 -222 q-64 81 -76 82 q-25 1 -33 -6 q-4 -4 5 -11 q33 -21 53 -55 q16 -25 33 -49 q-60 -102 -184 -178 q-9 -4 -17 -11 q-13 -9 -2 -12 q60 -6 149 64 q49 36 84 93 Z" /><glyph glyph-name="uni50CF" unicode="&#x50cf;" d="M227 520 q1 0 2 -2 q33 -66 8 -272 q-9 -58 -24 -119 q-15 -49 22 -97 q1 -3 5 -6 q19 -16 31 12 q15 42 15 90 q1 289 12 355 q7 30 -19 58 q-6 6 -23 24 q28 46 60 101 q24 48 45 72 q10 10 4 25 q-4 13 -35 34 q-28 16 -48 16 q-19 -3 -9 -25 q16 -30 5 -57 q-31 -90 -81 -174 q-49 -81 -116 -171 q-10 -12 -11 -18 q-3 -12 11 -8 q36 9 126 135 q10 13 20 27 ZM650 262 q63 -61 129 -119 q25 -21 62 -19 q69 3 138 23 q18 4 19 9 q1 7 -14 11 q-183 45 -255 86 q-25 15 -51 30 q-18 13 -31 21 q33 19 56 34 q61 42 87 51 q21 7 12 25 q-10 16 -34 31 q-21 13 -32 12 q-12 -1 -9 -13 q0 -24 -73 -100 q-13 -12 -26 -27 q-7 6 -13 8 q-42 61 -84 82 q12 12 47 30 q10 7 10 15 q-1 10 -19 22 q-7 4 -14 7 q55 10 145 16 q0 -1 1 -5 q3 -15 14 -16 q18 0 51 48 q21 43 56 66 q19 10 6 27 q-13 16 -54 45 q-15 12 -72 -1 q-42 -4 -73 -11 q81 73 119 92 q18 10 7 24 q-13 13 -50 36 q-13 6 -51 -11 q-79 -24 -82 -25 q10 15 22 21 q7 7 5 19 q-3 10 -23 30 q-19 16 -35 18 q-15 0 -10 -18 q9 -21 -38 -95 q-22 -33 -54 -69 q-9 -7 -11 -12 q-3 -9 8 -8 q27 3 117 92 q18 -9 92 7 q7 3 10 0 q3 -3 -2 -11 q-37 -64 -60 -94 q-1 0 -1 -1 q-30 -4 -55 -10 q-61 -12 -105 -17 q-12 4 -30 4 q-10 1 -14 -3 q-4 -6 5 -19 q25 -39 45 -104 q4 -19 19 -31 q18 -18 21 -4 q1 6 1 13 q1 -1 49 3 q-6 -22 -59 -63 q-21 -16 -83 -49 q-19 -9 2 -10 q28 -1 114 35 q7 -6 16 -13 q-10 -55 -170 -160 q-16 -10 4 -9 q75 0 206 129 q10 -13 22 -30 q-60 -109 -228 -226 q-13 -10 -4 -12 q7 -4 20 -1 q132 42 235 184 q1 3 3 4 q25 -69 -6 -174 q-10 -33 -20 -36 q-9 -6 -79 -3 q-16 4 -17 -3 q-1 -7 12 -20 q48 -43 67 -73 q13 -18 28 -14 q18 1 35 26 q49 84 42 216 q-9 43 -18 87 ZM694 531 q-21 10 -79 -9 l0 100 q108 21 129 10 q6 -4 -1 -24 q-25 -72 -35 -86 q-1 0 -1 -1 q-6 4 -13 10 ZM477 500 q-1 0 -1 -1 q-4 9 -21 91 q7 0 13 1 q36 12 100 23 l0 -101 q-49 -7 -91 -13 Z" /><glyph glyph-name="uni5148" unicode="&#x5148;" d="M527 395 q21 -43 16 -104 q-10 -204 15 -247 q36 -51 117 -68 q61 -13 162 -5 q87 9 119 28 q33 16 20 50 q-19 52 -28 142 q-1 18 -10 23 q-9 6 -13 -16 q-19 -109 -37 -129 q-18 -30 -155 -34 q-73 1 -102 13 q-28 13 -34 29 q-25 81 5 210 q4 25 12 41 q18 42 -36 73 q121 9 244 17 q12 3 15 9 q4 13 -13 26 q-57 37 -94 27 q-79 -19 -204 -46 q6 73 11 141 q61 16 126 31 q49 13 57 21 q9 9 4 17 q-7 12 -38 18 q-31 6 -62 -8 q-40 -15 -83 -29 q4 93 24 177 q4 12 -18 28 q-37 21 -63 25 q-18 4 -26 -5 q-9 -7 1 -24 q22 -34 23 -58 q4 -76 4 -159 q-60 -13 -124 -23 q4 15 42 80 q9 13 -8 26 q-48 30 -70 22 q-10 -4 -7 -18 q22 -76 -49 -184 q-15 -15 -30 -44 q-7 -16 8 -10 q43 13 102 106 q16 -9 40 -14 q22 -3 96 13 q-1 -66 -4 -138 q-135 -22 -290 -49 q-22 -4 -5 -21 q34 -28 81 -14 q57 18 122 30 q0 -126 -148 -251 q-3 -1 -5 -4 q-39 -36 -135 -93 q-9 -7 -2 -11 q7 -4 19 -1 q139 36 222 129 q43 46 91 128 q16 25 34 47 q10 9 5 20 q-6 15 -46 43 q30 9 102 17 Z" /><glyph glyph-name="uni514D" unicode="&#x514d;" d="M507 348 q22 -45 19 -105 q-6 -166 16 -205 q31 -51 121 -67 q61 -10 164 -1 q88 10 121 31 q31 16 17 50 q-21 55 -33 149 q-3 16 -10 22 q-9 4 -12 -16 q-13 -118 -29 -140 q-19 -31 -160 -36 q-76 -1 -107 10 q-28 12 -34 28 q-9 28 -8 98 q7 79 22 113 q13 31 -7 50 q-19 15 -34 23 q64 7 149 12 q10 1 13 10 q0 7 -18 21 q40 81 76 97 q22 19 6 41 q-16 16 -74 50 q-19 10 -44 3 q-69 -24 -132 -39 q105 123 136 144 q19 13 7 27 q-16 13 -58 37 q-19 7 -35 -4 q-10 -4 -92 -29 q-21 -6 -46 -9 q4 10 58 82 q12 13 -3 29 q-43 36 -71 34 q-13 -1 -11 -17 q9 -97 -94 -208 q-19 -13 -50 -52 q-10 -16 6 -12 q64 10 151 123 q18 -12 97 1 q28 6 31 3 q4 -4 -1 -16 q-40 -94 -65 -140 q-1 0 -1 -1 q-87 -16 -176 -24 q-9 9 -58 12 q-13 1 -17 -4 q-6 -7 5 -24 q33 -51 59 -138 q7 -27 24 -42 q22 -22 26 -4 q1 6 2 13 q9 -1 21 1 q22 4 50 8 q-78 -219 -270 -302 q-18 -10 -36 -19 q-15 -7 -2 -12 q100 -7 232 108 q9 10 61 76 q40 58 63 129 q4 15 10 28 q12 1 25 3 ZM451 444 q-1 -15 -16 -71 q-46 -4 -87 -9 q0 4 -1 8 q-19 73 -25 105 q9 1 20 5 q52 10 107 18 q7 -27 2 -56 ZM499 389 q10 37 33 69 q13 16 -3 29 q-13 15 -27 22 q58 13 120 22 q36 7 50 -7 q10 -15 -31 -116 q-4 1 -7 0 q-73 -15 -138 -26 q1 4 3 7 Z" /><glyph glyph-name="uni515A" unicode="&#x515a;" d="M314 696 q28 -24 60 -53 q13 -13 28 -12 q10 1 15 14 q4 13 -4 42 q-12 36 -104 55 q-15 4 -21 1 q-4 -4 -3 -16 q3 -10 29 -31 ZM666 756 q-25 -40 -79 -102 q-6 -7 0 -15 q7 -1 16 3 q93 67 139 92 q18 4 14 16 q-7 16 -26 36 q-19 19 -43 21 q-15 -1 -14 -21 q1 -13 -7 -30 ZM255 540 q24 -9 60 -2 q150 43 423 64 q49 4 66 0 q22 -1 22 -15 q-42 -61 -85 -124 q0 -1 2 -3 q7 -4 25 6 q72 51 131 68 q49 13 47 28 q-1 10 -69 70 q-19 19 -45 18 q-84 -10 -186 -25 q-51 -4 -113 -13 q13 75 23 142 q7 31 14 45 q4 10 -15 26 q-31 19 -54 24 q-16 4 -23 -4 q-7 -7 -1 -21 q13 -19 14 -32 q4 -85 2 -185 q-55 -6 -117 -15 q-58 -9 -113 -14 q0 21 -27 42 q-21 15 -22 -13 q6 -42 -62 -131 q-19 -24 9 -82 q21 -25 35 3 q12 19 59 143 ZM432 304 q10 -3 23 0 q55 12 177 22 q10 1 12 10 q0 7 -26 23 q34 78 65 94 q18 18 4 36 q-75 60 -128 30 q-82 -27 -161 -41 q-10 4 -44 9 q-10 3 -14 -2 q-4 -6 3 -20 q28 -49 47 -134 q4 -25 19 -41 q16 -19 21 -5 q1 7 2 19 ZM429 335 q-7 15 -23 112 q6 0 165 33 q16 4 24 -2 q12 -16 -28 -114 q-76 -19 -138 -29 ZM400 253 q1 -100 -105 -203 q-4 -3 -8 -7 q-31 -31 -106 -81 q-7 -7 -2 -11 q7 -3 19 1 q54 13 100 44 q82 45 150 171 q13 19 27 39 q9 9 4 20 q-4 10 -34 31 q-21 15 -31 14 q-13 -3 -14 -18 ZM554 180 q-4 -127 7 -163 q7 -25 30 -48 q82 -70 248 -40 q9 3 19 5 q39 13 76 43 q21 16 5 44 q-15 30 -37 120 q-1 16 -9 21 q-7 3 -10 -15 q-24 -97 -41 -128 q-10 -16 -45 -24 q-78 -18 -150 12 q-45 24 -47 91 q1 60 13 136 q4 19 -9 30 q-13 13 -39 23 q-13 4 -23 -1 q-7 -4 -1 -24 q15 -42 13 -82 Z" /><glyph glyph-name="uni5168" unicode="&#x5168;" d="M489 687 q3 -7 10 -15 q111 -133 252 -273 q24 -22 60 -19 q126 13 164 23 q12 4 13 10 q0 7 -17 13 q-174 51 -231 89 q-105 76 -228 190 q-4 4 -9 6 q12 25 29 39 q9 7 6 19 q-1 12 -17 26 q-42 34 -78 27 q-10 -3 -7 -17 q18 -109 -159 -323 q-4 -3 -7 -7 q-52 -60 -181 -173 q-10 -7 3 -9 q69 9 213 145 q93 103 184 249 ZM459 63 q-126 -13 -268 -27 q-24 -1 -7 -21 q15 -16 35 -22 q22 -7 41 -2 q234 57 543 36 q0 1 3 0 q22 -1 28 9 q7 13 -11 28 q-57 45 -99 37 q-79 -15 -212 -32 q4 76 9 140 q42 9 85 15 q42 7 48 13 q9 7 4 15 q-6 12 -34 20 q-27 7 -100 -15 q0 24 4 53 q9 30 -29 58 q-1 1 -2 1 q147 30 153 34 q10 7 5 17 q-7 12 -37 20 q-25 6 -132 -25 q-70 -15 -147 -21 q-37 -6 -12 -24 q42 -21 117 -10 q12 -19 15 -117 q-54 -9 -112 -12 q-36 -4 -11 -21 q36 -27 95 -15 q12 4 28 4 q0 -52 0 -136 Z" /><glyph glyph-name="uni5173" unicode="&#x5173;" d="M359 703 q24 -22 50 -51 q13 -13 31 -13 q10 0 17 14 q4 15 -3 47 q-9 30 -99 54 q-16 4 -23 1 q-6 -4 -4 -17 q3 -12 31 -35 ZM641 764 q-21 -31 -98 -117 q-10 -18 7 -14 q49 27 134 83 q19 16 46 26 q22 10 12 29 q-13 19 -41 35 q-25 15 -38 12 q-13 -1 -9 -15 q3 -19 -13 -39 ZM509 309 q79 -124 180 -257 q19 -22 53 -22 q114 -1 150 4 q10 1 13 7 q0 6 -15 14 q-151 72 -215 126 q-69 64 -144 149 q54 6 340 5 q22 -1 27 9 q7 13 -11 28 q-60 46 -112 34 q-97 -16 -250 -37 q7 31 13 69 q4 28 10 41 q7 7 2 19 q-13 13 -50 26 q82 13 170 26 q61 12 71 20 q10 7 6 17 q-7 13 -38 23 q-36 9 -123 -19 q-141 -33 -273 -40 q-40 -4 -13 -24 q42 -25 119 -14 q15 3 32 3 q1 -4 5 -10 q15 -63 7 -134 q-1 -4 -1 -10 q-139 -13 -296 -30 q-22 -1 -6 -21 q15 -16 35 -22 q22 -7 41 -2 q102 25 217 36 q-42 -123 -105 -176 q-40 -37 -147 -87 q-28 -15 5 -15 q52 -3 151 48 q48 24 80 68 q45 57 72 148 Z" /><glyph glyph-name="uni5176" unicode="&#x5176;" d="M362 276 q-124 -13 -259 -30 q-25 -3 -7 -23 q33 -33 82 -24 q261 72 736 72 q1 0 4 0 q24 0 30 10 q6 13 -13 30 q-61 45 -106 37 q-79 -16 -195 -35 q13 190 22 363 q67 9 126 15 q12 -1 22 12 q1 13 -23 25 q-39 22 -120 -1 q0 7 21 93 q4 13 -20 31 q-42 22 -71 28 q-19 4 -29 -5 q-10 -10 0 -28 q31 -48 32 -81 q0 -25 1 -53 q-139 -27 -176 -33 q1 31 6 45 q4 27 -12 43 q-25 22 -58 36 q-16 7 -28 0 q-10 -7 -3 -26 q22 -52 32 -106 q-58 -4 -119 -12 q-31 -3 -7 -23 q33 -27 80 -19 q24 6 52 10 q4 -81 0 -351 ZM503 294 q-46 -4 -93 -12 q0 61 0 113 q78 0 144 22 q1 1 2 1 q7 7 3 15 q-7 10 -34 17 q-24 3 -87 -17 q-15 -1 -28 -6 q0 46 1 87 q52 -6 145 24 l1 0 q7 7 3 16 q-7 10 -35 14 q-19 3 -83 -18 l-30 -6 q0 25 4 93 q81 16 180 30 q0 -169 -12 -362 q-40 -4 -81 -11 ZM369 188 q-6 -63 -159 -202 q-25 -18 7 -13 q79 9 193 131 q30 31 44 46 q13 13 9 24 q-4 16 -34 25 q-34 10 -48 7 q-9 -1 -12 -18 ZM577 179 q64 -67 139 -165 q16 -25 34 -32 q10 -1 19 9 q16 13 6 66 q-10 70 -194 158 q-10 7 -14 -7 q-1 -16 10 -29 Z" /><glyph glyph-name="uni5177" unicode="&#x5177;" d="M347 262 q-28 -1 -54 -6 q-100 -13 -175 -12 q-13 0 -15 -11 q-1 -13 18 -27 q40 -33 76 -21 q108 42 472 70 q111 7 257 -10 q24 -3 30 6 q7 13 -5 25 q-28 28 -72 48 q-15 6 -41 -2 q-43 -13 -104 -19 q-28 -1 -54 -6 q4 220 16 364 q3 37 20 60 q15 18 -1 38 q-12 13 -71 48 q-16 12 -84 -14 q-108 -33 -184 -40 q-15 12 -30 18 q-13 4 -23 -2 q-10 -4 -6 -16 q24 -48 28 -156 q0 -97 2 -335 ZM398 268 q0 46 0 90 q4 0 9 0 q88 13 154 20 q25 4 16 18 q-10 16 -38 21 q-33 3 -141 -29 q0 48 1 91 l155 19 q25 4 15 18 q-10 15 -38 20 q-39 4 -132 -30 q0 46 1 86 q1 0 5 0 q84 16 146 26 q24 4 14 18 q-12 15 -38 19 q-36 3 -127 -33 q1 45 4 91 q9 1 21 5 q117 30 165 36 q19 3 25 -4 q13 -21 3 -459 q-124 -12 -220 -23 ZM371 180 q-10 -61 -161 -182 q-25 -16 6 -14 q78 6 190 113 q30 28 45 41 q12 13 10 23 q-4 16 -32 25 q-31 13 -45 10 q-9 -1 -13 -16 ZM600 154 q69 -60 151 -146 q19 -22 36 -27 q10 -1 18 10 q13 15 -1 64 q-7 27 -26 45 q-24 19 -80 46 q-64 30 -98 43 q-10 6 -12 -8 q-1 -16 12 -27 Z" /><glyph glyph-name="uni5185" unicode="&#x5185;" d="M495 433 q67 -61 147 -148 q13 -19 28 -23 q7 -1 15 8 q10 13 0 52 q-10 54 -182 135 q16 64 25 130 q171 33 190 14 q13 -7 18 -65 q16 -195 7 -416 q-1 -33 -13 -41 q-15 -10 -91 7 q-18 4 -17 -7 q1 -9 16 -15 q67 -49 103 -88 q24 -21 37 -18 q13 3 26 35 q16 49 15 121 q-19 289 -19 396 q0 43 12 70 q13 25 2 37 q-13 16 -65 43 q-22 10 -43 5 q-57 -19 -174 -43 q9 111 25 157 q6 12 -3 20 q-19 18 -56 34 q-22 10 -40 5 q-22 -7 -5 -26 q28 -31 29 -64 q-1 -75 -7 -136 q-97 -15 -196 -24 q-21 16 -45 25 q-10 3 -17 -6 q-4 -6 4 -17 q45 -117 0 -369 q-7 -34 -20 -71 q-9 -27 -5 -47 q9 -36 20 -50 q12 -15 22 0 q36 37 37 162 q12 279 20 327 q7 0 15 2 q75 18 161 33 q-25 -165 -94 -252 q-24 -27 -64 -63 q-13 -7 -16 -12 q-4 -7 13 -6 q28 -3 105 59 q52 45 80 130 Z" /><glyph glyph-name="uni518D" unicode="&#x518d;" d="M340 273 q111 18 330 32 q9 1 20 0 q1 -90 -1 -187 q0 -31 -12 -40 q-13 -13 -91 -3 q-18 1 -16 -8 q1 -7 16 -13 q70 -40 108 -74 q22 -19 36 -17 q13 4 23 34 q15 49 10 118 q-9 109 -14 191 q88 1 197 -13 q22 -3 29 5 q7 13 -4 26 q-28 28 -72 48 q-15 7 -40 -1 q-48 -13 -113 -21 q-12 180 6 212 q21 36 -50 71 q-3 1 -6 3 q-19 9 -39 4 q-40 -12 -124 -30 q0 39 3 65 q9 27 -31 53 q-1 1 -2 1 q88 15 182 27 q76 13 88 23 q10 7 5 17 q-7 13 -35 22 q-31 7 -62 -2 q-207 -58 -409 -67 q-37 -4 -12 -23 q45 -28 99 -17 q48 7 97 13 q18 -34 23 -121 q-70 -10 -137 -18 q-21 21 -57 19 q-15 -4 -9 -18 q43 -94 22 -278 q-13 0 -25 -2 q-108 -13 -187 -12 q-13 1 -15 -11 q-1 -12 18 -27 q16 -13 49 -25 q9 -3 27 4 q37 13 119 31 q1 1 8 1 q-13 -93 -40 -139 q-18 -36 8 -83 q3 -6 8 -12 q7 -15 20 -9 q48 39 50 199 q0 27 2 52 ZM528 329 q1 63 2 118 q27 7 56 13 q25 6 29 9 q7 7 4 14 q-7 9 -30 15 q-18 3 -59 -10 q1 49 2 92 q48 10 100 15 q19 1 29 -10 q19 -12 28 -241 q-85 -7 -161 -15 ZM342 311 q6 186 15 235 q58 15 123 26 q0 -39 0 -99 q-34 -7 -74 -11 q-28 -4 -8 -18 q36 -19 79 -8 q1 1 4 0 q0 -49 0 -111 q-76 -6 -139 -14 Z" /><glyph glyph-name="uni5192" unicode="&#x5192;" d="M360 554 q-18 -4 3 -20 q13 -10 41 -6 q132 19 228 31 q25 3 17 17 q-10 16 -37 22 q-25 4 -69 -6 q-97 -22 -183 -38 ZM376 680 q-31 -4 -9 -20 q40 -21 84 -11 q66 12 135 24 q31 7 36 11 q7 7 4 14 q-6 10 -30 17 q-25 6 -52 -4 q-36 -10 -75 -20 q-43 -7 -93 -11 ZM242 780 q-15 7 -29 11 q-7 1 -13 -3 q-7 -7 2 -18 q33 -54 41 -171 q1 -36 20 -67 q13 -24 24 -29 q19 -6 20 27 q1 33 -10 74 q-1 24 -5 55 q-4 40 -4 74 q0 7 -2 12 q115 31 368 51 q46 1 62 -8 q10 -6 5 -40 q-22 -127 -32 -154 q-9 -21 -2 -40 q7 -19 22 -17 q16 1 24 20 q13 16 38 98 q19 61 63 95 q22 19 3 37 q-21 19 -79 51 q-18 12 -99 -6 q-120 -9 -259 -32 q-97 -15 -158 -20 ZM362 59 q10 -1 23 0 q69 12 218 14 q18 -31 34 -66 q12 -25 24 -27 q12 -1 23 26 q21 51 19 114 q-3 261 8 296 q10 24 -3 35 q-9 13 -50 34 q-19 10 -64 -5 q-114 -33 -239 -47 q-12 12 -34 19 q-10 4 -21 0 q-7 -4 -1 -17 q1 -7 6 -16 q25 -48 11 -237 q-12 -102 -12 -104 q0 -18 25 -49 q10 -13 21 0 q10 13 12 30 ZM594 118 q-18 12 -53 5 q-97 -19 -176 -26 l0 84 q9 -1 23 1 q105 18 181 28 q25 4 16 18 q-10 16 -38 20 q-25 4 -68 -8 q-61 -16 -114 -31 q0 46 0 79 q9 -4 26 -1 q103 19 179 31 q25 4 15 18 q-10 15 -38 20 q-21 3 -181 -43 q0 84 3 87 q10 1 23 3 q84 25 193 37 q34 3 43 -9 q12 -13 4 -227 q0 -76 -9 -91 q-4 -9 -11 -9 q-7 7 -18 14 Z" /><glyph glyph-name="uni5199" unicode="&#x5199;" d="M307 691 q21 -16 70 -8 q88 28 294 47 q28 3 40 0 q18 -7 17 -15 q0 -6 -45 -77 q-7 -13 -2 -18 q7 -4 24 6 q61 34 108 44 q40 10 40 19 q-1 10 -70 70 q-22 21 -96 9 q-28 -3 -285 -38 q-46 -7 -94 -10 q-1 0 -2 -2 l0 2 q-13 25 -27 35 q-22 16 -23 -13 q4 -30 -18 -70 q-51 -69 -50 -79 q-6 -22 19 -66 q18 -28 39 3 q19 30 32 73 q15 54 29 88 ZM387 308 q84 45 293 58 q25 1 34 -7 q19 -19 13 -58 q-25 -199 -66 -231 q-12 -6 -95 24 q-16 9 -19 0 q-1 -10 18 -27 q43 -49 60 -88 q19 -31 43 -12 q52 34 64 61 q18 40 56 248 q7 43 27 63 q16 16 9 28 q-31 31 -75 46 q-18 6 -94 -8 q-87 -6 -228 -38 q-27 -4 -21 13 q10 67 20 116 q49 -12 90 0 q156 39 160 41 q10 10 4 18 q-9 13 -40 19 q-33 6 -65 -9 q-31 -12 -68 -21 q-34 -7 -73 -15 q7 36 18 59 q7 16 -3 28 q-16 16 -33 23 q-24 10 -33 5 q-9 -6 -3 -19 q21 -37 -15 -212 q-3 -16 -37 -52 q-12 -15 -3 -28 q10 -12 32 -28 q12 -10 30 3 ZM407 180 q28 3 56 8 q78 12 147 8 q22 -1 27 8 q6 13 -6 22 q-30 22 -71 37 q-13 4 -37 -5 q-43 -12 -166 -36 q-64 -10 -96 -18 q-36 -9 -90 -13 q-13 -1 -13 -11 q1 -12 19 -23 q39 -24 75 -12 q42 18 155 35 Z" /><glyph glyph-name="uni51B3" unicode="&#x51b3;" d="M222 631 q31 -28 67 -63 q15 -16 33 -15 q13 1 18 16 q6 16 -4 51 q-6 22 -42 41 q-90 33 -102 26 q-6 -4 -4 -19 q4 -13 34 -37 ZM131 134 q-13 -3 -12 -21 q13 -81 45 -99 q6 -7 17 -6 q9 1 11 27 q9 49 131 312 q9 16 8 23 q-1 10 -10 4 q-18 -9 -145 -197 q-15 -22 -45 -43 ZM574 307 q81 -156 187 -281 q22 -28 45 -28 q64 6 121 11 q25 1 25 8 q1 7 -26 22 q-142 73 -190 121 q-75 69 -145 168 q9 10 193 15 q39 1 86 1 q60 -3 69 8 q6 12 -11 26 q-58 43 -129 22 q-24 -3 -50 -10 q30 93 68 120 q18 19 2 39 q-82 63 -139 31 q-43 -15 -83 -28 q7 132 34 195 q7 15 -3 27 q-24 21 -66 33 q-27 7 -36 1 q-10 -7 -2 -21 q24 -40 25 -90 q1 -79 -2 -157 q-63 -13 -128 -21 q-19 -1 -16 -12 q3 -9 23 -15 q28 -12 65 1 q25 6 54 11 q-7 -114 -14 -147 q-87 -10 -183 -23 q-21 -1 -5 -19 q13 -13 32 -19 q22 -6 37 -1 q52 15 113 24 q-31 -132 -71 -178 q-45 -55 -140 -109 q-13 -7 -14 -13 q1 -4 14 -4 q16 -4 57 10 q138 46 185 199 q10 39 18 83 ZM585 395 q4 61 9 120 q42 10 87 19 q25 6 34 -4 q10 -10 7 -31 q-13 -66 -30 -118 q-84 -9 -110 -17 q1 16 3 31 Z" /><glyph glyph-name="uni51B5" unicode="&#x51b5;" d="M208 669 q34 -28 69 -60 q16 -13 34 -13 q12 1 17 16 q4 18 -6 51 q-7 22 -44 39 q-85 30 -102 21 q-6 -4 -4 -19 q4 -13 36 -35 ZM121 178 q-13 -4 -10 -22 q22 -81 54 -95 q7 -7 18 -4 q7 1 8 28 q6 43 103 322 q7 16 5 23 q-1 10 -10 3 q-15 -9 -126 -209 q-13 -22 -42 -46 ZM444 400 q9 -117 -121 -249 q-24 -22 -59 -53 q-7 -7 -1 -11 q30 -6 110 54 q75 51 129 179 q10 21 22 40 q7 10 2 21 q-7 10 -37 28 q-22 12 -33 10 q-13 -4 -12 -19 ZM970 109 q-18 49 -27 135 q-1 16 -9 22 q-9 6 -13 -16 q-19 -103 -35 -122 q-27 -30 -135 -28 q-58 3 -84 13 q-22 12 -26 27 q-13 34 -13 125 q7 100 26 146 q13 31 -7 49 q-22 16 -37 26 q40 7 98 13 q12 1 12 11 q0 7 -17 18 q31 108 74 142 q19 22 2 42 q-19 16 -80 44 q-21 10 -92 -18 q-75 -25 -186 -45 q-12 4 -35 8 q-13 4 -17 -3 q-7 -7 3 -24 q31 -66 51 -172 q4 -33 23 -53 q19 -25 26 -7 q3 9 3 21 q9 -1 20 2 q28 7 72 14 q22 -22 19 -96 q-6 -12 -3 -166 q0 -120 65 -148 q64 -24 192 -25 q79 1 110 16 q33 16 20 49 ZM637 539 q-91 -25 -164 -40 q-10 52 -26 161 q7 4 188 42 q22 6 31 -3 q12 -12 8 -35 q-13 -70 -31 -125 q-3 1 -6 0 Z" /><glyph glyph-name="uni51CC" unicode="&#x51cc;" d="M205 589 q25 -19 52 -45 q16 -13 34 -12 q13 1 17 16 q4 18 -7 51 q-12 28 -104 45 q-18 3 -25 -1 q-6 -4 -3 -19 q4 -13 36 -35 ZM300 448 q-87 -129 -146 -199 q-13 -16 -28 -12 q-16 3 -23 -18 q-3 -28 12 -50 q19 -31 35 -41 q13 -10 25 -6 q10 4 14 15 q10 43 26 79 q48 105 91 202 q10 21 10 30 q-1 19 -16 0 ZM575 537 q-105 -15 -224 -33 q-19 -1 -5 -17 q13 -12 29 -17 q19 -4 33 0 q183 54 457 54 q19 1 22 9 q4 10 -10 22 q-52 37 -100 22 q-63 -13 -159 -33 q3 49 8 98 q43 10 90 16 q37 7 42 13 q10 7 5 17 q-7 12 -37 20 q-33 7 -97 -16 q0 69 18 126 q4 12 -17 26 q-36 19 -60 23 q-16 4 -24 -5 q-7 -7 1 -23 q19 -25 20 -45 q4 -55 6 -116 q-48 -7 -103 -12 q-37 -6 -11 -24 q42 -22 116 -9 q0 -46 0 -96 ZM457 421 q-28 -45 -107 -136 q-9 -16 6 -12 q159 129 175 135 q18 10 8 25 q-12 13 -35 26 q-22 10 -32 8 q-12 -1 -7 -13 q3 -16 -8 -33 ZM679 430 q52 -34 114 -88 q16 -15 30 -17 q7 0 14 9 q9 13 -8 50 q-18 48 -153 73 q-9 4 -9 -7 q1 -12 12 -20 ZM631 76 q120 -109 151 -116 q67 -9 169 17 q19 4 21 9 q1 7 -14 12 q-210 67 -216 71 q-75 42 -82 45 q28 43 56 104 q13 25 34 41 q19 13 8 28 q-10 12 -40 25 q-21 9 -82 -12 q-33 -7 -83 -15 q13 18 22 27 q9 12 6 21 q-4 12 -29 17 q-27 7 -38 4 q-7 -1 -8 -15 q-18 -106 -242 -307 q-19 -16 6 -10 q81 15 224 183 q36 -36 101 -97 q-67 -79 -210 -117 q-13 -4 -3 -12 q6 -4 49 -2 q117 9 200 99 ZM577 170 q-48 39 -69 54 q3 7 24 33 q25 -4 58 2 q52 16 61 15 q21 -7 9 -28 q-16 -61 -42 -106 q-19 15 -41 30 Z" /><glyph glyph-name="uni51E0" unicode="&#x51e0;" d="M408 654 q25 3 144 41 q15 7 22 3 q6 -4 5 -19 q-42 -456 -29 -504 q27 -148 262 -137 q13 1 28 2 q66 7 131 38 q22 10 15 35 q-16 52 -22 124 q-3 40 -11 47 q-9 4 -13 -8 q-31 -118 -77 -151 q-22 -16 -76 -20 q-70 -3 -109 9 q-40 12 -56 33 q-36 46 -14 233 q16 144 42 238 q10 43 49 74 q16 19 -2 36 q-25 21 -80 40 q-22 6 -43 -6 q-78 -54 -182 -70 q-54 28 -71 25 q-22 -3 -5 -29 q33 -60 12 -266 q-7 -85 -52 -187 q-37 -87 -135 -171 q-16 -15 -20 -22 q-3 -7 11 -8 q48 0 128 86 q91 96 118 255 q19 99 25 246 q4 21 5 33 Z" /><glyph glyph-name="uni51F6" unicode="&#x51f6;" d="M822 219 q-306 -13 -537 -64 q-36 -10 -27 33 q4 88 7 182 q4 31 -11 49 q-22 22 -54 37 q-16 7 -28 3 q-13 -7 -2 -31 q43 -85 35 -172 q-4 -84 -37 -122 q-24 -22 -14 -41 q13 -21 36 -35 q18 -10 31 1 q57 58 403 103 q154 21 191 6 q-21 -57 14 -125 q13 -21 28 -5 q31 34 32 146 q9 229 23 269 q3 10 7 18 q10 19 -5 37 q-27 19 -70 43 q-16 9 -33 0 q-10 -6 -5 -23 q39 -60 16 -301 q0 -3 0 -8 ZM499 475 q-60 -87 -183 -214 q-9 -7 4 -8 q10 1 38 21 q46 28 87 64 q45 42 90 102 q61 -60 127 -130 q16 -19 31 -24 q9 -1 16 9 q12 13 0 56 q-9 45 -137 144 q40 64 94 167 q21 39 21 43 q-3 12 -18 23 q-39 30 -75 21 q-10 -4 -6 -17 q16 -61 -47 -183 q-6 -10 -12 -23 q-121 88 -191 130 q-9 6 -11 -7 q-1 -13 10 -23 q76 -67 162 -151 Z" /><glyph glyph-name="uni51FA" unicode="&#x51fa;" d="M779 128 q4 -96 21 -121 q19 -34 31 -13 q13 22 13 76 q1 142 4 171 q1 21 -5 28 q-15 13 -65 29 q-16 7 -23 1 q-10 -7 -1 -32 q13 -40 20 -93 q-118 -12 -223 -33 q6 151 11 294 q93 25 167 23 q-1 0 0 -1 q3 -36 12 -60 q9 -21 25 -8 q33 27 46 125 q24 58 31 67 q10 16 0 35 q-21 21 -57 46 q-13 10 -29 5 q-10 -4 -8 -20 q28 -48 -8 -146 q-1 0 -2 -3 q-93 -9 -176 -24 q1 165 29 304 q4 15 -22 34 q-48 25 -80 30 q-22 4 -32 -7 q-10 -10 1 -30 q40 -58 40 -98 q4 -117 6 -243 q-94 -15 -175 -39 q-24 -4 -18 23 q15 106 5 124 q-36 43 -67 39 q-13 -4 -4 -26 q22 -52 14 -106 q-6 -49 -27 -72 q-21 -19 -13 -35 q13 -16 31 -29 q16 -10 27 0 q30 33 227 79 q-1 -139 -10 -291 q-91 -18 -173 -42 q-22 -4 -15 21 q9 46 19 97 q7 28 -4 46 q-40 51 -71 47 q-13 -4 -5 -28 q22 -61 8 -121 q-10 -57 -36 -80 q-22 -21 -14 -38 q13 -19 33 -32 q16 -10 28 -1 q16 16 57 31 q142 49 292 80 q130 27 165 17 Z" /><glyph glyph-name="uni51FB" unicode="&#x51fb;" d="M741 121 q1 -21 -2 -38 q-10 -24 29 -74 q13 -15 22 0 q21 37 0 147 q0 4 0 6 q-1 1 -1 2 q-1 1 0 1 q-12 81 -3 125 q4 16 -9 28 q-22 12 -58 23 q-15 4 -25 -4 q-7 -6 -2 -19 q27 -24 45 -153 q-109 -6 -205 -21 q3 118 6 229 q186 21 350 7 q33 0 38 5 q7 13 -5 26 q-31 28 -76 49 q-10 6 -117 -16 q-18 -3 -189 -24 q1 79 3 153 q58 10 119 18 q61 10 72 18 q10 9 5 18 q-7 13 -37 23 q-31 9 -65 -2 q-46 -13 -93 -25 q3 39 23 144 q4 13 -20 30 q-42 21 -70 25 q-19 4 -28 -6 q-9 -10 1 -27 q39 -55 39 -94 q1 -40 3 -82 q-3 1 -4 0 q-85 -15 -186 -18 q-40 -4 -13 -24 q48 -30 104 -18 q49 7 100 13 q1 -73 0 -152 q-6 1 -198 -21 q-69 -10 -173 -11 q-13 0 -16 -12 q0 -13 19 -28 q18 -13 50 -25 q12 -4 30 4 q16 6 90 18 q88 21 198 30 q-3 -111 -9 -231 q-85 -13 -160 -31 q-22 -4 -16 23 q9 43 17 90 q6 27 -4 43 q-39 45 -65 42 q-13 -4 -5 -25 q21 -58 9 -112 q-10 -52 -33 -75 q-22 -18 -14 -34 q10 -18 29 -31 q15 -10 27 -1 q13 13 52 27 q130 39 265 59 q124 19 151 8 q1 1 5 0 Z" /><glyph glyph-name="uni51FD" unicode="&#x51fd;" d="M523 597 q-7 4 -19 8 q-19 6 -29 -1 q-12 -7 2 -18 q34 -22 45 -64 q22 -64 24 -130 q4 -64 -11 -106 q-12 -16 -34 -9 q-22 6 -41 12 q-10 4 -8 -7 q3 -7 15 -19 q27 -33 34 -56 q9 -16 23 -14 q13 1 37 24 q55 52 35 210 q-19 129 -54 158 q145 102 193 111 q22 7 17 26 q-3 19 -77 64 q-22 12 -48 3 q-79 -28 -198 -62 q-31 -10 -107 -7 q-27 1 -17 -22 q9 -15 31 -28 q36 -19 73 4 q31 10 190 63 q13 7 25 1 q13 -7 9 -20 q-51 -55 -110 -121 ZM331 475 q34 -24 71 -52 q13 -10 27 -8 q9 1 12 13 q3 13 -7 38 q-7 21 -41 34 q-76 24 -89 15 q-4 -4 -2 -15 q4 -10 29 -25 ZM286 300 q-10 -4 -11 -14 q1 -13 12 -18 q25 -10 59 -20 q10 0 19 10 q19 27 99 95 q12 10 19 21 q10 10 9 19 q-9 4 -140 -67 q-60 -24 -66 -26 ZM711 562 q-21 -33 -92 -112 q-10 -16 7 -13 q52 28 80 50 q60 45 87 55 q22 10 11 27 q-13 16 -38 32 q-22 13 -35 11 q-13 -1 -9 -14 q3 -19 -11 -36 ZM642 351 q51 -34 113 -85 q16 -15 29 -17 q7 0 12 9 q9 13 -7 48 q-18 46 -150 71 q-7 4 -8 -7 q1 -10 11 -19 ZM829 145 q-4 -22 -12 -41 q-15 -27 14 -96 q10 -21 26 -7 q31 33 37 134 q24 201 36 225 q1 6 5 10 q10 18 -3 35 q-22 19 -63 44 q-15 9 -30 1 q-10 -4 -7 -21 q30 -49 5 -236 q-319 -19 -557 -79 q-33 -10 -27 30 q1 97 3 200 q1 28 -12 45 q-19 19 -50 33 q-15 6 -26 2 q-13 -7 -1 -29 q46 -87 40 -177 q-4 -85 -35 -127 q-22 -21 -13 -38 q13 -18 35 -31 q16 -9 28 1 q46 57 406 112 q165 24 201 10 Z" /><glyph glyph-name="uni5206" unicode="&#x5206;" d="M352 710 q4 -85 -122 -214 q-3 -1 -5 -5 q-37 -37 -131 -111 q-9 -4 2 -8 q61 0 183 107 q9 10 20 19 q46 46 118 140 q9 12 16 17 q7 4 7 16 q-1 10 -13 24 q-34 34 -68 30 q-9 -1 -7 -15 ZM387 364 q-12 -154 -257 -306 q-9 -7 -2 -11 q30 -12 131 47 q90 49 172 188 q13 22 31 43 q9 9 4 20 q-4 10 -31 31 q72 19 134 28 q24 3 28 -5 q13 -22 -1 -76 q-28 -151 -70 -215 q-21 -34 -51 -27 q-25 9 -45 18 q-28 13 -11 -17 q42 -52 59 -91 q25 -28 49 -6 q40 25 70 76 q34 58 64 239 q10 64 34 95 q15 15 8 27 q-10 13 -70 42 q-25 10 -47 -4 q-27 -16 -130 -39 q-103 -25 -190 -31 q-21 -1 -24 -11 q-1 -10 26 -23 q28 -19 52 -10 q33 10 67 18 ZM421 827 q60 -33 104 -102 q168 -288 255 -301 q43 0 181 16 q28 3 28 10 q-1 7 -27 15 q-183 54 -251 114 q-60 45 -188 228 q-27 39 -72 40 q-31 1 -34 -7 q-4 -10 4 -13 Z" /><glyph glyph-name="uni5207" unicode="&#x5207;" d="M253 435 q-15 -186 -49 -228 q-16 -21 -3 -45 q13 -24 35 -33 q12 -9 26 11 q25 39 154 163 q31 24 33 35 q1 9 -5 10 q-4 1 -140 -88 q-15 -13 -17 7 q9 88 18 180 q139 36 146 42 q9 7 4 16 q-7 10 -35 17 q-34 6 -110 -26 q15 207 25 231 q10 21 -6 38 q-25 22 -55 31 q-33 10 -45 -5 q-10 -12 5 -28 q21 -21 24 -68 q6 -61 -2 -215 q-85 -24 -180 -36 q-34 -7 -9 -22 q40 -24 94 -8 q45 10 92 21 ZM608 496 q7 -148 -140 -304 q-4 -1 -6 -5 q-42 -46 -146 -125 q-7 -7 -1 -11 q7 -3 19 2 q73 28 134 78 q61 45 101 105 q43 58 86 161 q13 30 32 59 q7 9 2 20 q-6 10 -36 29 q-1 1 -4 1 q78 22 155 31 q16 1 19 -6 q7 -16 2 -61 q-18 -162 -51 -246 q-18 -54 -36 -69 q-13 -12 -38 -2 q-25 7 -47 14 q-24 10 -9 -15 q37 -52 54 -92 q7 -22 27 -19 q21 1 47 29 q73 72 113 351 q7 63 33 98 q19 22 9 33 q-16 21 -52 38 q-25 15 -55 2 q-141 -60 -294 -65 q-18 1 -18 -8 q-1 -10 20 -23 q25 -16 49 -8 q13 4 31 8 Z" /><glyph glyph-name="uni5217" unicode="&#x5217;" d="M206 381 q75 -85 84 -89 q1 0 5 -1 q9 0 14 10 q6 12 2 36 q-3 19 -29 36 q-45 27 -60 27 q30 42 63 83 q31 -18 86 2 q36 22 54 10 q9 -6 -12 -72 q-13 -57 -48 -116 q-46 -90 -119 -158 q-64 -60 -144 -107 q-9 -4 -8 -10 q1 -4 9 -4 q132 15 261 180 q10 15 21 29 q51 73 97 191 q16 30 44 50 q16 10 16 19 q-1 15 -33 31 q-39 24 -54 23 q-12 -1 -23 -9 q-58 -28 -120 -36 q-6 1 -11 0 q51 90 69 106 q9 10 4 23 q-10 27 -41 38 q76 18 162 34 q49 12 56 18 q10 9 4 18 q-7 13 -39 21 q-28 6 -148 -33 q-163 -28 -177 -31 q-40 -7 -12 -25 q42 -27 106 -11 q1 1 3 0 q1 -1 2 -4 q13 -22 4 -44 q-45 -124 -157 -271 q-9 -10 -11 -16 q-3 -10 11 -7 q15 3 69 59 ZM580 611 q33 -81 4 -276 q-9 -37 22 -78 q10 -12 21 1 q25 34 23 87 q-6 142 9 232 q7 25 -14 37 q-18 12 -36 21 q-13 6 -24 0 q-9 -7 -5 -24 ZM790 725 q4 -39 1 -628 q0 -25 -14 -34 q-9 -6 -28 2 q-22 7 -45 14 q-36 16 -34 5 q1 -9 22 -26 q64 -63 80 -96 q18 -39 35 -41 q16 -1 34 37 q22 51 22 135 q-19 255 -13 512 q4 99 18 150 q19 34 -44 59 q-37 19 -59 12 q-19 -7 -2 -33 q25 -31 27 -68 Z" /><glyph glyph-name="uni521D" unicode="&#x521d;" d="M324 781 q33 -30 67 -65 q15 -15 32 -14 q12 0 18 15 q4 16 -4 49 q-9 36 -117 68 q-16 4 -24 1 q-6 -4 -4 -18 q3 -13 32 -36 ZM280 349 q31 -72 -2 -232 q-18 -45 18 -98 q1 -3 6 -7 q16 -16 28 10 q15 40 14 85 q-1 160 4 196 q7 27 -2 37 q-36 39 -38 40 q31 39 66 85 q37 54 88 87 q18 12 5 30 q-21 18 -53 31 q-25 10 -44 -1 q-88 -54 -246 -55 q-13 4 -17 -5 q-4 -10 11 -23 q40 -31 74 -27 q6 1 138 43 q18 6 22 -2 q4 -10 -9 -32 q-87 -147 -265 -298 q-18 -12 -14 -16 q3 -4 18 2 q87 36 198 150 ZM413 377 q-33 18 -45 14 q-4 -3 -4 -13 q3 -9 22 -27 q28 -25 56 -57 q10 -10 22 -11 q9 0 13 10 q4 10 0 34 q-4 19 -32 37 q-7 4 -16 6 q49 36 76 50 q13 4 9 12 q-4 12 -20 25 q-15 13 -32 14 q-10 -1 -10 -15 q3 -12 -39 -79 ZM661 531 q70 18 138 24 q15 1 18 -6 q7 -18 4 -64 q-12 -168 -44 -257 q-16 -55 -34 -73 q-12 -12 -36 -4 q-28 7 -55 17 q-22 7 -8 -15 q42 -49 63 -87 q9 -21 29 -16 q19 3 45 32 q72 78 95 359 q6 64 29 101 q16 21 8 31 q-16 18 -49 33 q-25 13 -50 1 q-61 -25 -155 -43 q-81 -16 -128 -16 q-16 1 -17 -7 q-1 -9 18 -21 q22 -16 44 -8 q19 6 40 10 q0 -1 1 -3 q24 -132 -93 -294 q-3 -1 -4 -5 q-33 -46 -118 -130 q-7 -9 0 -11 q7 -1 19 4 q63 34 114 85 q91 85 142 262 q10 28 23 57 q7 10 0 21 q-7 10 -39 23 Z" /><glyph glyph-name="uni5220" unicode="&#x5220;" d="M661 617 q28 -63 2 -245 q-9 -34 18 -66 q7 -10 17 0 q21 30 19 76 q-6 115 8 207 q7 19 -11 30 q-15 10 -29 17 q-10 4 -20 0 q-7 -6 -4 -19 ZM793 722 q4 -37 2 -595 q0 -22 -13 -32 q-7 -6 -61 7 q-33 13 -30 3 q1 -7 20 -23 q55 -51 69 -78 q16 -33 30 -35 q15 -1 30 34 q19 46 17 119 q-16 247 -10 494 q3 88 16 133 q16 31 -39 52 q-34 19 -53 11 q-18 -7 -1 -29 q22 -27 23 -61 ZM528 163 q-19 4 -39 8 q-16 6 -16 -3 q43 -40 67 -70 q12 -16 25 -20 q7 -4 15 5 q30 37 32 103 q-7 115 -11 274 q16 3 35 4 q16 1 17 9 q1 13 -16 22 q-19 10 -37 9 q-4 172 8 197 q10 16 0 25 q-19 16 -50 28 q-16 6 -29 -1 q-19 -13 -33 -19 q-10 -4 -29 -11 q-36 21 -53 12 q-9 -7 -2 -18 q37 -37 29 -245 q-40 -6 -74 -14 q0 207 15 232 q10 16 0 24 q-16 15 -45 27 q-16 9 -57 -15 q-3 0 -27 -8 q-12 7 -27 12 q-16 7 -28 2 q-9 -7 -3 -18 q16 -19 24 -75 q0 -189 -3 -205 q-64 -7 -114 -12 q-13 -1 -16 -9 q-3 -10 11 -22 q34 -27 92 -13 q9 3 20 5 q-24 -138 -106 -296 q-3 -6 -4 -11 q-1 -10 7 -7 q30 12 89 127 q13 28 25 60 q21 66 33 139 q37 10 72 19 q-9 -175 -14 -184 q-3 -4 -14 -1 q-16 7 -34 15 q-13 9 -15 1 q31 -46 46 -78 q9 -16 20 -21 q7 -4 14 3 q36 37 40 77 q-3 85 -2 197 q18 7 73 13 q-12 -138 -96 -321 q-4 -6 -5 -11 q-1 -10 8 -6 q9 1 42 51 q70 100 92 275 q1 10 2 19 q36 7 78 12 q1 -268 -12 -291 q-4 -4 -20 -1 ZM554 662 q3 -88 5 -166 q-40 -6 -74 -14 q3 57 1 111 q-3 57 1 96 q1 6 2 10 q16 7 34 14 q16 6 21 -2 q7 -19 10 -49 ZM329 658 q0 -114 -2 -208 q-42 -6 -68 -11 q7 73 7 144 q3 57 6 113 q15 4 30 9 q15 4 19 -4 q6 -16 8 -43 Z" /><glyph glyph-name="uni5224" unicode="&#x5224;" d="M192 615 q24 -27 48 -58 q12 -15 27 -16 q10 -1 18 12 q7 13 2 45 q-7 33 -93 65 q-15 6 -22 4 q-6 -3 -5 -16 q1 -12 25 -36 ZM483 682 q-12 -27 -50 -88 q-7 -16 8 -12 q12 7 87 60 q16 18 39 30 q19 12 8 28 q-15 15 -41 27 q-25 10 -37 7 q-13 -3 -7 -15 q4 -18 -7 -37 ZM321 301 q-27 -168 -139 -301 q-21 -19 -19 -26 q3 -4 14 -1 q13 -4 44 18 q111 66 152 324 q67 19 151 35 q19 4 19 12 q1 15 -20 24 q-31 12 -57 4 q-49 -13 -88 -26 q3 40 7 85 q105 30 107 32 q7 7 3 16 q-7 10 -35 17 q-34 6 -73 -14 q7 207 26 247 q7 15 -5 26 q-24 19 -65 29 q-27 6 -35 -1 q-10 -7 -1 -21 q42 -61 32 -296 q-114 -24 -135 -28 q-36 -7 -10 -22 q39 -21 98 -6 q19 6 44 10 q-4 -43 -9 -89 q-138 -36 -251 -57 q-15 -1 -17 -11 q-3 -13 14 -24 q46 -30 92 -11 q91 37 156 55 ZM590 588 q30 -66 4 -254 q-9 -36 21 -72 q10 -12 20 0 q24 36 22 81 q-6 132 9 212 q7 24 -14 36 q-16 12 -34 21 q-13 4 -23 -1 q-9 -7 -5 -23 ZM786 736 q4 -39 -1 -632 q-1 -25 -15 -34 q-9 -4 -28 4 q-22 9 -44 17 q-33 16 -32 5 q1 -7 20 -26 q63 -63 77 -96 q16 -39 33 -42 q16 -1 34 35 q22 49 23 130 q-16 261 -9 524 q4 94 18 144 q18 33 -42 57 q-37 19 -57 11 q-19 -7 -2 -31 q24 -30 25 -66 Z" /><glyph glyph-name="uni522B" unicode="&#x522b;" d="M304 394 q-10 0 -22 -3 q-85 -13 -135 -13 q-16 1 -18 -8 q-1 -9 19 -22 q24 -16 47 -9 q51 13 104 24 q-31 -132 -165 -298 q-10 -10 -21 -24 q-6 -9 0 -10 q7 -1 17 5 q136 91 182 219 q21 49 37 118 q40 7 82 12 q16 1 20 -7 q4 -10 2 -42 q-10 -114 -33 -173 q-12 -37 -24 -49 q-10 -10 -33 -3 q-31 13 -61 25 q-21 7 -7 -13 q40 -49 62 -88 q9 -21 29 -16 q15 1 34 21 q55 52 85 257 q7 46 26 72 q16 19 8 29 q-15 18 -47 33 q-22 13 -49 2 q-39 -13 -88 -27 q4 30 22 79 q6 10 -2 19 q-6 6 -20 12 q45 7 113 15 q12 1 13 11 q0 7 -22 21 q25 88 62 116 q16 19 1 36 q-16 13 -70 37 q-19 7 -40 -2 q-51 -22 -165 -52 q-10 7 -46 16 q-13 4 -16 -2 q-7 -6 1 -22 q25 -60 37 -157 q1 -28 17 -49 q16 -22 23 -7 q4 12 5 31 q16 -4 31 -4 q13 -49 5 -110 ZM397 570 q-72 -22 -130 -33 q-9 90 -13 126 q19 1 152 33 q15 4 21 -2 q9 -9 6 -28 q-9 -51 -21 -93 q-7 0 -15 -3 ZM589 584 q33 -73 12 -263 q-9 -36 22 -72 q10 -10 20 1 q22 37 18 83 q-6 157 2 222 q6 22 -14 34 q-16 10 -34 18 q-13 4 -22 -1 q-9 -7 -4 -22 ZM778 710 q6 -37 16 -606 q0 -24 -13 -34 q-10 -7 -34 -1 q-28 6 -57 11 q-34 10 -31 0 q1 -7 23 -21 q75 -51 95 -81 q22 -36 40 -35 q16 -1 29 36 q16 48 11 124 q-22 247 -21 498 q1 91 14 139 q16 31 -42 53 q-36 19 -55 11 q-19 -7 -1 -31 q22 -28 26 -63 Z" /><glyph glyph-name="uni5230" unicode="&#x5230;" d="M322 191 q-73 -16 -150 -37 q-24 -6 -62 -4 q-16 -1 -18 -12 q-4 -16 7 -25 q25 -21 63 -44 q12 -4 26 5 q49 34 257 112 q33 15 66 32 q16 7 16 19 q-6 7 -20 4 q-67 -19 -139 -39 q1 63 4 117 q108 28 112 31 q7 7 3 15 q-7 10 -34 17 q-24 3 -79 -17 q6 78 1 85 q-18 18 -34 27 q43 15 104 30 q9 3 16 6 q28 -48 40 -51 q9 -1 16 7 q7 10 9 38 q0 33 -80 85 q-12 7 -18 7 q-4 -3 -7 -13 q0 -4 27 -50 q-94 -18 -192 -46 q-10 -4 -13 -1 q-1 3 4 11 q97 115 119 134 q13 9 7 22 q-4 10 -38 31 q165 36 176 44 q9 9 4 17 q-7 12 -37 19 q-24 4 -146 -33 q-100 -19 -135 -24 q-37 -7 -10 -24 q39 -21 97 -11 l1 -1 q12 -48 -55 -128 q-25 -34 -76 -67 q-15 -12 -11 -23 q4 -18 30 -39 q10 -10 24 0 q42 33 106 49 q12 -21 16 -117 q-46 -12 -100 -19 q-33 -6 -9 -21 q39 -18 92 -6 q7 3 18 3 q0 -46 2 -115 ZM578 620 q33 -79 7 -278 q-7 -37 22 -77 q10 -10 20 1 q18 34 20 112 q0 162 8 210 q7 24 -14 35 q-18 12 -35 20 q-13 4 -23 -1 q-9 -7 -5 -22 ZM769 717 q4 -36 3 -580 q-1 -22 -13 -32 q-9 -6 -30 0 q-25 7 -49 12 q-36 15 -33 3 q1 -9 23 -25 q67 -58 84 -91 q19 -37 37 -39 q16 -1 33 37 q21 52 19 134 q-36 456 5 611 q19 34 -44 59 q-37 19 -59 12 q-19 -7 -2 -33 q25 -30 26 -68 Z" /><glyph glyph-name="uni5236" unicode="&#x5236;" d="M265 307 q18 6 93 18 q0 -132 -25 -216 q-12 -40 14 -103 q7 -18 15 -21 q7 -7 14 2 q7 4 18 25 q10 25 9 57 q-1 34 2 266 q84 16 96 5 q9 -6 9 -100 q1 -25 -7 -36 q-6 -10 -30 -7 q-34 0 -38 -4 q-4 -4 11 -14 q37 -34 58 -61 q10 -12 26 -7 q10 4 19 25 q18 34 17 77 q-1 93 9 124 q7 16 0 24 q-63 42 -101 24 q-28 -9 -68 -19 q0 40 2 85 q31 9 177 29 q10 -1 20 12 q1 13 -23 23 q-37 22 -129 -8 q-22 -4 -44 -12 q0 54 2 110 q126 30 128 30 q9 7 4 17 q-7 12 -37 19 q-24 4 -93 -16 q4 58 17 101 q10 15 6 29 q-7 10 -62 44 q-24 18 -45 2 q-4 -6 1 -21 q33 -49 34 -98 q0 -34 0 -70 q-42 -7 -85 -12 q15 27 30 48 q9 13 -6 26 q-45 30 -67 23 q-10 -3 -7 -16 q19 -69 -49 -161 q-16 -22 -24 -34 q-7 -16 7 -10 q48 12 103 100 l1 0 q40 -21 98 -12 q0 -60 -2 -111 q-70 -15 -271 -45 q-30 -4 -7 -22 q36 -27 65 -19 q94 22 212 46 q-1 -42 -3 -86 q-49 -7 -115 -15 q-22 10 -38 9 q-12 -4 -6 -14 q30 -60 6 -139 q-21 -42 15 -79 q7 -12 15 -6 q25 21 26 105 q0 70 3 89 ZM619 587 q30 -67 9 -243 q-7 -30 23 -71 q10 -10 20 1 q18 33 19 108 q0 135 6 174 q7 24 -15 36 q-16 10 -35 19 q-13 4 -23 -1 q-9 -7 -4 -23 ZM790 737 q4 -37 2 -595 q0 -24 -13 -33 q-6 -4 -75 8 q-36 15 -33 3 q1 -9 23 -25 q66 -57 82 -88 q19 -37 36 -38 q16 -1 33 38 q19 51 18 134 q-36 471 5 626 q19 34 -44 59 q-37 19 -59 12 q-19 -7 -2 -33 q25 -31 27 -68 Z" /><glyph glyph-name="uni524D" unicode="&#x524d;" d="M113 614 q-15 0 -16 -12 q0 -13 19 -28 q45 -33 80 -21 q133 48 493 78 q117 9 270 -8 q25 -3 31 6 q7 13 -5 26 q-31 28 -76 49 q-15 7 -42 -2 q-46 -13 -109 -21 q-286 -30 -462 -53 q-106 -15 -183 -14 ZM642 814 q-12 -30 -57 -106 q-9 -19 10 -14 q40 28 100 76 q19 21 44 35 q22 13 8 32 q-18 18 -48 30 q-28 12 -43 7 q-13 -3 -7 -18 q6 -19 -7 -42 ZM399 749 q45 -58 64 -61 q10 0 18 13 q7 15 0 47 q-3 16 -28 31 q-58 27 -77 24 q-6 -4 -5 -17 q1 -12 28 -37 ZM735 476 q15 -384 -3 -407 q-10 -6 -35 1 q-16 7 -39 13 q-13 6 -13 -2 q-1 -10 9 -21 q52 -61 84 -108 q12 -10 28 7 q43 55 44 161 q-16 219 -6 381 q6 30 -1 41 q-10 15 -53 36 q-19 10 -30 3 q-13 -10 3 -34 q12 -27 12 -71 ZM578 469 q30 -64 9 -216 q-6 -34 21 -63 q9 -10 18 0 q21 30 18 72 q-6 100 5 179 q6 22 -13 33 q-16 10 -33 18 q-12 4 -21 -2 q-7 -6 -4 -21 ZM302 341 q1 0 6 0 q55 10 96 15 q22 4 13 17 q-10 13 -35 16 q-40 3 -78 -20 q4 63 9 83 q0 4 0 6 q7 3 98 25 q15 4 22 -4 q7 -7 7 -31 q7 -190 0 -304 q-1 -22 -8 -33 q-6 -6 -58 7 q-18 7 -18 -2 q43 -43 66 -74 q10 -18 25 -22 q7 -4 16 4 q36 48 37 106 q-21 297 2 337 q10 18 0 27 q-19 16 -52 30 q-16 7 -29 1 q-45 -24 -117 -40 q-24 24 -54 21 q-13 -4 -9 -16 q48 -111 -5 -303 q-25 -63 -23 -75 q1 -30 18 -50 q7 -13 17 -8 q36 21 45 145 l2 32 q58 7 104 13 q22 4 14 16 q-10 15 -36 19 q-51 6 -80 -16 q1 43 5 78 Z" /><glyph glyph-name="uni529B" unicode="&#x529b;" d="M450 519 q-45 -157 -120 -261 q-81 -94 -147 -145 q-33 -24 -63 -42 q-19 -15 -40 -29 q-18 -13 -1 -16 q18 -1 63 16 q91 40 160 104 q79 64 117 138 q16 34 34 66 q43 85 62 182 q88 19 174 28 q27 1 33 -11 q7 -21 1 -72 q-25 -189 -67 -286 q-22 -61 -44 -80 q-15 -13 -44 -3 q-30 10 -57 19 q-27 10 -10 -17 q43 -58 64 -101 q7 -25 31 -20 q22 1 53 32 q87 76 136 400 q10 72 40 113 q22 25 11 39 q-19 25 -63 45 q-31 16 -65 3 q-79 -31 -187 -53 q36 165 53 196 q13 24 -8 36 q-60 48 -95 35 q-19 -6 -10 -25 q33 -69 -1 -248 q-1 -1 -1 -6 q-9 0 -18 -2 q-141 -22 -221 -20 q-25 3 -26 -11 q-1 -12 26 -31 q34 -25 66 -14 q82 24 164 41 Z" /><glyph glyph-name="uni52A0" unicode="&#x52a0;" d="M300 463 q-66 -237 -189 -367 q-64 -60 -65 -61 q-4 -7 14 -7 q57 0 174 141 q12 18 25 37 q69 114 109 271 q40 10 81 16 q18 1 22 -7 q7 -16 3 -60 q-16 -160 -50 -243 q-18 -52 -36 -69 q-12 -10 -34 -2 q-31 12 -58 23 q-22 10 -9 -14 q40 -52 62 -93 q7 -22 29 -18 q19 1 45 29 q70 67 105 341 q7 61 31 96 q18 22 8 34 q-16 19 -53 35 q-27 13 -54 1 q-37 -16 -84 -30 q28 153 49 193 q7 13 -2 23 q-19 22 -59 44 q-22 13 -44 9 q-24 -6 -8 -28 q30 -39 25 -74 q-10 -103 -28 -183 q-123 -24 -179 -26 q-19 1 -20 -9 q-1 -10 22 -25 q28 -19 54 -9 q58 19 114 32 ZM673 152 q7 0 16 1 q60 10 188 17 q12 1 14 11 q0 7 -27 27 q27 168 77 214 q19 22 0 43 q-19 15 -82 41 q-22 9 -46 -2 q-46 -19 -88 -31 q-43 -10 -89 -20 q-13 7 -40 14 q-13 4 -17 -1 q-7 -6 1 -23 q31 -97 39 -251 q-1 -46 21 -78 q16 -25 24 -9 q7 18 9 47 ZM671 191 q-1 7 -1 14 q-19 166 -20 214 q12 1 26 6 q144 30 150 22 q16 -15 14 -48 q-15 -103 -36 -184 q-73 -16 -133 -24 Z" /><glyph glyph-name="uni52A8" unicode="&#x52a8;" d="M242 646 q-40 -7 -11 -26 q48 -27 111 -10 q61 13 124 27 q28 7 33 11 q10 9 5 19 q-9 13 -42 20 q-34 7 -68 -8 q-31 -10 -67 -20 q-39 -9 -85 -13 ZM448 271 q25 -46 37 -52 q9 -1 16 6 q9 10 10 36 q3 22 -22 52 q-28 25 -60 50 q-10 7 -16 7 q-6 -1 -8 -11 q0 -6 34 -71 q-87 -21 -179 -47 q-7 -1 -8 0 q-3 3 3 11 q70 132 101 168 q12 13 2 22 q-6 4 -15 7 q58 12 132 21 q18 1 18 10 q1 13 -17 23 q-28 13 -51 7 q-238 -49 -315 -54 q-13 -1 -17 -9 q-3 -12 12 -23 q42 -28 84 -16 q51 16 94 27 q1 -1 2 -6 q13 -43 -53 -149 q-19 -31 -60 -62 q-25 -13 -24 -23 q1 -16 12 -34 q12 -18 25 -21 q7 -1 17 4 q49 45 244 126 q0 1 2 1 ZM625 453 q-45 -180 -136 -308 q-27 -43 -56 -84 q-6 -7 -8 -13 q-4 -13 8 -11 q36 6 129 133 q19 31 39 65 q45 88 87 236 q52 16 106 24 q15 1 18 -6 q7 -15 4 -57 q-12 -151 -41 -232 q-15 -49 -32 -66 q-12 -13 -38 -5 q-39 12 -73 24 q-24 7 -7 -15 q49 -52 77 -92 q10 -22 33 -16 q19 3 42 28 q67 69 95 331 q6 58 28 92 q16 22 8 32 q-16 19 -52 34 q-25 13 -52 0 q-46 -22 -108 -40 q18 147 38 206 q0 6 3 11 q10 16 4 31 q-18 19 -52 37 q-21 13 -35 8 q-13 -7 -7 -23 q18 -25 14 -96 q-3 -18 -4 -40 q-9 -78 -23 -149 q-70 -15 -112 -17 q-19 1 -19 -9 q-1 -10 21 -22 q27 -16 50 -7 q24 9 51 16 Z" /><glyph glyph-name="uni52A9" unicode="&#x52a9;" d="M200 197 q-27 -6 -52 -15 q-22 -7 -62 -7 q-13 -1 -16 -13 q-1 -13 8 -23 q25 -16 60 -37 q12 -4 24 6 q57 39 268 128 q31 13 54 31 q13 7 14 18 q-6 6 -19 3 q-22 -7 -45 -16 q6 331 31 362 q13 18 1 34 q-10 12 -60 38 q-15 9 -80 -19 q-48 -16 -90 -28 q-19 16 -37 24 q-13 4 -23 -1 q-9 -4 -5 -16 q7 -16 16 -30 q7 -22 9 -60 q3 -40 4 -379 ZM249 212 q0 70 1 134 q54 9 95 17 q22 6 13 17 q-12 13 -38 16 q-24 1 -64 -14 q-4 -1 -6 -4 q0 52 1 99 q51 10 89 14 q22 4 14 17 q-12 15 -38 17 q-22 1 -64 -12 q-1 0 -1 -1 q1 57 4 115 q40 21 114 31 q13 3 17 -2 q9 -15 -2 -401 q-67 -19 -135 -43 ZM640 506 q-79 -15 -126 -16 q-19 1 -20 -9 q-1 -10 22 -25 q28 -19 54 -9 q28 10 60 17 q-73 -255 -188 -378 q-25 -27 -60 -59 q-13 -7 -16 -12 q-4 -7 13 -7 q33 -4 129 87 q120 120 185 385 q55 15 113 23 q16 1 20 -7 q7 -16 3 -61 q-16 -163 -49 -248 q-18 -54 -36 -70 q-13 -13 -38 -4 q-28 7 -53 15 q-25 9 -8 -15 q40 -51 61 -88 q7 -22 28 -17 q21 1 46 29 q72 70 105 351 q7 63 32 99 q19 22 9 33 q-16 21 -55 37 q-27 13 -56 1 q-48 -21 -114 -38 q27 156 57 220 q7 12 -1 22 q-18 21 -55 42 q-22 13 -42 9 q-22 -6 -8 -27 q27 -37 23 -70 q-15 -117 -35 -210 Z" /><glyph glyph-name="uni52BF" unicode="&#x52bf;" d="M386 539 q58 40 59 49 q-6 4 -17 1 q-21 -9 -42 -19 q0 37 1 75 q13 4 31 8 q30 9 34 13 q7 7 3 15 q-7 10 -34 16 q-16 3 -33 -2 q1 60 11 74 q10 13 5 22 q-6 12 -26 23 q-34 16 -47 11 q-16 -4 -4 -20 q13 -15 18 -125 q-90 -25 -139 -34 q-33 -7 -8 -21 q36 -18 101 -2 q21 6 46 11 q0 -51 -2 -83 q-187 -78 -222 -80 q-12 -3 -12 -12 q-1 -13 8 -19 q22 -13 53 -27 q10 -1 20 7 q48 40 153 95 q-3 -85 -4 -96 q-6 -25 -21 -20 q-16 4 -54 10 q-13 4 -16 0 q-1 -6 13 -16 q55 -37 71 -63 q9 -16 18 -20 q7 -3 11 1 q22 30 24 141 q0 28 1 87 ZM546 481 q57 -48 64 -50 q6 0 10 7 q7 10 -3 39 q-10 28 -46 43 q24 46 48 115 q55 22 72 12 q12 -7 3 -30 q-27 -141 21 -193 l3 -3 q22 -24 94 -56 q40 -21 66 -18 q22 0 27 10 q7 10 2 57 q-4 28 -4 115 q0 15 -10 21 q-4 4 -9 -8 q-25 -82 -40 -101 q-7 -18 -42 -12 q-25 7 -52 32 q-22 21 -26 48 q-9 57 34 104 q7 10 20 20 q25 24 -28 58 q-27 19 -45 7 q-19 -13 -78 -33 q19 90 25 102 q9 12 4 24 q-13 16 -38 30 q-16 10 -27 7 q-10 -4 -6 -17 q10 -28 5 -69 q-1 -3 -1 -6 q-6 -45 -15 -85 q-46 -9 -88 -14 q-16 1 -22 -6 q-3 -4 4 -12 q15 -15 99 2 q-10 -34 -32 -85 q-40 16 -62 24 q-6 3 -7 -6 q1 -9 9 -15 q19 -15 43 -34 q-33 -52 -54 -83 q-4 -4 -7 -10 q-3 -9 6 -8 q24 0 83 77 ZM433 244 q-52 -169 -231 -252 q-13 -7 -2 -12 q13 -3 50 6 q49 13 90 40 q91 58 139 181 q0 10 18 50 q67 13 127 19 q31 3 37 -6 q9 -15 1 -51 q-15 -102 -42 -145 q-21 -34 -50 -28 q-28 9 -54 19 q-25 9 -8 -17 q46 -46 68 -81 q18 -22 37 -6 q66 42 102 199 q12 78 35 105 q15 13 9 26 q-10 13 -66 40 q-22 10 -44 -3 q-31 -16 -140 -38 q7 16 18 30 q12 16 -3 28 q-15 16 -29 24 q-19 16 -39 13 q-15 -1 -11 -18 q12 -37 -4 -90 q-105 -18 -194 -20 q-19 0 -23 -10 q-3 -9 24 -23 q27 -19 49 -11 q70 18 136 31 Z" /><glyph glyph-name="uni533A" unicode="&#x533a;" d="M587 329 q144 -141 148 -142 q7 -1 14 7 q10 12 -1 48 q-10 45 -129 131 q34 52 68 128 q13 28 32 56 q9 10 3 21 q-6 12 -38 31 q-22 13 -32 12 q-15 -3 -14 -19 q6 -90 -63 -197 q-102 73 -159 107 q-7 4 -9 -6 q-1 -12 8 -20 q64 -54 134 -120 q-69 -84 -197 -179 q-7 -7 -1 -11 q7 -3 20 1 q70 27 131 72 q49 34 85 80 ZM310 704 q-27 27 -70 31 q-13 1 -22 -5 q-10 -7 5 -25 q31 -39 20 -403 q-15 -225 -46 -249 q-22 -19 -9 -37 q6 -16 22 -29 q15 -12 37 3 q78 60 476 49 q58 -1 89 -7 q25 -4 38 2 q12 7 12 14 q-1 15 -35 37 q-34 21 -55 21 q-40 -1 -356 -35 q-121 -18 -130 -5 q-12 12 -1 118 q0 184 19 441 q1 36 5 50 q36 -19 119 -9 q123 21 253 41 q63 13 72 21 q10 9 6 18 q-7 13 -40 24 q-34 7 -138 -24 q-153 -33 -271 -42 Z" /><glyph glyph-name="uni5341" unicode="&#x5341;" d="M481 470 q0 -472 8 -491 q1 -7 6 -14 q16 -18 26 6 q19 45 20 477 q0 15 1 29 q171 25 363 5 q27 -3 34 7 q7 16 -6 28 q-34 31 -83 52 q-16 7 -45 -3 q-19 -6 -262 -40 q3 127 9 196 q1 34 19 63 q7 18 -14 35 q-28 22 -76 34 q-22 7 -36 -9 q-12 -10 3 -23 q30 -25 32 -62 q1 -85 1 -241 q-118 -13 -205 -27 q-97 -15 -169 -15 q-16 0 -17 -13 q0 -13 21 -29 q45 -30 97 -18 q94 34 273 53 Z" /><glyph glyph-name="uni5343" unicode="&#x5343;" d="M486 463 q-6 -441 7 -478 q3 -7 7 -14 q7 -7 15 -5 q9 4 15 22 q21 51 18 227 q-4 58 0 253 q198 22 388 -2 q27 -4 33 6 q9 15 -5 28 q-33 31 -82 54 q-16 7 -45 -2 q-46 -13 -109 -20 q-97 -7 -180 -17 q3 103 14 143 q4 21 -13 32 q-22 15 -38 22 q105 48 168 59 q19 1 24 9 q4 13 -9 26 q-24 18 -74 39 q-16 9 -32 8 q-9 -4 -10 -17 q0 -31 -190 -128 q-48 -21 -107 -46 q-6 -10 1 -14 q15 -4 150 39 q10 4 25 7 q28 -57 29 -130 q0 -25 0 -56 q-127 -10 -219 -22 q-105 -13 -183 -12 q-15 0 -17 -13 q-1 -13 20 -30 q48 -37 87 -24 q103 39 312 56 Z" /><glyph glyph-name="uni5347" unicode="&#x5347;" d="M621 448 q0 -214 -4 -286 q-3 -184 18 -222 q16 -16 26 7 q16 49 17 504 q72 3 251 4 q25 0 31 11 q7 15 -14 32 q-75 52 -131 34 q-60 -10 -136 -25 q1 237 22 273 q9 27 -10 42 q-27 21 -73 32 q-21 6 -35 -9 q-10 -9 3 -22 q31 -25 33 -63 q1 -93 2 -263 q-58 -7 -123 -18 q-31 -4 -62 -9 q1 30 5 62 q4 22 7 34 q7 22 -16 35 q-28 15 -48 21 q78 45 116 51 q25 7 18 29 q-10 22 -36 43 q-24 21 -38 21 q-15 1 -13 -15 q0 -33 -123 -123 q-31 -22 -66 -49 q-15 -16 5 -16 q61 24 105 43 q24 -51 22 -144 q-136 -16 -286 -34 q-27 -3 -7 -25 q42 -37 87 -25 q96 27 203 42 q-15 -198 -137 -322 q-25 -18 -41 -40 q-1 -7 11 -8 q45 0 113 71 q91 97 115 308 q51 12 189 19 Z" /><glyph glyph-name="uni5355" unicode="&#x5355;" d="M347 726 q30 -28 63 -64 q12 -13 27 -13 q10 -1 16 12 q6 13 -1 43 q-6 33 -107 69 q-15 4 -21 2 q-4 -4 -4 -16 q1 -10 27 -33 ZM481 -30 q6 -25 13 -35 q6 -7 13 -5 q15 9 21 70 q6 70 2 228 q81 6 356 7 q24 0 29 10 q7 13 -13 30 q-61 48 -134 33 q-96 -16 -238 -39 q0 46 0 106 q60 9 115 14 q6 -18 19 -16 q15 1 23 17 q13 16 37 99 q18 54 56 85 q19 16 3 33 q-19 18 -71 46 q-16 10 -85 -7 q-10 0 -89 -14 q46 37 73 63 q54 60 87 77 q21 13 7 31 q-16 16 -45 28 q-27 10 -40 6 q-13 -3 -7 -17 q9 -28 -96 -185 q-1 -4 -3 -7 q-55 -7 -103 -19 q-58 -12 -102 -20 q-10 6 -50 11 q-13 1 -16 -3 q-7 -7 4 -24 q36 -67 61 -179 q6 -34 26 -55 q21 -22 25 -5 q1 9 2 20 q9 -1 25 1 q46 7 90 13 q0 -49 0 -106 q-169 -19 -361 -40 q-25 -3 -7 -23 q34 -34 82 -25 q136 36 286 49 q0 -213 5 -253 ZM532 473 q0 4 0 7 q37 7 71 13 q22 4 14 16 q-10 13 -34 18 q-19 1 -48 -6 q3 21 7 37 q3 18 -12 27 q-10 7 -20 12 q142 25 166 13 q10 -6 4 -39 q-21 -120 -35 -149 q-21 6 -114 -11 q0 30 1 62 ZM462 568 q13 -22 14 -63 q-49 -13 -93 -25 q-16 -4 3 -17 q10 -7 33 -4 q28 6 57 11 q0 -31 0 -69 q-61 -9 -117 -19 q-1 13 -5 26 q-25 109 -33 147 q48 16 130 31 q4 -10 11 -18 Z" /><glyph glyph-name="uni5370" unicode="&#x5370;" d="M243 500 q45 -12 114 7 q94 25 105 32 q7 9 2 17 q-7 12 -38 16 q-31 4 -61 -11 q-57 -22 -119 -34 q-4 0 -4 -2 q-4 58 -1 92 q1 7 0 13 q58 31 93 54 q90 57 118 66 q25 10 15 32 q-13 22 -44 42 q-27 19 -42 17 q-16 -1 -12 -17 q1 -31 -74 -109 q-34 -31 -69 -66 q-22 18 -43 26 q-21 7 -30 -1 q-10 -7 0 -23 q48 -85 40 -291 q-1 -52 -42 -107 q-13 -16 -4 -40 q12 -28 26 -40 q13 -9 27 10 q25 39 238 192 q21 13 26 22 q4 10 -6 11 q-19 0 -194 -97 q-19 -10 -20 8 q3 99 -1 181 ZM606 625 q-34 22 -51 25 q-13 4 -30 -5 q-10 -10 -2 -21 q24 -57 26 -66 q0 -6 1 -14 q4 -150 0 -384 q-3 -202 19 -233 q6 -7 14 -5 q9 4 14 21 q19 45 14 219 q-1 31 -2 349 q0 13 7 63 q46 24 163 62 q10 3 19 -1 q16 -9 15 -35 q-4 -64 -34 -179 q-4 -37 -39 -31 q-36 1 -63 4 q-19 1 -14 -10 q3 -12 39 -34 q37 -34 59 -69 q10 -13 24 -8 q31 13 60 93 q6 21 10 42 q21 186 41 206 q13 10 8 25 q-10 15 -53 44 q-18 15 -72 -6 q-18 0 -173 -52 Z" /><glyph glyph-name="uni5373" unicode="&#x5373;" d="M405 312 q22 -22 45 -51 q10 -13 26 -15 q10 -1 17 11 q7 13 2 43 q-4 28 -40 54 q-39 22 -82 41 q-15 6 -21 4 q-4 -3 -5 -16 q0 -4 41 -52 q-6 0 -139 -74 q-15 -7 -15 6 q6 93 7 175 q9 9 158 33 q7 -16 21 -14 q13 4 21 20 q15 25 31 142 q13 55 48 90 q19 19 0 33 q-21 16 -75 39 q-15 9 -78 -14 q-85 -21 -134 -43 q-22 19 -41 27 q-19 7 -28 1 q-10 -7 -1 -23 q51 -111 23 -425 q-3 -51 -43 -101 q-12 -16 -4 -39 q10 -28 24 -40 q13 -7 26 10 q22 36 215 178 l1 0 ZM242 566 q7 3 119 27 q24 7 13 19 q-13 13 -40 16 q-43 0 -93 -31 q0 69 4 92 q43 19 143 45 q18 4 25 1 q13 -6 10 -46 q-16 -163 -27 -186 q-30 15 -118 -17 q-19 -4 -36 -11 q0 48 0 91 ZM636 632 q-30 19 -45 22 q-13 4 -31 -5 q-10 -9 -1 -20 q24 -55 26 -75 q-1 -1 0 -5 q3 -148 -2 -382 q-3 -202 18 -232 q6 -7 14 -5 q9 4 14 21 q21 46 15 218 q-3 70 1 339 q0 48 10 88 q79 27 139 38 q15 1 18 -2 q13 -15 9 -57 q-3 -115 -26 -167 q-16 -34 -45 -33 q-22 3 -42 8 q-27 6 -6 -18 q43 -39 64 -69 q22 -21 40 0 q30 25 49 67 q22 49 28 198 q3 52 19 79 q12 13 4 24 q-10 10 -64 30 q-21 7 -40 -8 q-31 -21 -166 -54 Z" /><glyph glyph-name="uni5382" unicode="&#x5382;" d="M358 701 q-54 42 -88 31 q-22 -7 -5 -28 q30 -34 29 -68 q-4 -153 -26 -252 q-42 -204 -162 -354 q-45 -43 -45 -47 q-4 -7 14 -6 q55 9 156 150 q10 19 21 38 q78 159 95 355 q7 91 23 136 q36 -12 83 -2 q355 57 384 65 q18 6 24 10 q12 9 6 20 q-7 16 -44 26 q-36 10 -133 -20 q-168 -42 -332 -54 Z" /><glyph glyph-name="uni5386" unicode="&#x5386;" d="M342 709 q-3 3 -6 4 q-52 28 -68 25 q-22 -4 -5 -28 q31 -55 5 -275 q-10 -72 -49 -156 q-30 -69 -130 -161 q-16 -13 -19 -21 q-3 -7 10 -7 q42 0 123 80 q85 90 115 242 q19 94 26 234 q3 15 5 25 q9 -1 17 -5 q33 -7 68 1 q133 22 271 44 q63 13 72 21 q10 9 6 18 q-7 13 -40 24 q-34 7 -138 -24 q-142 -30 -263 -41 ZM517 400 q-48 -168 -237 -380 q-7 -10 1 -12 q10 -1 21 6 q78 51 138 123 q93 102 138 278 q70 16 139 25 q19 1 25 -8 q7 -13 4 -52 q-10 -138 -37 -211 q-13 -46 -29 -60 q-13 -13 -41 -6 q-37 10 -70 22 q-25 7 -8 -16 q49 -52 77 -93 q10 -22 33 -16 q18 1 40 26 q64 61 94 310 q7 55 29 87 q19 24 8 35 q-16 19 -56 37 q-28 13 -57 1 q-61 -25 -142 -45 q15 72 32 118 q7 13 -2 23 q-9 10 -46 24 q-27 9 -37 5 q-15 -7 -10 -24 q18 -69 2 -159 q-106 -18 -167 -18 q-22 1 -22 -10 q-1 -10 23 -26 q30 -19 56 -10 q51 15 101 26 Z" /><glyph glyph-name="uni5389" unicode="&#x5389;" d="M346 716 q-3 3 -7 5 q-51 28 -67 26 q-22 -3 -6 -28 q39 -76 -6 -310 q-15 -55 -45 -120 q-30 -64 -133 -160 q-16 -13 -20 -19 q-3 -7 10 -8 q42 -3 124 78 q87 85 120 240 q19 94 30 234 q4 18 7 29 q33 -13 111 -4 q123 21 250 44 q63 13 72 21 q10 9 5 18 q-7 13 -40 23 q-31 9 -137 -24 q-153 -33 -268 -45 ZM529 353 q75 0 104 4 q36 10 54 -4 q19 -24 -23 -165 q-24 -70 -51 -80 q-18 -6 -68 19 q-39 18 -43 11 q-6 -10 12 -22 q51 -39 68 -85 q6 -18 18 -24 q13 -4 48 19 q39 33 68 123 q45 181 55 194 q10 7 10 17 q0 10 -28 29 q-46 30 -94 9 q-70 -15 -119 -12 q1 3 3 6 q10 25 23 50 q7 10 1 20 q-6 9 -41 27 q108 24 332 56 q13 -1 23 13 q1 13 -25 25 q-39 24 -116 -1 q-247 -51 -347 -65 q-16 -1 -32 -4 q-33 -4 -8 -24 q36 -27 83 -19 q21 6 48 10 q0 -1 1 -3 q18 -147 -143 -318 q-72 -67 -64 -72 q34 -6 126 75 q75 64 125 191 Z" /><glyph glyph-name="uni539F" unicode="&#x539f;" d="M327 781 q-15 12 -37 22 q-21 13 -35 7 q-13 -7 -6 -22 q21 -30 17 -95 q-19 -237 -69 -369 q-39 -103 -137 -251 q-6 -7 -8 -14 q-3 -12 9 -9 q42 7 135 156 q12 22 24 45 q78 159 100 372 q9 84 19 116 q0 1 1 2 q15 -3 104 3 q318 45 338 49 q9 4 14 6 q10 7 6 17 q-7 13 -35 22 q-31 9 -130 -18 q-177 -34 -310 -39 ZM538 334 q0 -1 2 -6 q15 -37 15 -154 q1 -76 -7 -94 q-4 -12 -27 -7 q-22 4 -48 9 q-13 1 -14 -5 q-3 -7 9 -17 q61 -55 80 -87 q13 -15 25 -13 q12 4 25 40 q18 36 15 102 q-4 115 -1 156 q7 43 -12 65 q-10 10 -20 16 q43 6 85 9 q21 -34 39 -43 q12 -9 29 13 q16 25 51 162 q10 33 35 58 q13 13 3 28 q-16 18 -60 46 q-21 10 -90 -7 q-124 -13 -164 -30 q28 28 45 48 q43 57 63 72 q16 16 2 29 q-16 13 -45 19 q-27 7 -38 1 q-12 -4 -4 -17 q10 -21 -26 -109 q-9 -21 -18 -44 q-1 -1 -1 -4 q-34 -4 -62 -11 q-22 13 -47 18 q-7 1 -11 -3 q-7 -6 3 -16 q33 -48 50 -171 q4 -55 43 -84 l1 -1 q16 -4 17 26 q-1 1 0 1 q4 -1 18 0 q19 3 40 5 ZM664 385 q-18 3 -188 -31 q-3 19 -10 40 q-1 16 -5 33 q6 0 15 1 q94 18 163 29 q22 4 14 16 q-10 13 -34 17 q-30 3 -162 -39 q-7 43 -10 77 q82 24 229 45 q30 4 43 -6 q15 -12 10 -32 q-27 -133 -44 -159 q-9 6 -21 9 ZM375 236 q-25 -52 -60 -100 q-22 -30 -6 -67 q7 -18 29 -6 q51 34 60 114 q6 33 0 58 q-4 9 -10 10 q-9 -1 -13 -9 ZM698 215 q55 -49 121 -123 q16 -22 33 -27 q9 -1 17 10 q13 13 0 60 q-12 55 -170 113 q-10 6 -12 -7 q0 -15 11 -26 Z" /><glyph glyph-name="uni53BB" unicode="&#x53bb;" d="M663 116 q24 -37 50 -81 q13 -25 29 -34 q9 -4 20 5 q16 12 13 64 q-4 69 -170 179 q-9 7 -14 -5 q-4 -15 5 -29 q25 -34 51 -75 q-132 -18 -266 -38 q-10 -3 -14 1 q-1 4 6 13 q115 148 158 187 q18 16 7 27 q-9 10 -32 19 q93 9 415 10 q24 0 30 10 q7 13 -13 30 q-66 51 -137 32 q-109 -18 -271 -41 q4 88 10 169 q171 42 175 45 q10 9 5 19 q-9 13 -42 21 q-34 7 -68 -7 q-33 -10 -67 -22 q0 1 1 2 q9 126 17 148 q12 21 -2 35 q-37 28 -67 38 q-16 4 -31 -9 q-6 -7 0 -19 q19 -30 20 -108 q0 -49 0 -105 q-72 -15 -150 -23 q-42 -7 -12 -26 q48 -27 114 -11 q22 6 48 9 q0 -78 0 -163 q-181 -19 -394 -41 q-25 -1 -7 -23 q34 -34 82 -25 q130 34 277 48 q1 1 5 0 q0 -84 -93 -187 q-28 -34 -86 -65 q-34 -13 -34 -25 q-3 -19 9 -45 q10 -24 26 -30 q10 -4 23 2 q93 55 344 118 q16 4 30 6 Z" /><glyph glyph-name="uni53C2" unicode="&#x53c2;" d="M545 469 q1 -3 6 -7 q88 -108 185 -206 q42 -46 209 -18 q19 1 20 7 q3 7 -12 13 q-180 70 -184 73 q-72 42 -192 140 q88 9 246 8 q19 1 25 9 q4 12 -12 26 q-60 42 -118 23 q-94 -18 -240 -42 q-18 -1 -36 -6 q24 34 40 47 q12 9 9 18 q-3 18 -29 40 q57 15 170 38 q39 -39 51 -44 q6 -3 10 0 q4 3 10 15 q4 12 2 25 q-9 51 -116 96 q-1 1 -2 1 q-9 3 -12 -2 q-4 -4 1 -14 q24 -40 37 -54 q-108 -16 -224 -46 q-12 -4 -16 -1 q-1 4 7 14 q130 133 157 154 q15 7 10 22 q-4 13 -49 44 q-16 10 -26 8 q-13 -4 -11 -26 q9 -72 -126 -187 q-22 -15 -50 -31 q-15 -10 -12 -22 q3 -18 26 -41 q10 -12 25 -2 q33 25 90 39 q3 -28 -38 -100 q-109 -13 -228 -30 q-21 -1 -5 -19 q30 -27 78 -16 q61 18 132 28 q-48 -73 -97 -123 q-46 -46 -143 -109 q-13 -12 -4 -15 q4 -3 18 1 q153 45 287 250 q3 12 131 22 ZM471 412 q-12 -57 -150 -169 q-19 -13 5 -11 q66 7 185 126 q13 15 23 22 q10 10 8 19 q-3 12 -25 19 q-25 10 -36 7 q-7 -1 -10 -13 ZM519 318 q-15 -69 -190 -195 q-19 -13 5 -11 q75 6 195 121 q3 7 52 51 q10 10 8 18 q-1 12 -24 20 q-25 10 -36 8 q-7 -1 -10 -12 ZM580 239 q0 -70 -142 -185 q-3 -1 -5 -4 q-40 -31 -138 -87 q-9 -3 1 -8 q55 -9 193 82 q6 6 14 10 q49 37 128 115 q10 10 17 15 q9 3 9 14 q1 10 -9 24 q-27 36 -58 36 q-10 0 -10 -12 Z" /><glyph glyph-name="uni53C8" unicode="&#x53c8;" d="M470 283 q48 -75 197 -223 q21 -21 57 -25 q123 -10 223 -2 q52 3 49 17 q-1 7 -52 26 q-195 63 -260 100 q-78 45 -181 149 q94 127 144 282 q15 49 52 81 q22 19 3 35 q-25 19 -59 29 q-31 12 -62 -4 q-43 -16 -122 -39 q-87 -16 -176 -26 q-21 0 -26 -6 q-3 -13 23 -30 q31 -21 104 4 q172 54 193 49 q9 0 9 -22 q-40 -189 -125 -310 q-58 64 -115 137 q-43 52 -86 57 q-22 1 -27 -4 q-3 -7 16 -23 q64 -46 185 -202 q-109 -126 -334 -237 q-18 -9 -8 -16 q7 -4 36 5 q148 48 240 106 q52 34 102 92 Z" /><glyph glyph-name="uni53CD" unicode="&#x53cd;" d="M517 249 q-87 -114 -268 -167 q-16 -6 -2 -15 q7 -7 62 -3 q138 15 246 140 q64 -73 183 -169 q37 -27 88 -14 q69 13 119 24 q16 4 31 11 q9 10 -6 18 q-19 10 -168 46 q-97 24 -218 125 q49 78 92 196 q13 34 35 56 q22 19 6 34 q-16 13 -52 26 q-24 6 -114 -31 q-99 -33 -203 -49 q19 166 24 199 q1 4 1 9 q196 37 257 60 q55 15 102 18 q21 -1 26 6 q6 13 -6 27 q-22 22 -72 49 q-16 10 -32 11 q-10 -3 -12 -16 q-4 -46 -275 -132 q-1 1 -5 3 q-54 30 -71 28 q-22 -4 -6 -29 q19 -36 19 -83 q3 -63 -14 -192 q-9 -88 -59 -191 q-37 -82 -143 -173 q-16 -13 -21 -21 q-3 -7 11 -8 q48 0 133 85 q103 105 137 314 q34 -3 79 11 q139 46 165 45 q27 -1 23 -29 q-25 -109 -69 -185 q-39 36 -79 77 q-25 28 -67 32 q-10 1 -18 -5 q-4 -6 5 -12 q9 -7 18 -12 q24 -9 118 -114 Z" /><glyph glyph-name="uni53D1" unicode="&#x53d1;" d="M558 152 q144 -144 176 -151 q100 0 178 14 q37 6 35 16 q-3 12 -186 55 q-82 30 -174 101 q40 55 69 137 q10 37 32 56 q18 15 -1 32 q-22 19 -58 35 q-22 9 -47 -2 q-58 -34 -142 -50 q-15 -1 -25 -5 q33 61 58 120 q114 33 306 36 q25 -3 36 6 q7 7 0 20 q-7 13 -53 35 q-27 12 -92 -7 q-81 -13 -177 -40 q40 135 45 160 q4 31 22 61 q13 21 -8 34 q-30 21 -71 29 q-19 4 -28 -2 q-7 -7 0 -25 q55 -93 -21 -275 q-55 -13 -106 -32 q-16 -7 -20 -2 q-6 4 -1 17 q19 73 31 95 q9 13 -3 28 q-18 25 -49 41 q-13 7 -24 -1 q-7 -4 2 -24 q15 -31 8 -73 q-13 -61 -42 -88 q-15 -16 -9 -30 q9 -22 28 -42 q13 -13 33 2 q48 40 132 62 q-87 -184 -201 -300 q-49 -46 -113 -100 q-7 -7 -9 -13 q-1 -7 15 1 q184 82 300 285 q1 -1 6 -3 q30 -13 72 2 q48 13 94 26 q16 7 19 -12 q0 -67 -51 -157 q-34 30 -67 63 q-37 37 -73 37 q-18 1 -21 -5 q-1 -7 15 -17 q37 -21 123 -109 q-18 -21 -39 -41 q-67 -52 -239 -97 q-18 -3 -8 -13 q7 -7 40 -5 q112 10 177 37 q60 27 106 78 ZM673 728 q34 -28 69 -61 q13 -12 28 -12 q10 1 15 14 q4 13 -4 42 q-9 34 -112 63 q-15 4 -21 1 q-4 -4 -4 -16 q4 -10 29 -31 Z" /><glyph glyph-name="uni53D6" unicode="&#x53d6;" d="M442 306 q1 1 7 4 q75 36 73 55 q-6 6 -20 2 q-30 -10 -60 -24 q-6 252 9 346 q3 18 -35 44 q0 1 2 1 q61 9 112 16 q10 -1 19 12 q1 12 -22 21 q-30 21 -111 -3 q-132 -33 -189 -40 q-43 -4 -91 -11 q-28 -4 -6 -21 q27 -24 55 -21 q16 -27 17 -73 q1 -39 1 -361 q-31 -10 -59 -21 q-25 -10 -68 -11 q-15 -1 -16 -14 q-1 -15 9 -23 q27 -16 64 -36 q13 -3 25 7 q51 42 232 127 q-9 -165 -21 -197 q-10 -36 22 -90 q1 -6 7 -12 q13 -21 22 -26 q13 -1 19 14 q13 37 10 71 q-4 139 -7 264 ZM247 269 q1 72 2 136 q0 1 1 1 q58 10 101 18 q25 7 15 20 q-13 15 -42 17 q-25 1 -71 -16 q-3 -1 -4 -3 q1 54 2 102 q57 9 100 14 q24 4 14 18 q-12 15 -38 19 q-25 1 -69 -12 q-4 -1 -6 -4 q0 42 3 75 q7 24 -22 44 q61 15 140 28 q34 -52 19 -403 q-70 -25 -145 -54 ZM679 289 q99 -123 142 -135 q12 -1 143 6 q15 1 28 6 q9 7 -3 17 q-16 10 -142 61 q-67 25 -138 96 q1 4 5 9 q39 90 74 233 q9 34 27 57 q18 21 2 33 q-16 12 -53 18 q-28 4 -55 -15 q-91 -45 -200 -67 q-15 -3 -19 -11 q-4 -7 17 -14 q40 -12 93 9 q78 34 93 35 q31 0 27 -33 q-19 -138 -54 -209 q-42 49 -87 110 q-19 27 -55 36 q-12 3 -22 -4 q-6 -6 3 -14 q7 -7 15 -13 q24 -13 122 -159 q0 -1 1 -3 q-63 -102 -173 -152 q-13 -9 1 -14 q4 -7 46 -4 q85 12 162 121 Z" /><glyph glyph-name="uni53D7" unicode="&#x53d7;" d="M530 817 q-60 -48 -216 -108 q-7 -10 0 -13 q27 -6 198 47 q93 31 126 36 q18 0 22 8 q4 12 -7 24 q-22 18 -68 39 q-16 9 -30 8 q-7 -4 -9 -15 q-1 -16 -16 -26 ZM688 694 q-18 -27 -93 -107 q-10 -16 7 -15 q33 16 128 73 q21 16 46 25 q24 10 13 29 q-13 19 -40 35 q-24 16 -37 14 q-13 -1 -10 -16 q1 -19 -14 -38 ZM306 607 q16 -24 33 -53 q9 -15 24 -18 q10 -1 18 9 q7 13 7 43 q-3 28 -75 65 q-13 7 -21 6 q-4 -3 -7 -15 q1 -12 21 -37 ZM454 658 q39 -78 61 -85 q13 -4 25 13 q4 13 0 36 q-6 19 -27 32 q-33 25 -47 31 q-10 4 -13 -8 q-4 -7 1 -19 ZM230 447 q33 -24 87 -9 q156 45 382 68 q55 6 73 3 q21 -4 19 -16 q0 -3 -36 -74 q-10 -15 -4 -19 q9 -4 27 7 q58 34 104 45 q39 7 38 19 q-1 10 -74 70 q-27 22 -91 9 q-207 -27 -393 -59 q-61 -12 -123 -18 q-9 0 -14 -2 q-13 24 -26 31 q-21 15 -21 -14 q9 -45 -43 -104 q-19 -28 14 -82 q22 -22 35 5 q9 18 44 132 l2 8 ZM523 108 q156 -156 212 -151 q93 6 168 24 q39 7 35 19 q-1 4 -42 13 q-31 6 -68 12 q-138 30 -196 64 q-42 25 -82 53 q43 57 72 142 q9 39 31 57 q19 15 -1 33 q-22 19 -58 34 q-24 9 -48 -3 q-67 -37 -162 -54 q-28 -4 -42 -12 q-9 -7 12 -18 q30 -13 72 2 q58 16 114 30 q18 7 20 -13 q0 -79 -55 -163 q-43 34 -86 73 q-40 37 -75 34 q-18 0 -20 -6 q-1 -7 15 -16 q49 -24 143 -115 q-69 -75 -252 -124 q-16 -3 -7 -13 q7 -7 40 -5 q180 18 260 103 Z" /><glyph glyph-name="uni53D8" unicode="&#x53d8;" d="M441 842 q-12 0 -14 -7 q-3 -9 8 -18 q78 -72 115 -77 q9 0 14 4 q4 6 6 23 q1 16 -7 32 q-27 42 -122 43 ZM561 660 q12 -15 3 -144 q-12 -87 34 -126 q0 1 1 0 q10 -1 15 11 q6 18 7 89 q-7 105 0 144 q1 10 -4 16 q-9 7 -17 13 q58 3 202 4 q21 1 25 9 q6 12 -11 26 q-52 39 -90 30 q-120 -27 -510 -78 q-21 -1 -5 -19 q33 -30 69 -20 q48 13 102 23 q24 -48 5 -163 q-22 -45 14 -87 l1 -1 q10 -12 19 1 q15 22 22 140 q1 69 4 86 q1 16 -12 24 q-4 4 -10 7 q58 12 136 15 ZM287 566 q-34 -61 -77 -113 q-24 -31 -11 -63 q4 -19 26 -9 q58 36 80 127 q9 31 5 55 q-4 9 -9 11 q-9 0 -14 -8 ZM668 549 q58 -40 130 -102 q18 -16 32 -19 q9 0 15 11 q10 13 -8 53 q-18 51 -168 85 q-3 1 -4 1 q-10 4 -10 -8 q1 -13 13 -21 ZM524 98 q139 -139 188 -141 q72 0 163 21 q37 7 33 18 q-1 4 -39 14 q-213 48 -286 103 l-26 18 q45 52 85 127 q18 30 41 47 q22 16 10 32 q-13 15 -46 30 q-24 12 -101 -14 q-102 -25 -221 -32 q-16 -1 -22 -9 q-4 -7 16 -17 q40 -18 97 -3 q130 31 152 27 q21 -1 16 -24 q-25 -78 -69 -132 q-31 25 -64 55 q-40 37 -75 34 q-18 0 -20 -6 q-1 -7 14 -16 q39 -21 117 -96 q-85 -81 -281 -122 q-16 -3 -4 -13 q7 -4 64 -2 q72 4 154 39 q58 25 104 62 Z" /><glyph glyph-name="uni53E5" unicode="&#x53e5;" d="M355 562 q39 -12 119 -4 q253 27 265 17 l1 -2 q19 -36 1 -265 q-13 -129 -54 -208 q-16 -34 -40 -42 q-15 -1 -88 32 q-12 4 -12 -3 q-1 -4 11 -17 q46 -58 64 -98 q10 -25 26 -25 q54 3 107 104 q31 64 45 151 q18 112 32 283 q1 37 24 64 q16 16 16 26 q-1 10 -25 27 q-31 25 -75 39 q-25 9 -96 -10 q-216 -39 -301 -47 q45 49 96 124 q22 37 41 54 q12 12 6 28 q-4 15 -38 42 q-31 21 -52 21 q-22 -1 -13 -28 q21 -42 -66 -185 q-40 -64 -97 -136 q-12 -13 -14 -19 q-4 -13 12 -10 q27 3 105 87 ZM282 201 q9 -1 20 1 q57 10 180 18 q12 1 13 10 q0 7 -21 23 q25 93 62 120 q18 19 2 38 q-18 15 -72 42 q-19 7 -42 -1 q-66 -24 -174 -39 q-13 7 -43 13 q-13 4 -18 -1 q-7 -7 2 -25 q27 -64 41 -170 q1 -31 19 -53 q19 -25 25 -8 q4 13 6 32 ZM414 263 q-73 -18 -134 -26 q-13 112 -15 145 q3 0 147 22 q16 3 21 -4 q10 -10 8 -30 q-9 -58 -22 -107 q-3 1 -5 0 Z" /><glyph glyph-name="uni53EA" unicode="&#x53ea;" d="M389 440 q9 -1 20 1 q93 19 292 33 q12 1 14 11 q0 9 -31 30 q39 126 83 157 q22 24 4 46 q-21 18 -86 50 q-22 10 -50 0 q-117 -42 -299 -64 q-13 6 -40 10 q-15 4 -19 -2 q-7 -7 3 -27 q34 -76 53 -200 q3 -37 24 -63 q21 -27 28 -8 q4 10 4 26 ZM388 479 q-10 54 -26 186 q1 0 246 42 q28 6 39 -6 q13 -13 9 -39 q-16 -81 -36 -144 q-129 -27 -232 -39 ZM337 325 q-18 -90 -219 -254 q-27 -19 8 -14 q84 4 228 148 q31 39 73 76 q13 15 11 27 q-4 16 -37 27 q-36 13 -51 9 q-10 -1 -13 -19 ZM606 316 q88 -112 161 -204 q24 -30 45 -37 q22 -4 32 1 q16 13 10 51 q-7 46 -40 85 q-37 37 -156 113 q-40 27 -58 30 q-15 0 -12 -13 q1 -10 18 -26 Z" /><glyph glyph-name="uni53EF" unicode="&#x53ef;" d="M331 350 q10 -1 24 2 q49 10 156 19 q12 1 13 11 q0 9 -26 25 q22 73 47 96 q25 28 0 46 q-22 13 -52 34 q-21 13 -63 -11 q-63 -24 -137 -36 q-13 4 -36 9 q-13 4 -16 -2 q-7 -6 2 -22 q27 -58 42 -154 q3 -28 19 -47 q18 -22 23 -7 q4 15 4 37 ZM327 386 q-13 91 -16 119 q9 1 20 3 q49 10 91 19 q28 6 35 -6 q7 -6 -1 -39 q-7 -33 -16 -71 q-64 -16 -113 -25 ZM610 702 q18 -54 18 -149 q-1 -141 -4 -398 q-1 -37 -14 -50 q-13 -7 -43 2 q-22 7 -49 13 q-13 4 -14 -4 q1 -9 12 -20 q64 -61 105 -109 q13 -10 30 8 q48 66 44 151 q-6 304 -5 320 q1 90 10 175 q7 31 0 43 q-7 10 -28 24 q103 10 240 -5 q25 -3 31 7 q7 13 -5 26 q-31 28 -77 48 q-15 6 -42 -3 q-42 -13 -100 -20 q-262 -30 -423 -52 q-96 -15 -167 -15 q-15 0 -16 -12 q-1 -13 19 -28 q45 -33 80 -20 q108 42 398 68 Z" /><glyph glyph-name="uni53F0" unicode="&#x53f0;" d="M748 512 q54 -61 72 -64 q13 -1 20 13 q7 16 2 51 q-4 39 -55 76 q-54 31 -114 59 q-16 7 -25 4 q-6 -4 -6 -18 q1 -9 76 -89 q-61 -1 -174 -14 q-150 -16 -214 -31 q-28 -3 -11 16 q28 33 106 108 q121 115 144 128 q13 9 21 18 q7 16 -16 42 q-43 43 -79 50 q-19 3 -30 -5 q-6 -7 5 -22 q33 -61 -215 -312 q-66 -39 -68 -62 q-4 -15 0 -35 q7 -30 25 -32 q7 1 29 13 q124 66 406 98 q45 6 74 6 q15 1 27 2 ZM372 32 q10 -1 23 1 q97 16 306 23 q15 1 17 12 q1 10 -30 33 q36 115 83 151 q22 22 4 46 q-21 18 -85 51 q-22 10 -50 1 q-133 -43 -312 -57 q-15 7 -48 14 q-16 4 -20 -2 q-9 -7 2 -28 q34 -79 51 -209 q1 -39 23 -65 q22 -28 29 -9 q6 15 7 38 ZM618 114 q-139 -27 -249 -36 q-19 133 -22 174 q15 1 263 38 q28 4 40 -7 q13 -13 9 -41 q-13 -70 -31 -127 q-4 1 -10 -1 Z" /><glyph glyph-name="uni53F3" unicode="&#x53f3;" d="M449 39 q10 -3 27 -1 q88 16 279 24 q13 1 15 12 q1 9 -28 31 q33 120 77 155 q22 24 3 46 q-19 16 -84 48 q-22 10 -49 0 q-108 -39 -269 -56 q-10 4 -26 9 q7 13 16 25 q61 100 99 196 q150 21 398 22 q24 1 29 11 q7 13 -13 30 q-69 48 -137 28 q-103 -21 -261 -49 q22 58 31 106 q6 31 26 62 q16 22 -8 38 q-31 25 -76 35 q-21 6 -31 -1 q-10 -7 -1 -27 q39 -75 -9 -222 q-147 -19 -311 -43 q-25 -3 -6 -23 q18 -16 38 -22 q25 -6 44 0 q103 31 219 45 q-99 -237 -276 -393 q-99 -81 -100 -87 q-1 -7 17 1 q159 61 279 220 q24 -76 32 -191 q1 -40 21 -69 q19 -28 26 -10 q9 19 9 50 ZM675 116 q-127 -25 -229 -36 q-15 138 -16 181 q3 0 234 36 q25 6 36 -5 q12 -12 9 -38 q-13 -76 -29 -138 q-3 1 -5 0 Z" /><glyph glyph-name="uni5404" unicode="&#x5404;" d="M519 457 q196 -180 232 -192 q57 -7 202 24 q40 9 36 20 q-1 4 -43 14 q-177 36 -214 51 q-63 24 -187 114 q46 60 96 135 q19 28 49 47 q16 7 18 17 q0 15 -30 35 q-37 27 -52 28 q-13 0 -24 -7 q-87 -33 -156 -40 q-1 1 -3 0 q27 43 53 79 q12 13 -4 30 q-45 37 -73 35 q-13 -3 -11 -19 q9 -117 -118 -251 q-7 -7 -16 -16 q-34 -31 -52 -52 q-10 -16 7 -12 q45 9 128 92 l1 0 q34 -18 121 -93 q-153 -186 -395 -271 q-10 -4 -10 -9 q0 -4 8 -6 q175 -4 377 183 q4 6 11 11 q24 25 49 53 ZM442 577 q-34 31 -65 34 q25 31 48 64 q43 -18 130 15 q22 6 31 -2 q7 -4 -18 -56 q-25 -55 -66 -108 q-30 25 -60 53 ZM399 17 q85 18 274 29 q12 1 14 11 q0 9 -32 31 q33 84 66 107 q19 19 4 40 q-18 16 -74 45 q-19 9 -44 0 q-97 -36 -251 -54 q-13 6 -46 11 q-13 4 -17 -3 q-7 -7 3 -24 q31 -66 51 -172 q4 -33 23 -53 q19 -25 26 -7 q4 15 3 39 ZM394 57 q-19 99 -22 133 q228 39 238 36 q4 -1 8 -5 q10 -10 6 -30 q-10 -55 -25 -100 q-115 -22 -205 -34 Z" /><glyph glyph-name="uni540C" unicode="&#x540c;" d="M296 687 q7 0 18 2 q166 42 370 71 q25 6 38 -9 q16 -9 22 -81 q21 -241 11 -518 q-1 -40 -16 -52 q-16 -10 -94 10 q-19 4 -18 -7 q1 -10 16 -17 q70 -55 106 -96 q25 -24 40 -21 q16 4 28 38 q19 54 17 132 q-22 376 -23 514 q0 46 14 73 q13 25 1 39 q-13 18 -68 45 q-22 12 -45 6 q-150 -52 -433 -84 q-25 19 -52 28 q-10 3 -18 -7 q-4 -6 4 -18 q61 -166 7 -480 q-9 -46 -24 -93 q-10 -30 -5 -51 q10 -39 23 -53 q12 -16 24 -1 q37 45 39 214 q0 294 18 416 ZM384 586 q-33 -6 -9 -21 q39 -21 89 -10 q66 13 135 28 q31 7 36 11 q7 7 4 15 q-7 10 -33 18 q-28 4 -55 -6 q-36 -12 -74 -21 q-43 -10 -93 -14 ZM434 271 q6 0 14 1 q52 12 164 20 q10 1 12 9 q0 7 -24 23 q18 69 49 95 q15 16 2 32 q-72 52 -109 28 q-64 -21 -136 -38 q-10 6 -40 12 q-12 3 -15 -2 q-7 -6 1 -21 q25 -54 39 -142 q3 -27 18 -45 q16 -21 22 -6 q4 13 3 34 ZM552 328 q-67 -16 -122 -26 q-12 82 -13 110 q6 4 125 27 q15 4 21 -2 q9 -9 7 -27 q-7 -43 -16 -82 l-2 0 Z" /><glyph glyph-name="uni540D" unicode="&#x540d;" d="M457 31 q4 0 12 1 q97 16 303 26 q13 1 14 11 q1 9 -28 30 q36 99 79 127 q22 22 5 44 q-19 18 -81 51 q-22 10 -48 2 q-112 -39 -294 -57 q-10 4 -30 9 q150 133 312 334 q25 33 68 64 q19 12 13 24 q-1 10 -73 43 q-18 12 -76 -15 q-58 -16 -143 -32 q37 42 70 75 q13 12 1 29 q-39 42 -65 45 q-13 -1 -13 -16 q-6 -112 -177 -249 q-22 -6 -71 -49 q-10 -13 6 -12 q34 0 106 47 q0 -13 63 -82 q6 -7 14 -17 q10 -13 25 -14 q10 -1 16 11 q6 13 1 41 q-7 30 -94 66 q-6 3 -12 3 q64 46 113 102 q33 -27 140 1 q21 4 28 -4 q3 -9 -11 -29 q-88 -148 -239 -293 q-127 -121 -367 -285 q-18 -13 -1 -15 q42 0 167 77 q82 54 173 127 q28 -70 43 -182 q3 -34 21 -57 q19 -25 25 -8 q4 10 5 26 ZM456 70 q-1 4 -1 8 q-15 115 -17 151 q10 1 24 4 q114 16 222 34 q28 6 39 -7 q12 -12 7 -36 q-16 -66 -36 -120 q-132 -24 -238 -34 Z" /><glyph glyph-name="uni540E" unicode="&#x540e;" d="M327 447 q36 -30 73 -17 q202 63 457 63 q1 0 3 0 q21 1 25 10 q4 13 -13 26 q-57 37 -94 27 q-132 -34 -446 -88 q-3 0 -2 -1 q7 52 14 114 q9 33 9 39 q145 36 243 81 q55 22 103 30 q21 1 25 10 q4 13 -9 27 q-25 19 -79 41 q-19 10 -35 9 q-9 -4 -10 -18 q0 -45 -244 -158 q-3 4 -8 6 q-51 30 -67 28 q-22 -3 -6 -27 q33 -69 -9 -287 q-15 -58 -48 -126 q-34 -69 -131 -151 q-16 -13 -20 -19 q-3 -7 10 -8 q39 -3 123 72 q102 102 136 317 ZM434 45 q9 0 18 1 q97 19 307 28 q13 1 15 12 q1 10 -36 37 l-1 0 q36 112 78 141 q21 22 4 44 q-18 15 -85 50 q-21 9 -46 0 q-120 -45 -302 -63 q-13 6 -39 11 q-13 4 -18 -2 q-7 -7 2 -25 q33 -76 49 -199 q1 -37 23 -63 q19 -25 25 -7 q4 13 6 35 ZM430 89 q-18 127 -24 168 q12 1 253 44 q30 7 41 -6 q12 -13 8 -39 q-15 -70 -33 -129 q-136 -27 -245 -38 Z" /><glyph glyph-name="uni5410" unicode="&#x5410;" d="M200 241 q7 9 169 28 q10 1 12 11 q0 7 -30 24 q19 109 50 144 q27 30 0 46 q-24 13 -55 34 q-25 13 -63 -12 q-60 -24 -125 -36 q-15 9 -56 17 q-13 4 -17 -2 q-7 -7 3 -25 q36 -76 57 -202 q4 -39 25 -63 q19 -25 26 -7 q6 16 4 43 ZM195 277 q0 1 0 4 q-25 126 -31 168 q9 0 114 21 q25 4 31 -5 q10 -9 2 -57 q-10 -49 -21 -107 q-52 -13 -95 -24 ZM598 153 q-127 -13 -274 -27 q-25 -1 -8 -23 q36 -36 82 -26 q231 55 551 34 q24 0 29 10 q7 13 -12 30 q-61 48 -105 39 q-81 -13 -212 -31 q4 118 6 230 q66 13 137 25 q51 10 58 18 q10 9 5 18 q-7 13 -40 23 q-34 7 -69 -6 l-90 -26 q3 171 25 279 q4 13 -21 31 q-43 22 -74 27 q-19 4 -30 -7 q-9 -10 2 -28 q36 -52 36 -86 q7 -109 8 -228 q-61 -10 -126 -15 q-42 -7 -12 -26 q45 -25 123 -11 q6 1 16 2 q-1 -109 -5 -226 Z" /><glyph glyph-name="uni5417" unicode="&#x5417;" d="M208 350 q39 13 155 31 q10 1 11 11 q0 7 -25 20 q13 100 40 132 q22 28 -3 41 q-21 10 -50 27 q-21 12 -60 -17 q-39 -18 -105 -38 q-13 7 -43 12 q-13 4 -17 -1 q-7 -7 2 -24 q30 -70 45 -185 q3 -34 21 -58 q19 -24 24 -8 q7 21 5 57 ZM294 414 q-51 -19 -91 -30 q-18 115 -19 145 q22 7 92 27 q25 7 32 -3 q9 -6 -11 -138 q-1 0 -3 -1 ZM701 420 q19 21 39 214 q10 55 46 90 q18 19 0 33 q-21 16 -76 38 q-15 9 -73 -11 q-16 0 -100 -26 q-43 -13 -71 -18 q-18 -1 -20 -7 q-4 -6 15 -16 q36 -16 58 -8 q42 16 139 34 q16 1 24 -1 q16 -7 12 -59 q-19 -190 -32 -230 q-6 -27 4 -39 q-49 -6 -122 -21 q-25 -4 -25 16 q3 171 16 200 q7 18 -1 30 q-18 18 -45 29 q-19 7 -28 -2 q-7 -6 2 -18 q21 -46 3 -234 q-3 -18 -7 -36 q-6 -22 10 -37 q21 -15 43 -1 q39 28 156 43 q117 24 142 0 q13 -13 -3 -57 q-7 -75 -19 -154 q-7 -61 -34 -100 q-7 -12 -32 -10 q-40 13 -76 24 q-16 4 -15 -3 q0 -6 9 -14 q64 -58 87 -98 q9 -22 28 -11 q69 36 81 115 q19 106 32 223 q7 40 27 72 q13 18 1 31 q-19 21 -58 43 q-22 12 -52 -1 q-40 -18 -79 -22 q-4 0 -6 -1 ZM527 194 q132 21 221 16 q21 -1 26 7 q6 12 -6 22 q-28 22 -67 36 q-13 4 -34 -5 q-255 -57 -386 -68 q-13 -1 -13 -11 q0 -10 18 -22 q15 -10 43 -18 q10 -3 25 5 q9 4 51 13 q54 15 122 25 Z" /><glyph glyph-name="uni5426" unicode="&#x5426;" d="M466 520 q0 -51 -10 -104 q-4 -18 3 -48 q10 -31 20 -41 q16 -15 27 10 q13 37 13 78 q-6 156 13 174 q33 39 56 56 q21 21 -16 72 q63 4 276 5 q22 0 27 10 q7 13 -12 28 q-57 43 -99 35 q-142 -30 -554 -79 q-22 -1 -6 -21 q33 -33 77 -23 q123 33 242 41 q0 -1 1 -5 q0 -16 -37 -77 q-10 13 -26 20 q-10 1 -13 -5 q-4 -10 -1 -20 q6 -15 14 -31 q-15 -16 -27 -33 q-43 -49 -117 -110 q-88 -73 -198 -139 q-7 -4 -10 -11 q-1 -6 5 -7 q31 -3 139 58 q3 3 6 4 q90 55 207 163 ZM641 507 q99 -49 221 -128 q22 -16 40 -18 q9 1 14 14 q10 18 -15 61 q-34 63 -267 104 q-10 4 -10 -10 q3 -15 17 -23 ZM410 38 q1 0 6 0 q94 16 299 22 q13 1 15 11 q1 10 -31 33 q36 108 77 133 q21 22 4 44 q-87 72 -146 43 q-123 -36 -272 -49 q-10 7 -52 14 q-13 3 -17 -3 q-7 -7 3 -24 q37 -81 60 -212 q4 -40 26 -66 q19 -24 26 -6 q7 22 2 60 ZM402 79 q-22 115 -29 158 q10 1 25 4 q115 16 225 34 q28 6 40 -7 q10 -10 8 -34 q-15 -69 -33 -123 q-130 -22 -236 -32 Z" /><glyph glyph-name="uni542C" unicode="&#x542c;" d="M177 361 q0 1 3 1 q48 13 154 27 q10 1 11 11 q0 7 -30 24 q19 96 47 125 q25 28 -1 44 q-22 12 -51 30 q-18 9 -67 -17 q-31 -13 -98 -31 q-12 7 -45 15 q-13 4 -17 -1 q-7 -7 1 -24 q31 -75 43 -195 q1 -36 21 -61 q16 -24 23 -8 q9 22 6 60 ZM172 397 q-15 111 -17 146 q13 4 92 21 q25 6 31 -4 q9 -7 1 -48 q-7 -42 -18 -90 q-49 -13 -89 -25 ZM628 480 q18 -36 23 -96 q3 -423 12 -442 q1 -6 6 -11 q6 -7 14 -5 q18 12 22 72 q7 63 6 125 q-6 235 11 325 q4 19 -11 28 q-12 7 -21 13 q64 10 172 11 q48 0 54 10 q4 12 -11 24 q-58 42 -120 19 q-285 -52 -294 -55 q4 82 12 128 q1 4 1 8 q144 40 172 52 q49 18 91 25 q18 0 22 8 q4 12 -8 24 q-22 18 -68 37 q-16 9 -30 8 q-9 -4 -9 -15 q-4 -33 -181 -119 q-3 3 -6 4 q-49 25 -66 23 q-21 -4 -4 -27 q36 -57 7 -295 q-12 -60 -42 -132 q-27 -63 -124 -160 q-16 -15 -20 -22 q-3 -7 10 -7 q40 0 119 81 q45 49 71 104 q25 58 38 138 q7 49 13 113 q27 -18 71 -9 q31 9 68 15 Z" /><glyph glyph-name="uni542F" unicode="&#x542f;" d="M513 795 q31 -22 65 -49 q15 -12 32 -10 q10 1 15 16 q3 16 -9 46 q-15 34 -113 46 q-16 3 -23 -1 q-4 -4 -2 -18 q4 -10 35 -30 ZM390 637 q-3 4 -8 7 q-49 31 -66 30 q-22 -1 -7 -27 q25 -54 -12 -256 q-13 -81 -66 -174 q-45 -84 -143 -152 q-18 -13 -21 -19 q-4 -7 10 -8 q39 -3 129 70 q111 99 157 336 q15 -9 35 -6 q100 22 316 42 q12 1 13 10 q0 7 -16 19 q30 94 64 120 q18 19 2 37 q-16 13 -71 39 q-19 7 -41 -1 q-108 -42 -275 -67 ZM385 576 q4 16 7 26 q16 0 248 50 q27 7 38 -4 q15 -18 -14 -123 q-10 0 -18 -3 q-154 -36 -278 -50 q9 49 17 104 ZM444 64 q4 0 14 1 q90 16 283 27 q12 1 14 10 q1 9 -31 31 q-1 1 -3 1 q24 99 61 129 q18 21 2 40 q-75 57 -135 34 q-105 -33 -244 -49 q-12 7 -45 13 q-13 4 -17 -1 q-7 -7 2 -24 q31 -76 48 -198 q3 -37 22 -61 q19 -24 24 -8 q7 21 5 55 ZM439 101 q-19 115 -22 153 q33 4 224 37 q25 6 35 -5 q13 -10 10 -34 q-7 -64 -20 -117 q-127 -25 -227 -34 Z" /><glyph glyph-name="uni544A" unicode="&#x544a;" d="M496 407 q-187 -25 -406 -54 q-24 -1 -6 -22 q36 -31 80 -22 q301 87 760 87 q1 0 4 0 q22 1 28 10 q6 13 -13 30 q-66 46 -134 26 q-106 -19 -265 -47 q6 79 12 154 q175 39 183 44 q9 9 4 18 q-7 13 -39 21 q-31 7 -65 -6 q-39 -13 -80 -26 q6 114 25 167 q4 13 -19 30 q-40 22 -68 26 q-18 4 -27 -5 q-9 -9 1 -26 q24 -36 24 -60 q4 -70 4 -146 q-61 -12 -127 -18 q22 40 44 72 q10 15 -6 29 q-51 36 -76 29 q-13 -3 -9 -19 q18 -85 -71 -203 q-10 -4 -37 -47 q-9 -16 8 -11 q16 3 38 21 q58 48 95 105 q43 -27 118 -10 q10 3 24 4 q-1 -72 -4 -151 ZM408 16 q6 0 13 0 q91 19 288 30 q12 1 14 11 q1 9 -33 33 q-1 1 -4 2 q30 90 64 115 q19 22 3 42 q-19 16 -79 45 q-21 9 -46 -1 q-105 -39 -261 -57 q-13 7 -54 13 q-13 3 -18 -3 q-7 -7 3 -26 q34 -64 55 -170 q4 -33 24 -53 q22 -25 27 -7 q4 10 4 26 ZM404 54 q-10 21 -25 143 q10 1 23 5 q103 18 202 35 q25 4 36 -6 q10 -10 8 -33 q-9 -58 -22 -108 q-123 -24 -222 -36 Z" /><glyph glyph-name="uni548C" unicode="&#x548c;" d="M380 367 q7 -7 23 -16 q33 -22 67 -48 q13 -10 27 -8 q9 1 12 13 q3 13 -7 38 q-7 19 -40 32 q-72 21 -82 13 q3 102 3 124 q58 13 129 23 q16 1 18 10 q1 13 -18 22 q-28 13 -51 7 q-40 -9 -75 -18 q4 48 15 83 q9 15 6 28 q-7 9 -50 36 q99 43 143 51 q18 1 22 8 q4 12 -8 23 q-61 45 -97 41 q-7 -4 -8 -15 q0 -46 -248 -154 q-6 -9 1 -12 q30 0 126 34 q9 3 21 6 q24 -39 25 -79 q0 -30 0 -63 q-165 -36 -253 -46 q-13 -1 -16 -10 q-4 -10 12 -22 q42 -30 84 -14 q93 30 160 48 q-73 -147 -258 -343 q-7 -10 6 -12 q6 -1 17 6 q61 43 132 113 q60 60 116 154 q-7 -250 -17 -297 q-18 -81 -5 -120 q3 -9 8 -21 q7 -18 15 -21 q6 -7 13 2 q27 16 27 79 q-1 37 5 325 ZM631 245 q27 15 235 32 q13 1 14 12 q0 9 -30 28 q25 117 67 158 q19 22 1 41 q-19 15 -80 41 q-24 7 -100 -24 q-78 -24 -144 -38 q-12 7 -47 15 q-13 4 -18 -1 q-7 -7 1 -25 q34 -85 46 -224 q1 -42 23 -70 q18 -25 25 -9 q9 22 7 64 ZM626 285 q-18 133 -21 174 q46 13 174 42 q19 4 28 -3 q13 -12 10 -39 q-10 -76 -26 -139 q-91 -22 -165 -35 Z" /><glyph glyph-name="uni54CD" unicode="&#x54cd;" d="M178 331 q60 21 146 37 q10 3 11 12 q-1 7 -29 20 q9 100 32 132 q19 28 -5 39 q-21 10 -49 24 q-18 9 -56 -17 q-39 -21 -96 -38 q-13 4 -36 9 q-12 3 -15 -2 q-7 -6 2 -22 q31 -69 47 -181 q3 -34 22 -56 q18 -22 23 -7 q6 18 3 50 ZM255 397 q-46 -18 -82 -31 q-21 121 -22 148 q3 1 8 3 q39 13 71 23 q22 7 29 -2 q10 -7 6 -47 q-4 -43 -9 -94 l-1 0 ZM455 460 q82 27 309 61 q25 9 40 -5 q10 -6 13 -53 q7 -156 -4 -332 q-1 -27 -11 -33 q-13 -12 -90 1 q-16 1 -14 -8 q1 -7 14 -11 q67 -40 104 -72 q19 -19 32 -16 q12 3 22 30 q15 43 12 106 q-15 331 2 369 q12 22 2 33 q-10 15 -58 37 q-21 12 -85 -10 q-108 -24 -237 -47 q9 13 112 185 q13 25 35 47 q19 19 0 34 q-22 13 -56 18 q-31 4 -44 -4 q-13 -7 -3 -20 q18 -30 -41 -185 q-15 -37 -31 -79 q-22 -1 -43 -5 q-18 13 -39 19 q-9 1 -15 -6 q-3 -6 4 -16 q40 -87 14 -294 q-19 -105 -19 -109 l1 -2 q9 -33 20 -45 q10 -13 20 0 q27 27 28 216 q0 141 6 196 ZM571 221 q7 -1 17 1 q40 9 126 17 q10 1 10 10 q0 7 -21 20 q16 70 37 91 q21 22 0 35 q-16 10 -41 26 q-16 10 -33 0 q-31 -18 -119 -38 q-10 4 -31 10 q-10 3 -13 -1 q-6 -4 0 -19 q21 -49 30 -127 q1 -22 14 -40 q13 -19 19 -6 q4 9 5 21 ZM652 273 q-46 -13 -82 -22 q-10 85 -10 108 l82 18 q24 4 29 -4 q7 -6 0 -36 q-7 -28 -14 -63 q-4 0 -5 -1 Z" /><glyph glyph-name="uni54EA" unicode="&#x54ea;" d="M137 418 q7 0 15 2 q37 10 118 21 q10 1 11 11 q0 7 -23 20 q13 94 39 124 q19 25 -2 37 q-19 10 -45 25 q-18 10 -59 -15 q-51 -18 -80 -26 q-10 6 -37 13 q-12 4 -15 -1 q-7 -4 0 -21 q25 -72 33 -185 q1 -34 18 -59 q15 -22 21 -8 q9 22 6 62 ZM202 474 q-37 -13 -69 -22 q-10 109 -10 139 q49 12 76 18 q19 4 24 -3 q9 -6 -11 -129 q-6 -1 -10 -3 ZM356 435 q-33 -129 -126 -272 q-4 -6 -6 -11 q-3 -10 7 -7 q37 7 108 129 q6 13 13 26 q34 73 50 144 q30 9 65 17 q19 6 21 8 q7 7 3 14 q-7 9 -30 13 q-25 4 -48 -8 q-1 0 -2 -1 q9 46 15 92 q69 21 71 24 q6 7 2 13 q-6 7 -28 11 q-21 3 -40 -6 q6 42 9 52 q7 12 2 24 q-10 12 -29 21 q82 33 101 23 q13 -9 15 -52 q6 -298 -34 -392 q-9 -16 -29 -11 q-54 9 -51 12 q-30 7 -6 -18 q31 -34 53 -69 q22 -25 38 -13 q58 39 74 154 q9 88 8 183 q0 162 16 187 q16 22 3 33 q-22 19 -58 28 q-16 7 -37 -2 q-43 -19 -78 -30 q-37 -13 -100 -24 q-19 0 -6 -12 q13 -13 50 -9 q13 -18 10 -90 q-1 -3 -2 -15 q-25 -7 -53 -12 q-27 -7 -6 -18 q21 -9 56 -6 q-4 -48 -13 -94 q-25 -4 -51 -8 q-28 -7 -7 -19 q22 -12 50 -9 ZM704 719 q-27 16 -39 19 q-13 4 -29 -5 q-9 -9 -1 -19 q27 -48 28 -87 q4 -163 -2 -420 q-3 -225 17 -248 q6 -7 13 -5 q18 12 21 70 q9 91 5 183 q-3 51 -3 387 q0 36 12 95 q9 3 19 8 q60 27 73 21 q12 -7 4 -31 q-25 -84 -40 -115 q-6 -12 -5 -19 q0 -13 21 -24 q87 -43 96 -139 q0 -27 -13 -44 q-12 -9 -34 -5 q-34 7 -64 10 q-9 1 -8 -6 q1 -7 17 -19 q63 -45 74 -67 q7 -15 20 -16 q13 -1 28 10 q37 52 42 117 q3 93 -113 170 q-39 19 0 70 q15 28 29 46 q19 31 44 46 q30 19 2 38 q-40 31 -65 41 q-19 6 -34 -5 q-27 -27 -115 -57 Z" /><glyph glyph-name="uni5546" unicode="&#x5546;" d="M449 823 q45 -52 80 -66 q16 -3 26 12 q6 13 3 31 q-7 25 -27 39 q-52 33 -94 27 q-3 0 -4 -1 q-7 -1 -3 -15 q1 -13 19 -27 ZM363 599 q27 -51 54 -70 q13 -6 23 4 q7 10 8 25 q-3 39 -68 71 q-13 7 -22 6 q-4 0 -5 -11 q-1 -10 10 -25 ZM311 444 q3 1 7 2 q162 37 358 64 q19 1 28 -10 q10 -6 15 -56 q15 -171 7 -365 q0 -28 -11 -36 q-10 -9 -67 2 q-19 4 -18 -6 q1 -9 15 -17 q51 -49 76 -85 q24 -22 38 -20 q15 3 28 35 q19 51 19 126 q-16 238 -17 327 q1 43 14 68 q13 22 2 36 q-12 16 -62 43 q-21 10 -41 6 q-48 -15 -139 -35 q4 7 10 13 q21 25 44 56 q10 15 27 32 q16 10 9 23 q-7 19 -36 42 l-1 0 q18 4 39 5 q106 10 244 -2 q22 -1 28 6 q7 13 -4 24 q-30 25 -72 44 q-13 6 -38 -3 q-40 -13 -98 -21 q-259 -31 -417 -56 q-94 -16 -165 -16 q-13 0 -14 -11 q0 -12 18 -25 q16 -12 48 -23 q9 -1 26 5 q105 43 366 69 q7 -7 1 -40 q-13 -43 -44 -104 q-10 -13 -14 -27 q-109 -19 -225 -30 l-2 2 q-31 16 -50 16 q-15 -4 -9 -18 q51 -111 -2 -330 q-7 -25 -18 -44 q-21 -39 11 -86 q1 -1 4 -5 q7 -15 19 -9 q39 27 46 158 q10 226 17 276 ZM397 422 q3 -28 -55 -108 q-15 -13 6 -8 q36 6 110 98 q7 10 4 17 q-4 10 -26 13 q-22 4 -32 0 q-6 -1 -7 -12 ZM574 433 q7 16 -5 26 q-19 16 -39 19 q-12 1 -16 -3 q-4 -4 3 -15 q7 -16 8 -80 q0 -22 13 -35 q13 -19 44 -25 q31 -7 78 -2 q28 3 38 10 q10 9 3 16 q-7 10 -34 24 q-15 6 -28 -4 q-34 -22 -66 -6 q-9 6 -10 24 q-1 31 11 51 ZM438 111 q4 0 10 1 q48 10 152 16 q10 1 11 9 q0 7 -19 20 q19 55 37 71 q22 24 1 38 q-18 10 -43 28 q-18 12 -62 -13 q-31 -10 -105 -25 q-9 6 -41 13 q-10 3 -14 -2 q-6 -4 1 -20 q21 -43 33 -116 q1 -22 15 -36 q15 -21 20 -6 q3 9 4 22 ZM540 165 q-57 -13 -104 -22 q-9 64 -9 87 q6 3 97 19 q27 6 33 -5 q3 -3 -13 -79 q-1 1 -4 0 Z" /><glyph glyph-name="uni5565" unicode="&#x5565;" d="M574 664 q1 -1 5 -5 q91 -108 190 -205 q22 -22 60 -25 q67 -4 139 9 q19 3 20 7 q1 7 -12 13 q-192 69 -262 121 q-34 25 -69 53 q-42 37 -61 52 q37 81 38 82 q-3 10 -18 20 q-16 12 -36 15 q-22 4 -33 1 q-9 -4 -5 -16 q24 -81 -89 -260 q-3 -1 -5 -6 q-33 -49 -120 -148 q-4 6 -17 12 q15 93 40 121 q22 27 -2 40 q-19 10 -47 27 q-19 10 -37 -2 q-36 -22 -118 -40 q-10 6 -37 11 q-12 3 -15 -2 q-7 -6 1 -21 q30 -67 45 -176 q1 -33 20 -55 q16 -21 22 -6 q7 19 3 53 q7 -1 18 1 q37 10 119 20 q7 1 9 9 q73 25 179 167 q4 9 11 17 q27 43 64 116 ZM248 387 q-43 -15 -79 -23 q-18 106 -20 138 q7 1 15 4 q37 9 69 15 q22 4 27 -4 q9 -7 -10 -130 l-2 0 ZM487 -3 q9 -1 20 0 q67 12 215 17 q10 1 13 10 q0 7 -22 24 q27 75 55 94 q16 18 3 36 q-69 57 -129 31 q-28 -9 -57 -16 q10 58 18 113 q76 10 189 12 q54 0 60 9 q4 12 -11 24 q-55 40 -117 18 q-49 -9 -115 -23 q0 1 1 2 q6 34 15 52 q4 9 -12 23 q-12 7 -21 12 q93 22 95 23 q9 7 4 15 q-7 10 -34 17 q-27 4 -54 -6 q-27 -9 -55 -16 q-31 -7 -68 -10 q-34 -6 -9 -21 q28 -15 72 -13 q13 -22 13 -36 q0 -25 0 -52 q-96 -13 -205 -31 q-19 -3 -5 -18 q13 -13 31 -17 q19 -4 34 0 q67 19 144 29 q-1 -52 -7 -113 q-43 -7 -89 -12 q-12 6 -38 11 q-13 4 -16 -1 q-7 -6 1 -22 q25 -52 37 -139 q3 -25 17 -43 q16 -22 23 -7 q4 10 4 24 ZM659 57 q-97 -19 -174 -27 q-10 85 -11 112 q7 1 17 4 q79 10 155 23 q19 4 27 -4 q12 -12 -9 -108 q-3 1 -5 0 Z" /><glyph glyph-name="uni5584" unicode="&#x5584;" d="M379 776 q49 -42 65 -41 q9 1 13 13 q3 13 -7 41 q-9 21 -78 30 q-15 3 -20 0 q-4 -4 -2 -16 q4 -10 29 -27 ZM630 833 q-25 -31 -77 -80 q-7 -7 -2 -14 q7 -3 15 1 q90 46 133 63 q18 3 15 14 q-4 16 -20 37 q-16 19 -38 25 q-15 1 -16 -18 q1 -13 -10 -28 ZM323 362 q27 -45 53 -56 q13 -4 23 7 q7 12 6 27 q-4 22 -19 35 q-49 33 -72 24 q-6 -1 -5 -12 q1 -10 14 -25 ZM611 309 q-37 -3 -71 -8 q1 76 4 142 q87 10 163 17 q25 1 17 16 q-10 16 -36 23 q-34 9 -143 -14 q0 37 2 71 q67 10 125 17 q25 4 17 18 q-12 16 -39 23 q-45 7 -101 -13 q4 42 -1 48 q-12 10 -23 19 q195 30 204 38 q9 7 5 15 q-6 12 -32 19 q-21 6 -116 -18 q-105 -25 -240 -33 q-34 -4 -10 -20 q30 -24 104 -12 q16 3 35 4 q15 -31 16 -72 q-58 -10 -110 -22 q-19 -4 3 -21 q13 -10 43 -7 q33 6 65 9 q0 -28 1 -71 q-97 -12 -184 -24 q-18 -1 2 -20 q19 -15 59 -10 q64 7 123 14 q0 -58 0 -141 q-129 -13 -224 -25 q-109 -16 -191 -15 q-13 0 -15 -11 q-1 -13 18 -27 q40 -33 76 -21 q130 51 515 81 q121 9 282 -9 q24 -3 30 6 q7 13 -5 25 q-28 28 -72 48 q-15 6 -41 -2 q-36 -10 -222 -33 q52 51 83 71 q16 7 11 17 q-7 13 -28 28 q-21 15 -42 14 q-13 -3 -10 -21 q6 -19 -47 -113 ZM397 -22 q9 -1 20 0 q87 13 274 17 q13 0 15 10 q0 7 -21 25 q36 78 68 93 q19 19 6 39 q-16 16 -72 49 q-19 10 -43 3 q-105 -33 -290 -44 q-12 6 -47 10 q-13 3 -16 -3 q-7 -7 3 -23 q31 -57 54 -152 q4 -28 22 -47 q21 -22 25 -5 q3 12 2 28 ZM622 45 q-129 -22 -231 -28 q-19 87 -23 119 q15 0 245 29 q28 4 38 -8 q9 -10 5 -28 q-13 -46 -27 -84 q-4 1 -7 0 Z" /><glyph glyph-name="uni559C" unicode="&#x559c;" d="M483 636 q-76 -9 -135 -17 q-27 -3 -6 -20 q30 -24 58 -18 q102 21 262 39 q10 -1 19 11 q1 10 -21 21 q-27 21 -117 -3 q-9 -1 -15 -4 q3 37 7 71 q67 10 140 19 q70 12 81 20 q10 7 6 17 q-6 13 -35 22 q-31 9 -62 -1 q-61 -16 -126 -31 l2 14 q9 46 13 52 q3 10 -17 25 q-34 18 -57 22 q-16 4 -24 -5 q-7 -7 1 -22 q16 -21 21 -96 q-90 -12 -189 -15 q-37 -4 -13 -23 q42 -24 120 -16 q40 6 85 11 q1 -34 2 -73 ZM330 327 q15 -19 30 -41 q10 -13 25 -15 q10 -1 16 10 q7 13 2 41 q-1 15 -24 29 q-57 27 -67 24 q-4 -3 -5 -15 q1 -10 23 -33 ZM569 272 q-177 -16 -295 -31 q-106 -15 -184 -13 q-13 0 -15 -11 q-1 -13 18 -27 q39 -31 76 -21 q132 48 497 74 q118 9 272 -10 q24 -3 30 6 q7 13 -5 25 q-28 28 -72 48 q-15 6 -40 -2 q-18 -4 -241 -33 q4 7 13 15 q18 16 38 38 q9 10 23 22 q18 9 11 22 q-7 19 -34 45 q-1 1 -3 2 q12 3 25 3 q10 1 12 9 q0 7 -19 21 q25 36 49 46 q18 16 6 34 q-60 60 -108 45 q-126 -42 -287 -51 q-4 1 -8 0 q-9 1 -19 2 q-12 1 -14 -3 q-6 -7 4 -21 q25 -34 46 -96 q6 -18 19 -29 q19 -19 22 -3 q1 7 1 16 q7 -1 17 0 q73 16 217 25 q0 -1 2 -6 q6 -27 -38 -113 q-12 -15 -16 -28 ZM381 425 q-13 54 -16 73 q3 1 10 3 q115 16 226 35 q28 6 40 -7 q6 -10 -19 -67 q-135 -27 -241 -37 ZM404 -37 q96 15 297 22 q10 0 13 9 q0 9 -28 30 q34 72 65 89 q19 19 5 39 q-16 16 -71 46 q-18 10 -42 3 q-100 -34 -288 -54 q-12 4 -44 9 q-13 1 -16 -4 q-7 -7 4 -23 q33 -58 56 -154 q4 -30 23 -48 q21 -22 25 -5 q4 16 1 41 ZM397 -1 q-19 85 -24 114 q4 1 239 37 q28 6 40 -7 q12 -13 -22 -113 q-130 -22 -233 -31 Z" /><glyph glyph-name="uni5668" unicode="&#x5668;" d="M304 598 q7 -1 17 2 q39 10 126 23 q10 1 10 10 q0 6 -16 16 q22 69 44 88 q22 22 1 36 q-18 10 -41 28 q-16 10 -34 0 q-51 -31 -146 -48 q-13 4 -36 7 q-12 3 -14 -3 q-6 -6 3 -21 q25 -46 44 -126 q4 -25 18 -40 q18 -19 22 -5 q4 13 2 33 ZM384 654 q-48 -16 -85 -25 q-16 81 -17 100 q54 13 99 26 q30 7 37 -5 q6 -6 -3 -35 q-9 -27 -19 -58 q-7 -1 -12 -3 ZM612 627 q10 -1 20 1 q45 10 141 16 q10 1 11 9 q0 7 -23 22 q22 67 47 85 q22 22 2 36 q-16 12 -40 30 q-16 10 -34 2 q-46 -27 -157 -41 q-10 4 -37 9 q-10 1 -14 -3 q-4 -6 3 -19 q24 -43 41 -116 q4 -22 17 -36 q16 -19 21 -5 q1 4 2 10 ZM712 680 q-55 -13 -101 -22 q-9 24 -18 103 q12 6 109 22 q31 7 38 -6 q6 -6 -26 -97 l-2 0 ZM492 449 q177 -177 225 -187 q7 0 18 -1 q66 1 132 20 q16 4 18 8 q1 7 -13 11 q-45 13 -97 25 q-112 28 -256 133 q-1 1 -2 1 q61 13 223 28 q10 -1 20 11 q1 12 -21 22 q-31 24 -98 4 q-99 -18 -134 -28 q10 33 19 41 q10 13 1 23 q-12 15 -39 23 q-19 10 -39 6 q-13 -4 -7 -19 q18 -30 4 -85 q-189 -18 -201 -21 q-28 -1 -7 -20 q28 -28 61 -21 q61 13 135 23 q-45 -111 -178 -167 q-39 -15 -88 -30 q-18 -9 3 -11 q120 -10 216 56 q64 49 105 155 ZM775 567 q22 -16 47 -36 q13 -10 27 -8 q9 1 12 13 q3 13 -8 38 q-6 16 -32 24 q-60 18 -73 9 q-4 -4 -2 -15 q4 -10 29 -25 ZM266 20 q-1 1 2 1 q52 12 165 23 q10 1 11 9 q0 7 -26 24 q19 64 42 83 q22 22 1 38 q-18 12 -43 30 q-16 10 -36 1 q-52 -27 -153 -41 q-12 4 -37 8 q-12 4 -15 -2 q-7 -6 2 -22 q25 -49 43 -129 q3 -24 18 -40 q18 -22 23 -6 q3 10 3 23 ZM263 54 q-13 84 -16 107 q1 3 103 20 q30 6 36 -6 q6 -6 -18 -98 q-58 -13 -105 -23 ZM606 31 q7 -1 18 0 q52 10 168 17 q10 1 11 9 q0 7 -26 26 q21 61 42 80 q24 24 2 39 q-19 13 -44 31 q-18 12 -37 2 q-46 -25 -166 -43 q-10 4 -31 9 q-10 3 -14 -2 q-6 -6 1 -20 q22 -49 36 -128 q1 -25 16 -40 q15 -21 20 -6 q4 10 4 26 ZM603 61 q-12 79 -12 103 q63 12 115 21 q31 6 38 -7 q3 -3 -18 -94 q-70 -13 -123 -23 Z" /><glyph glyph-name="uni56DE" unicode="&#x56de;" d="M441 318 q7 -1 18 1 q51 10 160 15 q10 1 12 10 q0 7 -17 19 q22 72 46 92 q25 27 2 43 q-21 13 -49 35 q-19 13 -41 1 q-48 -24 -156 -39 q-10 7 -47 13 q-10 3 -14 -2 q-6 -6 2 -21 q25 -51 42 -136 q3 -25 18 -42 q16 -21 21 -6 q3 7 3 17 ZM555 374 q-64 -15 -116 -23 q0 3 0 5 q-13 76 -17 107 q45 7 116 17 q31 4 37 -8 q7 -6 0 -35 q-7 -30 -14 -63 q-3 1 -6 0 ZM199 651 q-22 13 -46 19 q-10 4 -16 -3 q-10 -7 2 -22 q72 -129 69 -416 q1 -75 48 -116 q1 0 4 -2 q22 -7 24 33 q0 3 0 5 q9 -1 20 0 q129 22 401 30 q13 -31 40 -87 q10 -22 23 -20 q19 3 31 35 q51 100 57 235 q10 85 18 183 q7 63 37 102 q22 25 6 43 q-28 28 -89 55 q-25 13 -67 -2 q-121 -37 -260 -56 q-121 -13 -302 -16 ZM273 234 q-30 264 -31 364 q36 12 478 61 q52 4 71 -17 q15 -10 14 -47 q-4 -180 -41 -354 q-4 -31 -16 -33 q-4 -3 -26 8 q-25 25 -70 17 q-205 -34 -371 -43 q-3 22 -8 44 Z" /><glyph glyph-name="uni56E0" unicode="&#x56e0;" d="M539 376 q46 -45 101 -110 q13 -19 26 -23 q7 -1 15 7 q10 12 1 50 q-7 48 -142 103 q-7 4 -9 -6 q-1 -12 8 -21 ZM513 479 q153 36 158 39 q7 7 4 15 q-7 10 -33 18 q-27 4 -120 -27 q9 63 18 91 q7 19 -12 31 q-45 28 -60 27 q-19 -1 -6 -25 q15 -30 2 -138 q-54 -10 -112 -16 q-33 -6 -9 -21 q36 -18 101 -7 q6 1 14 2 q-22 -133 -136 -222 q-15 -12 -19 -17 q-1 -7 9 -8 q34 -3 97 50 q70 63 104 208 ZM253 76 q144 24 449 28 q40 -49 67 -93 q10 -21 23 -20 q19 1 37 40 q19 43 16 98 q-12 183 -17 520 q-1 39 19 66 q10 16 -1 29 q-24 25 -89 53 q-22 12 -42 0 q-97 -36 -244 -55 q-139 -16 -204 -17 q-16 16 -42 26 q-12 6 -25 1 q-9 -6 -3 -20 q24 -88 26 -106 q0 -333 -29 -462 q-27 -87 17 -141 q12 -16 25 -2 q16 19 16 45 q0 4 1 10 ZM705 152 q-19 13 -56 7 q-217 -33 -392 -41 q1 28 3 63 q15 465 19 496 q0 3 0 4 q31 0 382 54 q58 9 85 -15 q18 -16 27 -150 q7 -127 -1 -294 q0 -111 -10 -144 q-6 -22 -26 -12 q-4 10 -31 32 Z" /><glyph glyph-name="uni56E2" unicode="&#x56e2;" d="M520 495 q-57 -124 -217 -256 q-12 -13 -3 -14 q9 -4 21 2 q111 43 209 188 q19 27 27 38 q0 -186 -13 -195 q-7 -4 -83 16 q-10 3 -10 -3 q0 -7 10 -14 q66 -60 88 -96 q13 -16 27 -3 q30 30 32 108 q-4 54 -5 245 q40 7 76 13 q10 -1 19 11 q0 10 -21 20 q-34 19 -75 3 q0 42 10 70 q7 16 -7 28 q-24 19 -51 28 q-16 6 -23 -1 q-6 -6 4 -20 q21 -33 21 -117 q-16 -3 -31 -8 q-7 0 -186 -35 q-27 -4 -5 -20 q33 -24 58 -16 q55 15 128 28 ZM243 44 q9 0 17 1 q148 25 457 31 q28 -34 50 -79 q10 -24 26 -23 q13 1 23 23 q31 51 11 243 q-18 414 1 445 q3 6 8 10 q10 13 11 23 q-1 13 -34 36 q-58 42 -101 27 q-21 -3 -55 -9 q-153 -13 -337 -42 q-31 -3 -59 -3 q-7 7 -35 21 q-12 6 -25 1 q-7 -6 -2 -20 q24 -88 26 -121 q-1 -4 0 -9 q12 -280 -36 -451 q-18 -64 23 -114 q12 -15 24 -1 q4 6 7 11 ZM725 124 q-19 13 -57 7 q-231 -37 -416 -45 q7 37 7 103 q15 457 19 486 q1 4 1 9 q237 46 427 54 q25 1 31 -11 q22 -27 24 -312 q0 -132 4 -244 q3 -43 -11 -75 q-7 10 -29 28 Z" /><glyph glyph-name="uni56FD" unicode="&#x56fd;" d="M483 246 q-76 -13 -164 -28 q-19 -3 -4 -19 q13 -13 31 -17 q21 -4 36 0 q117 33 290 35 q15 -1 29 0 q19 0 23 9 q4 12 -11 24 q-57 40 -123 18 q-28 -6 -65 -14 q1 69 5 128 q15 4 32 6 q40 4 72 8 q10 -1 19 11 q1 10 -21 21 q-25 19 -101 -1 q3 106 4 107 q-12 12 -21 20 q150 34 153 36 q7 7 4 15 q-7 10 -33 18 q-24 4 -122 -25 q-78 -18 -140 -24 q-33 -6 -9 -21 q33 -21 92 -9 q4 1 11 1 q12 -18 13 -129 q-33 -6 -61 -10 q-28 -3 -58 -7 q-27 -3 -6 -20 q34 -24 58 -17 q31 7 67 12 q0 -51 0 -128 ZM672 345 q25 -21 50 -46 q10 -10 23 -9 q9 0 12 11 q4 10 -3 34 q-4 16 -30 29 q-57 24 -72 19 q-4 -4 -3 -14 q3 -7 23 -24 ZM250 44 q6 0 14 1 q156 25 487 31 q21 -21 48 -72 q10 -24 26 -22 q13 1 22 23 q30 57 5 242 q-30 414 -11 438 q3 7 8 12 q12 15 11 23 q-1 13 -35 36 q-58 39 -101 25 q-21 -4 -56 -11 q-151 -16 -333 -47 q-28 -3 -53 -3 q-12 21 -49 35 q-12 7 -25 2 q-10 -6 -3 -21 q24 -88 26 -125 q-1 -3 0 -9 q7 -294 -42 -465 q-19 -69 22 -118 q12 -16 25 -2 q10 13 14 27 ZM753 124 q-19 13 -56 7 q-246 -37 -442 -45 q4 37 6 92 q19 448 24 498 q12 0 29 6 q13 4 136 24 q151 24 268 31 q25 1 31 -11 q25 -25 33 -325 q7 -181 10 -224 q4 -60 -12 -79 q-7 10 -27 26 Z" /><glyph glyph-name="uni5728" unicode="&#x5728;" d="M274 279 q0 -120 -24 -212 q-10 -45 24 -96 q1 0 3 -3 q18 -16 30 11 q15 40 14 87 q1 211 8 258 q4 19 2 31 q84 132 126 238 q114 22 231 43 q75 16 86 25 q10 9 5 18 q-7 13 -39 22 q-31 7 -65 -5 q-85 -28 -177 -49 q-13 -1 -22 -5 q36 87 60 120 q10 10 3 22 q-13 24 -47 51 q-19 16 -40 16 q-24 -1 -12 -25 q19 -40 10 -73 q-19 -66 -41 -123 q-64 -9 -133 -15 q-40 -4 -12 -24 q36 -22 125 -11 q-31 -75 -94 -183 q-13 15 -30 22 q-10 1 -14 -5 q-7 -15 13 -57 q0 -1 2 -6 q-9 -10 -16 -23 q-73 -102 -198 -195 q-15 -6 -18 -10 q-4 -7 13 -9 q27 -4 142 81 q3 3 85 84 ZM579 128 q-97 -10 -209 -24 q-22 -3 -6 -21 q15 -15 34 -21 q22 -6 40 -1 q129 33 404 32 q13 0 30 -1 q22 0 27 9 q6 13 -12 28 q-63 48 -114 30 q-60 -10 -151 -25 q4 93 9 179 q157 39 164 44 q10 10 5 18 q-9 13 -40 20 q-25 4 -127 -29 q4 64 18 120 q4 12 -17 26 q-36 19 -60 23 q-16 3 -24 -6 q-7 -7 1 -22 q24 -34 24 -58 q3 -48 5 -99 q-61 -13 -130 -22 q-40 -7 -11 -25 q48 -24 107 -8 q15 4 35 7 q1 -82 -2 -174 Z" /><glyph glyph-name="uni5730" unicode="&#x5730;" d="M258 224 q-60 -25 -122 -55 q-16 -9 -46 -12 q-13 -4 -13 -14 q0 -15 11 -21 q25 -13 62 -27 q12 -1 22 10 q21 21 175 128 q21 13 35 29 q12 10 11 19 q-9 4 -91 -35 q3 99 5 190 q84 31 87 34 q7 9 2 16 q-7 10 -35 13 q-28 1 -53 -12 q3 138 19 201 q3 12 -19 27 q-37 19 -64 23 q-18 3 -25 -6 q-9 -9 1 -24 q30 -42 30 -70 q6 -84 8 -174 q-94 -30 -122 -37 q-33 -10 -7 -22 q39 -13 106 8 q10 4 24 7 q1 -93 -1 -196 ZM452 352 q-1 -148 17 -199 q9 -36 41 -66 q105 -85 326 -55 q25 6 53 13 q55 18 109 59 q21 18 5 45 q-16 37 -37 148 q-1 16 -9 21 q-7 3 -10 -15 q-22 -118 -41 -156 q-42 -63 -210 -53 q-64 4 -115 28 q-46 24 -61 54 q-31 57 -20 204 q37 22 93 51 q-4 -79 -11 -141 q0 -31 8 -54 q6 -13 16 -6 q18 19 28 155 q1 37 5 71 q48 28 112 61 q19 7 25 -4 q9 -15 -28 -174 q-7 -46 -38 -33 q-19 4 -37 8 q-13 1 -10 -7 q6 -10 67 -64 q22 -25 39 -4 q36 46 45 110 l20 120 q9 37 37 69 q13 16 -5 28 q-19 10 -70 18 q-19 4 -33 -10 q-25 -24 -121 -81 q15 246 25 284 q10 22 -3 35 q-16 16 -47 31 q-24 10 -49 0 q-13 -9 2 -26 q7 -16 15 -27 q10 -19 14 -74 q6 -105 -3 -247 q-40 -21 -86 -42 q-4 -1 -7 -3 q4 43 10 87 q4 19 -9 29 q-13 15 -39 23 q-15 4 -23 -2 q-7 -4 -1 -23 q16 -42 12 -137 q-63 -25 -100 -41 q-13 -1 -14 -12 q-1 -7 42 -18 q27 -7 48 8 q7 6 23 14 Z" /><glyph glyph-name="uni5740" unicode="&#x5740;" d="M257 217 q-60 -25 -123 -55 q-19 -9 -52 -13 q-13 -4 -14 -15 q0 -15 11 -23 q28 -13 68 -29 q12 -1 24 10 q24 27 199 141 q24 15 39 32 q13 10 12 21 q-12 6 -118 -48 q4 103 8 199 q25 9 54 16 q31 10 36 14 q9 9 3 17 q-7 12 -38 17 q-28 4 -53 -8 q3 124 22 191 q3 13 -18 30 q-40 21 -66 25 q-19 3 -27 -7 q-9 -7 1 -25 q28 -40 29 -69 q4 -79 6 -166 q-87 -24 -121 -29 q-37 -9 -9 -24 q48 -21 102 -3 q12 4 29 7 q0 -97 -4 -206 ZM492 120 q-72 -6 -146 -13 q-22 -1 -7 -20 q15 -15 33 -21 q22 -7 38 -2 q186 45 490 36 q22 0 44 -1 q21 -1 26 8 q6 12 -11 27 q-54 42 -92 34 q-70 -13 -182 -28 q6 159 9 307 q39 -12 103 3 q33 9 70 17 q19 4 22 8 q9 9 3 17 q-7 12 -38 17 q-27 3 -102 -23 q-27 -7 -57 -11 q3 138 26 244 q4 13 -21 32 q-43 22 -74 27 q-19 4 -30 -7 q-9 -10 2 -28 q36 -52 36 -87 q13 -241 0 -521 q-48 -3 -99 -11 q-15 253 -6 319 q3 25 -13 37 q-24 19 -53 30 q-16 6 -25 -1 q-9 -7 -2 -23 q25 -49 36 -101 q7 -52 20 -265 Z" /><glyph glyph-name="uni575B" unicode="&#x575b;" d="M258 280 q-139 -51 -175 -53 q-15 -3 -16 -14 q-1 -13 10 -22 q25 -16 63 -33 q10 -3 23 8 q36 33 185 114 q22 12 37 26 q13 9 13 19 q-7 6 -19 2 q-37 -15 -77 -31 q6 108 10 209 q82 24 89 30 q9 9 3 17 q-7 12 -38 17 q-28 3 -52 -8 q3 114 24 194 q4 12 -18 28 q-37 19 -64 24 q-18 4 -26 -6 q-7 -7 1 -24 q28 -43 29 -71 q3 -79 4 -165 q-60 -21 -129 -34 q-37 -10 -9 -24 q45 -19 100 -3 q18 6 38 11 q-1 -100 -6 -211 ZM518 622 q-42 -7 -11 -26 q45 -25 111 -7 q69 16 141 33 q33 9 37 14 q10 10 4 19 q-9 13 -42 20 q-34 4 -68 -10 q-36 -13 -76 -25 q-45 -10 -96 -18 ZM784 176 q54 -105 62 -110 q9 -4 20 4 q16 10 17 58 q1 45 -66 112 q-54 54 -85 80 q-7 7 -14 -4 q-4 -13 3 -27 q24 -40 49 -88 q-118 -16 -245 -44 q-13 -4 -17 -1 q-3 4 4 16 q112 168 138 196 q12 10 5 23 q-6 10 -42 27 q60 25 293 25 q21 0 27 9 q4 13 -12 26 q-55 36 -92 26 q-121 -30 -425 -81 q-22 -3 -5 -20 q25 -24 82 -13 q39 13 83 19 q0 -3 2 -7 q21 -66 -98 -218 q-22 -21 -51 -42 q-25 -24 22 -62 q12 -10 25 1 q54 42 320 95 Z" /><glyph glyph-name="uni57FA" unicode="&#x57fa;" d="M555 371 q3 -4 9 -10 q94 -111 198 -211 q25 -25 66 -25 q75 -4 153 12 q19 1 21 8 q3 7 -14 13 q-51 19 -111 37 q-118 39 -285 175 l-2 2 q70 4 159 1 q66 -3 73 7 q6 12 -10 26 q-54 43 -125 26 q-36 -6 -80 -14 q10 142 17 271 q127 30 129 30 q10 7 5 17 q-7 13 -35 21 q-30 7 -94 -12 q4 34 19 83 q3 12 -17 27 q-37 19 -62 25 q-16 4 -25 -5 q-7 -9 0 -24 q25 -39 26 -66 q1 -27 1 -55 q-100 -21 -170 -33 q1 31 5 44 q4 25 -11 39 q-24 19 -53 31 q-15 6 -25 0 q-7 -7 -2 -23 q21 -48 31 -98 q-43 -1 -86 -5 q-37 -4 -12 -23 q45 -27 99 -16 q1 1 4 0 q3 -73 5 -259 q-82 -7 -171 -17 q-21 -1 -6 -19 q13 -15 32 -20 q21 -6 37 -2 q34 9 71 15 q0 -69 -122 -186 q-3 -1 -5 -4 q-37 -33 -126 -95 q-7 -4 2 -8 q58 0 172 91 q90 91 133 140 q9 10 15 15 q7 4 7 14 q0 9 -10 21 q-10 12 -24 19 q93 18 194 20 ZM481 402 q-40 -4 -82 -10 q-1 36 -2 67 q72 9 126 17 q22 4 14 16 q-10 15 -36 19 q-39 4 -104 -22 q0 33 0 62 q1 0 4 0 q73 12 126 18 q22 4 14 16 q-10 13 -34 18 q-30 3 -110 -25 q0 57 2 75 q85 15 173 27 q0 -126 -9 -268 q-39 -4 -82 -10 ZM452 35 q-106 -7 -227 -18 q-21 -1 -6 -19 q13 -13 30 -19 q19 -7 36 -3 q193 42 452 22 q19 0 24 8 q6 10 -9 25 q-54 42 -113 29 q-58 -7 -144 -20 q3 54 7 102 q111 21 116 25 q10 7 5 17 q-7 12 -37 20 q-33 6 -80 -12 q1 36 8 50 q10 16 -2 29 q-31 24 -56 30 q-13 3 -25 -7 q-3 -4 11 -35 q0 -6 5 -81 q-37 -4 -77 -8 q-37 -6 -11 -24 q42 -21 90 -15 q1 -46 3 -96 Z" /><glyph glyph-name="uni5806" unicode="&#x5806;" d="M250 316 q-64 -25 -132 -55 q-19 -9 -54 -12 q-13 -3 -15 -15 q-1 -15 11 -22 q28 -16 67 -32 q12 -1 24 9 q39 39 212 140 q25 16 42 32 q13 10 13 21 q-7 4 -20 1 q-49 -22 -103 -48 q4 100 8 195 q19 7 42 12 q28 9 32 13 q9 9 3 17 q-7 12 -38 17 q-19 3 -37 -2 q0 57 21 172 q4 12 -18 28 q-37 19 -64 24 q-18 3 -26 -6 q-7 -9 1 -25 q28 -40 29 -69 q4 -70 5 -145 q-75 -22 -122 -31 q-37 -10 -9 -24 q42 -18 132 6 q0 -96 -4 -201 ZM697 730 q18 -18 36 -40 q13 -15 30 -15 q12 0 18 14 q6 15 -2 47 q-4 16 -30 28 q-61 25 -77 19 q-6 -4 -5 -17 q4 -12 30 -36 ZM686 196 q-78 -10 -164 -26 q3 241 13 303 q7 30 -6 44 q-36 42 -47 49 q54 66 108 154 q21 39 39 58 q10 10 4 25 q-4 13 -35 36 q-28 19 -49 17 q-19 -1 -10 -25 q13 -25 4 -47 q-25 -75 -66 -145 q-40 -67 -95 -143 q-10 -10 -12 -17 q-4 -12 11 -9 q13 3 73 62 q27 -76 30 -84 q0 -7 1 -15 q0 -213 -38 -362 q-13 -46 22 -98 q1 -4 6 -8 q19 -18 32 12 q13 39 15 162 q30 -12 52 -6 q132 36 362 36 q19 0 24 9 q4 10 -11 24 q-55 39 -109 23 q-45 -9 -109 -22 q1 61 3 117 q57 10 107 17 q25 4 16 18 q-12 16 -40 22 q-30 6 -82 -12 q1 40 3 77 q52 9 99 15 q25 4 16 18 q-12 16 -40 22 q-25 4 -72 -8 q-1 0 -2 -1 q0 3 1 5 q3 54 0 60 q-10 10 -23 19 q151 39 155 41 q7 7 3 16 q-7 10 -35 17 q-21 4 -122 -28 q-72 -18 -134 -26 q-34 -7 -9 -22 q39 -24 96 -8 q9 -15 15 -89 q-48 -10 -90 -22 q-19 -4 4 -21 q6 -4 86 4 q0 -33 0 -82 q-55 -13 -102 -25 q-19 -4 4 -21 q13 -9 38 -4 q28 6 60 10 q0 -49 0 -116 Z" /><glyph glyph-name="uni5899" unicode="&#x5899;" d="M438 528 q21 -22 42 -49 q10 -10 23 -12 q9 -1 14 10 q6 12 1 36 q-3 18 -28 32 q-55 30 -70 26 q-4 -3 -4 -14 q1 -9 22 -29 ZM728 601 q-21 -34 -65 -89 q-4 -7 0 -13 q7 -1 14 3 q81 58 120 81 q16 4 13 15 q-6 15 -24 32 q-19 16 -39 18 q-15 -1 -13 -19 q1 -13 -6 -28 ZM576 433 q-112 -15 -236 -32 q-21 -1 -5 -18 q13 -13 31 -18 q19 -6 36 -1 q192 54 513 53 q19 0 24 9 q6 10 -11 24 q-51 37 -87 29 q-82 -18 -225 -40 q7 111 11 213 q46 10 96 18 q45 10 51 16 q9 7 5 15 q-7 10 -33 18 q-28 6 -55 -4 l-62 -20 q0 24 17 101 q4 10 -16 25 q-34 18 -58 22 q-16 3 -24 -5 q-7 -7 1 -22 q24 -34 24 -57 q1 -37 3 -77 q-58 -10 -123 -16 q-34 -6 -10 -21 q30 -19 104 -8 q13 3 30 5 q1 -99 -1 -209 ZM560 128 q7 -1 15 0 q61 9 106 13 q18 3 12 13 q-4 7 -13 10 q13 46 29 60 q18 21 -1 32 q-15 9 -36 22 q-15 9 -52 -12 q-18 -7 -80 -22 q-10 4 -31 8 q-10 3 -13 -1 q-4 -4 2 -18 q18 -36 29 -94 q1 -18 12 -30 q13 -16 18 -5 q4 9 3 24 ZM615 164 q-31 -10 -56 -18 q-7 58 -8 76 q19 4 74 17 q19 4 23 -4 q3 -3 -8 -67 q-12 0 -25 -4 ZM474 30 q4 0 10 1 q73 15 228 23 q9 -22 30 -67 q7 -16 17 -15 q13 3 23 26 q24 49 40 186 q10 99 31 125 q16 19 5 31 q-22 21 -66 40 q-18 9 -48 -3 q-114 -40 -324 -60 q-19 13 -41 18 q-7 3 -11 -2 q-7 -6 1 -17 q42 -70 46 -227 q1 -58 36 -87 q1 -1 4 -3 q18 -6 19 25 l0 6 ZM712 92 q-15 9 -44 3 q-109 -22 -197 -33 q-1 15 -6 31 q-13 102 -16 187 q4 0 10 1 q103 22 267 48 q28 4 41 -9 q22 -40 -13 -229 q-1 -16 -10 -19 q-1 -1 -9 1 q-7 9 -23 19 ZM231 299 q-60 -22 -124 -48 q-16 -7 -42 -8 q-13 -3 -14 -13 q-1 -13 10 -21 q24 -13 58 -28 q10 -1 22 8 q19 21 164 109 q19 12 33 25 q12 9 11 18 q-6 4 -18 1 q-28 -12 -58 -25 q4 85 8 166 q87 27 88 28 q7 9 3 17 q-7 12 -38 17 q-28 4 -51 -6 q1 88 20 175 q4 12 -17 26 q-34 19 -60 23 q-16 3 -24 -6 q-7 -7 1 -22 q25 -37 27 -64 q4 -73 5 -151 q-121 -27 -128 -29 q-37 -9 -9 -24 q42 -21 102 -4 q15 4 35 8 q-1 -82 -4 -172 Z" /><glyph glyph-name="uni5907" unicode="&#x5907;" d="M370 2 l18 0 q117 13 207 20 q1 -1 4 -4 q22 -34 42 -42 q12 -7 27 16 q16 33 43 206 l0 0 q9 34 34 62 q13 13 1 28 q-16 18 -64 45 q-18 9 -103 -10 q-3 0 -159 -24 q-61 -10 -111 -18 q-12 7 -24 11 q135 73 237 182 q219 -180 283 -180 q6 0 146 41 q15 4 28 14 q7 10 -8 16 q-19 4 -161 16 q-103 7 -264 122 q43 55 90 124 q18 25 44 42 q15 7 16 15 q0 13 -27 31 q-33 24 -47 25 q-10 0 -22 -7 q-67 -21 -179 -41 q1 1 3 3 q25 34 46 49 q10 10 7 23 q-1 13 -27 38 q-22 21 -41 22 q-19 1 -13 -21 q9 -25 -3 -46 q-36 -67 -86 -127 q-49 -58 -113 -120 q-10 -9 -14 -15 q-4 -10 9 -9 q60 9 206 173 q67 -9 165 23 q19 4 27 -2 q4 -4 -16 -47 q-25 -52 -65 -104 q-28 22 -57 46 q-28 24 -70 24 q-12 0 -19 -8 q-3 -7 7 -13 q48 -21 117 -75 q-139 -165 -357 -238 q-10 -3 -9 -8 q0 -4 8 -5 q42 -3 130 23 q40 -63 51 -211 q1 -61 40 -89 q1 -1 4 -3 q19 -4 19 27 ZM594 57 q-43 9 -81 -7 q1 46 2 88 q43 7 83 11 q22 4 15 16 q-10 13 -34 19 q-22 4 -61 -6 q-3 0 -2 -1 q3 94 -5 99 l-2 2 q37 7 82 11 q37 4 48 -9 q16 -19 15 -38 q-21 -168 -38 -196 q-7 7 -22 11 ZM368 29 q-3 21 -10 44 q-3 31 -9 72 q-7 55 -9 99 q0 3 -1 5 q49 13 121 22 q4 -15 8 -105 q-43 -9 -81 -18 q-16 -3 3 -18 q7 -4 80 3 q0 -37 1 -89 q-54 -7 -103 -15 Z" /><glyph glyph-name="uni590D" unicode="&#x590d;" d="M379 725 q1 0 4 -2 q42 -27 105 -11 q229 48 243 57 q10 9 4 18 q-7 13 -39 21 q-30 6 -127 -27 q-81 -22 -174 -33 q16 25 35 44 q10 13 -3 28 q-40 36 -69 34 q-10 -1 -10 -17 q9 -90 -106 -206 q-16 -15 -24 -27 q-10 -15 6 -11 q16 1 40 17 q72 49 114 113 q0 1 1 2 ZM546 67 q46 -46 164 -135 q40 -24 211 17 q40 9 35 20 q-1 4 -41 14 q-216 37 -309 103 q-13 9 -27 18 q40 54 78 130 q16 30 39 48 q22 15 9 31 q-13 13 -45 29 q-25 10 -101 -18 q-87 -18 -123 -24 q9 15 24 25 q7 4 7 14 q0 9 -10 21 q-22 22 -43 27 q1 4 2 10 q4 0 10 0 q100 13 174 21 q16 -25 33 -33 q10 -9 26 14 q15 22 45 146 q10 31 33 57 q13 13 3 27 q-16 16 -59 44 q-16 9 -94 -9 q-30 0 -204 -38 q-10 6 -38 12 q-13 4 -16 -2 q-7 -6 1 -22 q28 -69 40 -178 q0 -39 21 -60 q4 -69 -126 -196 q-3 -1 -5 -4 q-37 -34 -130 -97 q-7 -4 2 -8 q61 0 183 100 q22 22 47 46 q85 -57 147 -114 q-85 -90 -279 -135 q-16 -3 -4 -13 q7 -4 63 -2 q70 4 150 42 q61 28 107 72 ZM459 198 q-43 37 -79 34 q-3 0 -5 -1 q18 21 41 45 q42 -16 96 -2 q61 21 71 20 q21 -3 14 -25 q-22 -78 -62 -134 q-37 30 -76 63 ZM594 452 q-22 4 -178 -29 q0 10 -1 21 q-4 25 -6 47 q1 0 5 0 q91 16 157 26 q22 4 14 16 q-10 13 -34 18 q-24 3 -146 -34 q-7 55 -7 77 q75 21 203 38 q28 4 40 -5 q13 -10 9 -29 q-24 -139 -44 -150 q-6 3 -12 4 Z" /><glyph glyph-name="uni591A" unicode="&#x591a;" d="M358 645 q4 -7 18 -23 q19 -21 39 -46 q9 -10 21 -12 q7 -1 13 9 q6 10 2 34 q-3 16 -25 31 q-21 10 -46 20 q40 27 103 89 q27 -24 114 -8 q19 1 25 -7 q3 -7 -13 -27 q-99 -148 -354 -304 q-16 -10 -1 -13 q93 0 286 160 q3 4 8 7 q61 52 122 119 q24 27 63 51 q18 10 13 20 q-1 10 -61 43 q-15 12 -70 -9 q-100 -12 -113 -13 q19 19 39 37 q13 10 2 27 q-33 42 -59 44 q-12 0 -12 -14 q-12 -106 -151 -199 q-10 0 -57 -38 q-12 -13 4 -11 q19 0 90 33 ZM375 270 q0 -3 85 -95 q10 -13 25 -13 q10 -1 16 11 q6 13 0 41 q-6 33 -101 70 q99 75 124 97 q40 -21 122 7 q25 4 35 -3 q7 -7 -23 -62 q-129 -259 -465 -370 q-12 -3 -11 -9 q0 -6 9 -6 q28 -4 92 10 q61 13 127 48 q79 40 159 115 q79 73 165 200 q22 30 54 47 q19 7 20 18 q1 15 -29 38 q-37 31 -54 33 q-13 0 -26 -7 q-30 -10 -147 -31 q36 37 54 52 q10 10 8 20 q-1 12 -25 21 q-25 10 -38 9 q-7 -1 -10 -13 q-30 -93 -256 -247 q-21 -13 5 -11 q34 3 85 30 Z" /><glyph glyph-name="uni591F" unicode="&#x591f;" d="M334 118 q-13 -4 -85 9 q-10 3 -9 -3 q-1 -4 11 -12 q43 -39 62 -68 q10 -18 23 -16 q19 -1 38 19 q67 55 86 199 q13 97 19 243 q0 34 21 59 q13 15 11 23 q-1 7 -21 20 q-28 19 -64 28 q-22 6 -83 -18 q-4 0 -9 -3 q-57 -18 -116 -36 q42 57 85 143 q16 37 32 55 q9 12 2 24 q-4 12 -35 31 q-27 15 -45 12 q-18 -4 -8 -24 q13 -22 8 -43 q-19 -70 -52 -137 q-31 -64 -78 -137 q-7 -10 -10 -17 q-1 -10 11 -7 q21 6 75 78 q96 13 193 27 q7 1 10 -2 q21 -39 3 -264 q-15 -96 -41 -148 q-15 -33 -34 -35 ZM167 266 q6 0 14 2 q37 10 118 23 q10 1 10 10 q0 7 -22 18 q18 73 39 95 q22 24 0 37 q-19 10 -44 27 q-16 9 -61 -15 q-51 -18 -88 -27 q-10 4 -30 9 q-10 3 -14 -1 q-6 -6 1 -20 q24 -57 35 -147 q1 -28 17 -46 q15 -21 20 -6 q6 15 5 41 ZM236 322 q-42 -15 -73 -24 q-13 90 -13 113 q4 1 11 3 q37 9 67 16 q21 4 26 -4 q7 -6 0 -36 q-7 -31 -14 -67 q-3 0 -4 -1 ZM589 573 q3 -4 10 -13 q43 -57 51 -58 q7 -1 12 7 q4 9 3 28 q-3 21 -60 52 q7 9 16 17 q19 21 39 46 q10 -9 39 -3 q48 15 52 8 q3 -12 -15 -52 q-16 -45 -67 -103 q-49 -64 -131 -123 q-24 -13 -4 -13 q99 0 237 190 q42 76 63 90 q12 10 6 22 q-4 10 -56 33 q-12 6 -34 -5 q-24 -12 -74 -24 q36 54 53 69 q9 7 5 20 q-3 10 -27 31 q-22 16 -38 17 q-16 -1 -9 -20 q12 -36 -54 -138 q-31 -49 -76 -101 q-9 -9 -10 -14 q-4 -9 8 -7 q7 1 61 44 ZM617 268 q3 -6 12 -16 q25 -31 52 -66 q7 -10 19 -13 q7 -1 14 8 q4 10 3 32 q-1 21 -28 41 q-25 16 -54 30 q31 28 57 55 q27 -12 64 0 q43 18 58 9 q7 -6 -16 -63 q-75 -195 -299 -300 q-10 -4 -9 -9 q1 -4 8 -4 q126 0 259 148 q3 4 7 8 q49 58 99 155 q18 27 44 44 q16 7 17 17 q0 13 -29 31 q-34 25 -49 25 q-10 0 -23 -8 q-93 -24 -109 -27 q28 34 42 48 q9 10 7 19 q-3 12 -27 18 q-25 7 -36 5 q-7 -1 -8 -13 q-18 -79 -180 -219 q-19 -13 6 -10 q37 6 99 55 Z" /><glyph glyph-name="uni5927" unicode="&#x5927;" d="M480 396 q21 -39 95 -151 q82 -121 143 -189 q28 -34 56 -34 q82 6 154 10 q31 1 31 9 q1 9 -32 25 q-174 78 -208 108 q-105 93 -219 245 q-7 10 -13 18 q4 19 7 39 q48 9 301 25 q22 1 27 11 q4 13 -14 28 q-58 40 -101 29 q-76 -19 -207 -47 q10 189 28 241 q6 13 -5 23 q-22 19 -64 36 q-25 10 -45 3 q-24 -9 -4 -29 q34 -34 34 -70 q1 -124 -8 -217 q-105 -19 -223 -40 q-24 -4 -5 -22 q33 -27 86 -15 q63 21 137 33 q-33 -190 -121 -286 q-7 -6 -13 -13 q-46 -48 -149 -111 q-15 -7 -18 -12 q-6 -7 14 -9 q51 0 156 70 q85 69 114 114 q30 48 66 178 Z" /><glyph glyph-name="uni5929" unicode="&#x5929;" d="M484 364 q24 -39 102 -141 q88 -115 154 -180 q30 -31 58 -30 q81 12 151 21 q31 3 30 11 q1 9 -33 23 q-180 66 -229 110 q-130 109 -223 228 q4 19 8 36 q106 16 275 19 q69 0 75 11 q6 13 -12 28 q-60 40 -101 32 q-85 -19 -230 -47 q1 16 4 32 q9 84 23 117 q7 13 -3 23 q-13 13 -34 24 q82 16 172 32 q55 12 63 19 q10 9 5 18 q-7 13 -40 23 q-33 7 -137 -26 q-123 -28 -226 -38 q-42 -6 -12 -25 q42 -24 102 -17 q27 -31 27 -65 q0 -70 -7 -126 q-112 -16 -237 -35 q-22 -3 -5 -22 q16 -15 36 -20 q24 -6 41 0 q75 22 158 34 q0 -123 -112 -237 q-12 -10 -26 -22 q-49 -43 -156 -97 q-15 -6 -18 -10 q-7 -7 12 -10 q54 -3 165 60 q75 48 110 95 q34 48 70 152 Z" /><glyph glyph-name="uni592A" unicode="&#x592a;" d="M483 413 q114 -213 244 -365 q28 -36 59 -37 q88 4 164 6 q33 0 33 8 q1 9 -34 27 q-180 81 -218 119 q-114 105 -225 265 q-9 10 -14 20 q1 16 6 32 q123 21 296 21 q22 1 27 11 q6 13 -13 28 q-60 40 -101 30 q-76 -19 -202 -43 q4 33 7 65 q9 109 30 169 q7 13 -4 23 q-21 19 -63 38 q-25 13 -44 6 q-24 -9 -6 -29 q33 -36 32 -72 q-3 -118 -16 -211 q-100 -16 -212 -35 q-22 -3 -5 -22 q16 -15 36 -20 q24 -4 41 1 q63 19 133 30 q-4 -19 -7 -39 q-36 -202 -189 -330 q-42 -31 -102 -70 q-15 -7 -18 -12 q-4 -7 14 -9 q16 -1 77 26 q43 18 110 69 q36 28 64 63 q-1 0 0 -1 l89 -106 q12 -15 27 -16 q10 -1 18 12 q6 13 1 45 q-7 40 -108 77 q-10 4 -16 4 q54 93 89 222 Z" /><glyph glyph-name="uni5931" unicode="&#x5931;" d="M514 342 q96 -151 221 -311 q22 -27 61 -27 q132 -1 174 5 q12 1 15 8 q0 7 -17 16 q-177 76 -228 123 q-99 90 -218 224 q87 18 294 31 q22 1 26 11 q6 13 -13 26 q-60 39 -99 26 q-76 -21 -200 -50 q7 52 12 110 l2 32 q175 39 187 50 q10 9 5 19 q-9 13 -42 21 q-34 6 -145 -34 q10 130 28 169 q7 16 -5 29 q-25 22 -72 34 q-28 7 -39 0 q-10 -9 -2 -23 q27 -43 31 -97 q3 -64 2 -128 q-70 -16 -149 -27 q3 10 48 77 q10 13 -6 29 q-46 36 -75 30 q-13 -4 -9 -19 q18 -78 -66 -191 q-10 -9 -34 -44 q-9 -16 8 -11 q48 9 114 99 q48 -21 130 -2 q16 4 37 7 q-6 -93 -15 -142 q-121 -24 -259 -51 q-22 -4 -5 -21 q36 -30 76 -17 q84 30 179 46 q-34 -159 -185 -268 q-52 -36 -122 -72 q-15 -7 -15 -13 q1 -4 15 -5 q22 -7 80 14 q205 60 275 317 Z" /><glyph glyph-name="uni594F" unicode="&#x594f;" d="M499 456 q3 -4 10 -11 q114 -123 237 -233 q25 -25 66 -25 q75 -1 152 16 q19 3 22 8 q1 7 -14 13 q-201 70 -235 89 q-55 27 -206 146 q73 9 170 12 q63 4 67 11 q4 12 -11 24 q-51 34 -88 26 q-79 -19 -216 -46 q-12 -1 -24 -4 q18 42 30 87 q48 13 158 28 q9 -1 17 11 q1 10 -20 19 q-28 21 -115 -9 q-16 -3 -31 -9 q0 1 1 3 q7 42 18 80 q58 13 123 24 q55 13 64 21 q9 7 5 15 q-7 12 -35 20 q-25 6 -146 -32 q7 31 23 59 q12 21 -7 32 q-52 45 -83 33 q-16 -4 -10 -23 q19 -37 15 -78 q-1 -19 -4 -40 q-69 -12 -146 -19 q-36 -6 -11 -22 q40 -24 94 -12 q28 6 57 10 q-4 -40 -16 -84 q-82 -12 -131 -22 q-25 -4 -5 -19 q30 -21 53 -16 q33 7 71 16 q-24 -67 -32 -84 q-87 -13 -179 -29 q-19 -3 -4 -19 q13 -13 31 -17 q21 -4 36 0 q43 13 94 24 q-93 -153 -228 -226 q-18 -13 -36 -25 q-15 -10 -1 -14 q16 -1 56 14 q79 33 141 87 q69 55 104 119 l30 56 l0 1 q15 6 89 14 ZM387 159 q-13 -105 -151 -174 q-13 -6 -28 -13 q-22 -10 4 -12 q60 -3 142 49 q13 12 27 26 q40 42 64 134 q70 12 181 16 q48 0 54 9 q4 10 -10 22 q-49 31 -109 15 q-46 -10 -108 -24 l2 6 q3 18 7 26 q7 6 1 16 l-39 20 q66 19 133 39 q7 7 3 15 q-7 10 -35 15 q-28 4 -54 -9 q-25 -10 -54 -18 q-31 -9 -67 -14 q-33 -7 -8 -22 q19 -9 39 -10 q12 -55 11 -76 q-75 -12 -158 -27 q-18 -3 -4 -17 q13 -12 28 -15 q19 -4 32 0 q46 15 97 23 ZM498 82 q64 -52 143 -130 q16 -19 32 -23 q9 -1 16 10 q12 13 -3 56 q-15 60 -188 118 q-10 4 -11 -8 q0 -13 11 -23 Z" /><glyph glyph-name="uni597D" unicode="&#x597d;" d="M297 238 q-43 -57 -164 -134 q-13 -9 -2 -12 q81 -6 200 111 q0 1 3 3 q96 -87 98 -88 q9 0 15 11 q7 10 3 41 q-6 36 -87 81 q30 54 72 180 q6 43 28 79 q10 16 -5 27 q-42 39 -71 32 q-13 -4 -9 -19 q9 -19 9 -43 q-45 -6 -92 -15 q22 75 42 152 q10 46 30 72 q13 22 6 34 q-13 19 -60 47 q-19 13 -37 4 q-13 -7 -3 -23 q31 -46 -24 -292 q-64 -7 -134 -18 q-21 -3 -54 3 q-13 0 -16 -9 q-4 -12 4 -21 q19 -19 47 -41 q10 -4 22 2 q54 27 120 41 q-21 -75 -39 -103 q-10 -22 11 -40 q46 -27 87 -62 ZM382 455 q-9 -82 -60 -181 q-27 16 -61 34 q-19 10 -17 31 q19 57 39 115 q49 13 102 27 q-1 -12 -3 -26 ZM733 393 q79 9 219 8 q19 0 23 9 q6 10 -11 24 q-58 43 -112 23 q-52 -9 -126 -24 q-18 84 -52 106 q126 99 170 110 q22 7 15 25 q-4 18 -76 58 q-21 12 -46 2 q-61 -25 -155 -55 q-25 -9 -85 -8 q-25 0 -16 -22 q10 -13 30 -26 q33 -18 74 7 q130 66 151 53 q13 -7 9 -20 q-40 -52 -86 -114 q-6 3 -11 5 q-21 9 -32 2 q-13 -6 0 -21 q36 -28 44 -76 q4 -16 8 -35 q-100 -13 -216 -30 q-21 -3 -5 -19 q13 -13 31 -18 q21 -4 36 -1 q75 21 159 31 q1 1 3 0 q30 -177 -17 -284 q-15 -27 -52 -20 q-31 6 -59 11 q-12 3 -6 -9 q4 -7 22 -20 q40 -34 54 -60 q10 -19 27 -17 q13 1 42 28 q88 85 46 377 Z" /><glyph glyph-name="uni5982" unicode="&#x5982;" d="M447 498 q-49 -10 -102 -21 q22 76 42 153 q12 52 33 81 q13 25 6 39 q-15 21 -67 52 q-24 15 -42 5 q-15 -7 -4 -26 q34 -51 -22 -314 q-76 -13 -157 -28 q-25 -4 -65 0 q-13 0 -17 -10 q-4 -13 4 -23 q22 -19 53 -42 q10 -4 24 2 q52 30 147 55 q-24 -85 -43 -119 q-10 -27 14 -46 q49 -24 94 -55 q-63 -61 -80 -75 q-30 -21 -53 -33 q-18 -10 -35 -21 q-13 -7 -1 -12 q13 -1 51 9 q57 19 102 53 q34 24 56 50 q43 -30 98 -80 q19 -16 30 -17 q10 1 16 14 q7 13 -1 47 q-9 31 -34 46 q-25 15 -74 38 q4 9 11 17 q21 33 70 180 q7 34 26 62 q12 18 -5 29 q-42 42 -73 35 q-15 -4 -9 -20 q4 -12 7 -25 ZM434 464 q4 1 12 3 q-7 -111 -72 -226 q-30 13 -66 29 q-22 10 -21 31 q24 67 45 134 q49 16 102 29 ZM649 198 q7 0 17 1 q61 15 193 26 q12 1 13 12 q0 7 -26 25 q27 123 71 164 q19 22 1 42 q-19 15 -79 42 q-22 9 -46 -2 q-75 -30 -188 -50 q-13 7 -42 12 q-13 4 -18 -2 q-7 -7 2 -24 q33 -79 49 -206 q1 -39 23 -65 q19 -25 25 -7 q4 13 5 32 ZM784 268 q-75 -19 -137 -32 q-18 90 -25 186 q9 3 159 33 q18 4 25 -3 q13 -13 11 -41 q-13 -78 -29 -142 q-4 0 -4 -1 Z" /><glyph glyph-name="uni59CB" unicode="&#x59cb;" d="M282 226 q-45 -60 -157 -122 q-13 -7 -1 -12 q78 -7 185 90 q6 7 13 14 q31 -24 71 -60 q16 -15 26 -16 q9 1 14 12 q6 12 -1 42 q-7 28 -29 41 q-18 10 -51 27 q21 22 62 145 q10 46 32 78 q10 16 -5 28 q-43 39 -70 34 q-13 -4 -9 -19 q4 -12 7 -26 q-45 -7 -92 -18 q28 91 52 184 q10 46 30 72 q13 21 6 34 q-13 19 -60 47 q-19 13 -37 4 q-13 -7 -3 -23 q36 -51 -33 -326 q-55 -7 -114 -18 q-21 -4 -54 1 q-13 0 -16 -9 q-4 -12 5 -21 q19 -18 48 -40 q10 -4 22 3 q46 25 94 39 q1 1 4 1 q-1 -3 -1 -6 q-13 -49 -37 -86 q-10 -24 12 -41 q46 -22 87 -53 ZM363 421 q-12 -81 -55 -158 q-28 13 -62 28 q-19 9 -18 28 q19 52 36 105 q48 15 104 29 q-1 -15 -5 -32 ZM817 454 q42 -60 59 -67 q9 -1 17 7 q13 13 5 56 q-10 54 -152 121 q-7 6 -11 -6 q-1 -13 8 -24 q24 -27 51 -60 q-109 -13 -226 -39 q-13 -4 -17 -1 q-3 6 4 20 q133 214 163 250 q13 12 6 26 q-9 13 -64 38 q-19 7 -30 2 q-15 -7 -7 -30 q27 -69 -112 -270 q-24 -25 -61 -54 q-16 -13 -11 -27 q7 -19 37 -41 q13 -12 27 1 q63 48 314 98 ZM583 57 q9 -1 22 1 q72 16 228 29 q13 1 15 12 q0 10 -33 32 q27 85 59 109 q18 19 2 38 q-18 13 -73 40 q-19 7 -42 -2 q-87 -36 -218 -58 q-13 6 -45 11 q-13 4 -17 -2 q-7 -7 3 -25 q30 -61 49 -160 q4 -30 21 -49 q19 -25 26 -7 q4 12 3 31 ZM755 134 q-97 -25 -176 -37 q-16 97 -19 128 q9 3 183 38 q22 6 31 -3 q13 -13 -12 -125 q-4 0 -7 -1 Z" /><glyph glyph-name="uni59FF" unicode="&#x59ff;" d="M268 693 q39 -43 71 -56 q15 -3 24 11 q6 13 2 31 q-7 24 -26 36 q-30 18 -74 19 q-7 1 -12 -2 q-7 -1 -3 -14 q1 -12 18 -25 ZM233 456 q-10 -1 -11 -16 q0 -61 25 -82 q4 -7 14 -6 q6 0 11 20 q9 30 121 218 q7 12 8 17 q1 7 -7 4 q-6 -1 -125 -129 q-12 -13 -36 -26 ZM520 676 q0 -1 2 -3 q21 -21 45 -12 q49 19 106 33 q30 7 39 5 q10 -7 7 -15 q0 -6 -50 -77 q-7 -9 -4 -15 q3 -4 15 5 q102 61 145 75 q10 1 12 9 q1 13 -26 29 q-21 13 -42 29 q-25 16 -40 9 q-73 -31 -197 -55 q15 22 26 46 q19 39 37 71 q9 13 -7 26 q-48 30 -70 22 q-10 -4 -7 -18 q21 -78 -52 -187 q-6 -1 -31 -45 q-7 -16 8 -10 q28 9 84 78 ZM633 260 q127 6 308 -3 q22 0 29 9 q7 13 -12 30 q-57 46 -101 38 q-91 -15 -224 -32 q-30 27 -61 24 q-13 -3 -8 -18 q3 -6 4 -14 q-63 -3 -117 -12 q19 40 25 47 q10 9 6 19 q-6 15 -46 43 q30 15 78 62 q1 3 4 4 q18 24 32 59 l1 0 q60 -66 125 -125 q19 -19 52 -17 q58 1 118 17 q16 3 17 7 q1 6 -11 10 q-160 37 -290 124 q-3 3 -4 3 q3 19 21 40 q10 13 -2 24 q-36 36 -57 33 q-13 -1 -9 -15 q10 -43 -20 -116 q-33 -66 -115 -107 q-6 -1 -10 -5 q-12 -6 -2 -10 q10 -1 39 3 q1 -1 3 -5 q10 -27 -13 -101 q-150 -12 -318 -27 q-24 -1 -7 -22 q34 -34 79 -26 q109 27 233 40 q-10 -25 -22 -43 q-10 -19 -7 -33 q3 -10 22 -14 q55 -13 115 -43 q-78 -78 -259 -116 q-18 -7 2 -11 q126 -25 237 42 q39 25 67 62 q79 -43 199 -135 q28 -22 48 -20 q22 0 23 22 q-1 22 -33 71 q-18 34 -207 103 q28 42 48 89 q10 31 20 45 ZM437 247 q58 7 130 10 q-3 -45 -50 -114 q-55 21 -96 31 q-24 4 -11 27 q13 25 23 45 q1 1 4 1 Z" /><glyph glyph-name="uni5B50" unicode="&#x5b50;" d="M552 573 q36 19 114 73 q37 28 60 32 q40 10 45 26 q3 10 -31 50 q-31 37 -42 36 q-1 1 -52 -11 q-288 -60 -353 -45 q-18 6 -25 -6 q-4 -7 4 -19 q36 -46 65 -48 q10 -1 30 12 q48 34 247 68 q52 12 59 7 q4 -4 4 -9 q-1 -9 -142 -151 q-27 16 -47 21 q-12 4 -20 -1 q-4 -4 8 -18 q21 -31 34 -123 q-130 -10 -224 -22 q-100 -13 -176 -11 q-15 0 -16 -11 q-1 -13 18 -29 q40 -30 90 -18 q106 36 313 51 q25 -265 -24 -349 q-1 -7 -10 -10 q-12 -6 -96 15 q-9 1 -11 -2 q-1 -4 7 -13 q61 -57 92 -99 q10 -13 18 -12 q13 1 37 24 q49 51 53 146 q7 105 -14 304 q192 18 363 -4 q25 -4 31 5 q9 13 -4 27 q-31 28 -76 50 q-15 7 -41 -2 q-45 -13 -107 -19 q-91 -7 -170 -16 q-6 25 -8 84 q0 10 -3 17 Z" /><glyph glyph-name="uni5B57" unicode="&#x5b57;" d="M467 812 q43 -52 79 -65 q18 -3 28 14 q7 15 3 34 q-9 28 -30 42 q-66 33 -95 21 q-1 0 -3 -1 q-7 -1 -3 -16 q1 -13 21 -29 ZM270 638 q27 -16 62 -6 q129 42 343 65 q49 6 64 2 q10 -7 7 -15 q0 -3 -43 -84 q-10 -16 -4 -20 q10 -4 29 8 q64 39 117 51 q43 9 42 21 q-3 10 -76 68 q-27 22 -118 4 q-60 -7 -314 -50 q-52 -9 -104 -16 q-10 31 -26 41 q-19 15 -21 -12 q6 -43 -56 -114 q-18 -21 4 -69 q1 -4 5 -10 q19 -24 34 2 q18 27 30 65 q13 43 25 69 ZM558 317 q186 18 347 -1 q22 -3 29 5 q7 13 -4 24 q-28 27 -70 46 q-13 6 -38 -2 q-25 -7 -273 -36 q-10 33 -32 54 q1 1 4 3 q121 97 145 105 q19 6 14 23 q-4 16 -70 53 q-19 10 -42 1 q-58 -21 -149 -44 q-24 -7 -80 -5 q-24 1 -15 -19 q7 -13 26 -25 q31 -18 65 2 q21 7 127 46 q15 4 27 -3 q12 -9 6 -23 q-31 -46 -68 -105 q-10 10 -23 16 q-12 7 -18 -1 q-4 -4 4 -20 q13 -28 23 -64 q-112 -10 -195 -21 q-97 -13 -167 -12 q-13 1 -15 -10 q-1 -12 17 -26 q42 -30 73 -20 q106 37 295 53 q24 -190 -15 -242 q-1 0 -2 -2 q-7 -4 -102 10 q-12 4 -18 -1 q-6 -1 12 -15 q63 -52 98 -97 q19 -21 40 -10 q25 13 42 75 q22 79 10 213 q-1 43 -8 75 Z" /><glyph glyph-name="uni5B58" unicode="&#x5b58;" d="M267 324 q7 -93 -21 -217 q-10 -45 24 -96 q1 0 3 -3 q18 -16 30 11 q15 40 14 87 q-1 214 4 262 q4 15 3 26 q81 117 156 272 q93 19 190 35 q73 15 84 24 q10 9 5 18 q-7 13 -38 22 q-33 7 -66 -4 q-73 -24 -151 -43 q33 78 46 91 q7 7 4 20 q-3 10 -20 23 q-45 30 -80 19 q-10 -4 -5 -18 q13 -48 -18 -150 q-81 -13 -167 -20 q-40 -4 -12 -24 q45 -27 131 -10 q13 3 30 5 q-57 -132 -121 -219 q-12 18 -35 28 q-10 1 -14 -5 q-7 -15 17 -65 q-61 -76 -184 -211 q-9 -7 4 -9 q43 13 160 122 q3 6 27 29 ZM693 300 q90 12 196 12 q19 1 24 10 q4 12 -12 24 q-54 37 -118 18 q-43 -10 -100 -23 q-15 54 -36 69 q118 99 147 108 q19 7 13 24 q-4 16 -71 51 q-19 10 -42 1 q-58 -24 -145 -51 q-22 -7 -79 -8 q-24 0 -15 -20 q7 -13 27 -23 q31 -16 65 4 q19 9 124 51 q12 6 24 -1 q13 -7 7 -20 q-33 -48 -71 -104 q-9 6 -20 9 q-21 7 -31 1 q-13 -7 1 -20 q33 -24 48 -82 q-7 0 -11 -2 q-109 -19 -239 -42 q-19 -3 -4 -19 q13 -13 31 -17 q21 -4 36 1 q111 34 196 42 q13 -57 13 -117 q3 -82 -18 -132 q-13 -21 -43 -13 q-34 10 -66 22 q-10 4 -7 -7 q4 -9 23 -23 q40 -39 53 -68 q10 -18 26 -16 q13 1 41 26 q84 79 33 335 Z" /><glyph glyph-name="uni5B66" unicode="&#x5b66;" d="M311 681 q21 -25 43 -55 q10 -15 26 -16 q10 -1 17 11 q7 13 2 43 q-4 30 -86 63 q-15 6 -21 4 q-4 -3 -5 -16 q1 -10 24 -34 ZM669 770 q-27 -46 -83 -120 q-6 -7 1 -15 q7 -1 16 4 q97 82 146 113 q19 7 14 18 q-7 16 -29 36 q-22 18 -46 19 q-16 -1 -14 -23 q4 -15 -5 -32 ZM456 744 q19 -27 39 -59 q9 -13 22 -16 q9 -1 16 8 q7 12 6 38 q-3 30 -77 70 q-12 7 -18 6 q-4 -3 -6 -14 q1 -10 18 -33 ZM246 522 q30 -18 64 -7 q162 45 398 62 q37 3 53 0 q15 -7 14 -14 q0 -1 -48 -80 q-7 -13 -2 -19 q7 -4 25 6 q63 37 112 46 q42 10 41 20 q-1 10 -71 69 q-24 21 -87 8 q-147 -13 -380 -49 q-58 -9 -117 -13 q-4 0 -7 -1 q-10 19 -19 26 q-19 13 -21 -12 q6 -37 -53 -98 q-19 -21 7 -79 q15 -27 35 1 q27 66 56 134 ZM557 250 q144 19 321 3 q24 -3 30 6 q7 13 -5 25 q-28 28 -72 48 q-15 6 -41 -2 q-48 -9 -252 -35 q-9 15 -22 25 q3 1 83 62 q37 28 64 37 q19 6 13 22 q-3 16 -66 51 q-18 10 -40 2 q-60 -22 -150 -47 q-24 -7 -81 -5 q-22 1 -15 -19 q7 -12 26 -23 q28 -16 61 2 q22 9 135 47 q13 6 24 -1 q12 -7 6 -21 q-30 -45 -68 -101 q-6 4 -10 6 q-10 7 -15 -1 q-4 -4 3 -17 q4 -10 9 -24 q-111 -9 -167 -16 q-64 -10 -158 -10 q-13 0 -15 -11 q-1 -13 18 -27 q16 -13 47 -25 q12 -4 29 4 q16 6 83 16 q76 18 174 26 q12 -84 2 -142 q-6 -37 -16 -45 q-3 -3 -84 13 q-10 3 -16 -1 q-4 -1 10 -13 q52 -48 80 -87 q16 -18 34 -9 q22 12 39 64 q24 90 2 223 Z" /><glyph glyph-name="uni5B8C" unicode="&#x5b8c;" d="M472 807 q34 -22 69 -50 q18 -13 35 -10 q13 1 16 17 q4 18 -10 50 q-16 34 -121 47 q-19 1 -25 -2 q-6 -4 -2 -19 q6 -13 38 -33 ZM291 629 q28 -13 72 0 q93 33 300 67 q72 12 90 10 q15 -3 14 -12 q-28 -51 -58 -105 l2 -1 q9 -4 27 7 q64 40 116 52 q43 10 42 22 q-3 10 -74 67 q-27 24 -104 4 q-73 -10 -322 -61 q-51 -12 -101 -20 q0 24 -27 40 q-21 16 -22 -12 q6 -45 -51 -107 q-18 -24 10 -82 q21 -25 35 3 q16 25 28 62 q13 40 23 66 ZM382 505 q-39 -10 -8 -26 q51 -21 105 1 q54 16 110 33 q25 9 29 13 q9 9 3 18 q-10 12 -41 16 q-34 3 -64 -14 q-28 -12 -59 -23 q-34 -10 -75 -18 ZM509 358 q0 -4 3 -9 q19 -37 14 -93 q-6 -136 2 -164 q9 -30 31 -50 q64 -61 255 -48 q84 9 116 28 q30 16 18 47 q-19 55 -29 148 q-1 16 -10 21 q-7 4 -11 -15 q-13 -117 -31 -138 q-21 -31 -155 -32 q-73 1 -103 13 q-27 13 -33 29 q-21 75 6 163 q3 19 10 32 q19 45 -49 76 q9 3 146 27 q12 -1 21 14 q1 13 -25 23 q-39 22 -120 -9 q-31 -7 -64 -18 q-72 -19 -137 -31 q-46 -7 -97 -17 q-31 -4 -6 -23 q36 -24 78 -14 q18 6 40 10 q-19 -153 -257 -287 q-7 -6 -2 -10 q7 -4 17 -1 q129 30 196 108 q40 39 83 110 q13 21 31 40 q9 7 5 18 q-4 10 -30 31 q-1 1 -2 1 q40 10 89 20 Z" /><glyph glyph-name="uni5B98" unicode="&#x5b98;" d="M469 811 q54 -57 93 -69 q18 -3 28 14 q7 16 2 37 q-19 49 -105 64 l-6 2 q-21 4 -32 -1 q-7 -1 -3 -17 q3 -13 23 -30 ZM263 605 q21 -6 40 0 q144 48 389 72 q52 6 71 3 q13 -9 8 -17 q0 -3 -32 -77 q-12 -18 -4 -22 q10 -4 31 9 q63 37 113 47 q42 9 42 20 q-3 12 -82 71 q-25 22 -116 6 q-192 -27 -357 -56 q-52 -9 -102 -16 q-13 27 -26 35 q-22 16 -23 -14 q9 -48 -65 -136 q-21 -27 11 -88 q22 -25 38 3 q21 31 35 76 q16 52 29 84 ZM401 27 q7 0 16 1 q88 16 276 26 q12 1 14 11 q1 9 -33 32 q30 84 65 107 q19 21 3 41 q-84 64 -141 36 q-76 -28 -193 -47 q0 52 1 105 q7 -1 18 1 q69 18 217 33 q10 1 12 11 q0 7 -23 22 q27 66 58 83 q16 18 3 36 q-63 51 -99 42 q-6 0 -9 -2 q-58 -27 -178 -53 q-22 22 -58 32 q-10 1 -16 -7 q-4 -6 4 -17 q24 -58 25 -115 q9 -237 -26 -352 q-9 -28 -3 -48 q10 -34 22 -48 q12 -15 22 0 q15 18 23 70 ZM406 66 q1 33 2 138 q25 -6 56 4 q73 13 144 27 q18 4 25 -3 q10 -10 7 -31 q-12 -55 -26 -102 q-115 -22 -208 -33 ZM409 373 q1 75 6 106 q15 4 159 37 q18 4 25 -3 q7 -7 4 -24 q-10 -43 -24 -78 q-94 -25 -170 -38 Z" /><glyph glyph-name="uni5B9A" unicode="&#x5b9a;" d="M446 806 q51 -60 91 -78 q18 -4 29 13 q7 16 4 36 q-7 28 -29 44 q-48 33 -85 33 q-16 4 -26 0 q-7 -1 -5 -17 q1 -13 21 -31 ZM264 596 q25 -7 54 1 q124 43 332 69 q46 6 63 4 q13 -9 8 -17 q0 -4 -31 -80 q-10 -16 -3 -21 q10 -4 29 10 q61 40 111 52 q42 10 41 22 q-4 12 -82 67 q-22 16 -50 14 q-69 -13 -153 -29 q-87 -13 -223 -39 q-46 -9 -92 -17 q-1 3 -1 5 q-15 25 -28 34 q-21 13 -21 -14 q9 -46 -50 -117 q-21 -30 13 -82 q22 -24 35 4 q16 28 27 67 q10 40 21 67 ZM322 223 q180 -159 392 -265 q33 -10 195 31 q39 12 48 25 q6 13 -17 14 q-87 10 -139 12 q-123 6 -287 101 q-3 1 -4 2 q4 85 9 155 q36 -9 118 11 q49 12 53 15 q9 10 3 19 q-10 13 -43 18 q-18 1 -97 -22 q-16 -3 -32 -7 q3 61 5 68 q7 19 -2 31 q-19 19 -36 30 q141 33 148 39 q10 9 4 19 q-9 13 -42 20 q-30 6 -127 -29 q-73 -18 -125 -24 q-40 -7 -11 -26 q46 -27 111 -8 q15 -34 15 -59 q1 -24 0 -220 q-60 37 -119 83 q15 24 30 44 q10 13 -4 29 q-45 34 -72 32 q-12 -3 -10 -18 q12 -111 -115 -251 q-12 -6 -54 -55 q-9 -16 7 -11 q22 3 50 25 q88 69 138 155 q4 9 10 17 Z" /><glyph glyph-name="uni5B9E" unicode="&#x5b9e;" d="M309 361 q30 -21 63 -46 q13 -10 28 -9 q10 1 13 14 q3 13 -8 40 q-7 19 -39 31 q-76 18 -86 12 q-4 -4 -2 -16 q4 -10 31 -26 ZM346 507 q61 -61 88 -60 q13 0 17 19 q0 13 -11 31 q-21 30 -92 36 q-10 1 -9 -10 q-1 -9 7 -16 ZM498 246 q-46 -132 -197 -211 q-45 -21 -105 -46 q-13 -4 -17 -7 q-6 -6 10 -10 q18 -3 85 14 q49 10 120 47 q121 64 161 220 q102 10 241 11 q72 -3 80 9 q6 13 -12 28 q-57 42 -97 31 q-79 -16 -201 -38 q9 45 26 158 q4 34 19 74 q7 12 -2 20 q-52 52 -95 42 q-21 -7 -5 -26 q28 -33 26 -64 q-6 -138 -27 -214 q-3 1 -6 0 q-148 -21 -325 -44 q-22 -3 -5 -21 q15 -15 34 -20 q22 -6 40 -1 q129 37 252 48 ZM607 124 q61 -52 135 -130 q18 -21 34 -25 q9 -1 17 10 q13 13 -2 60 q-15 61 -184 118 q-10 4 -12 -8 q0 -15 12 -25 ZM474 789 q28 -24 59 -52 q15 -13 32 -12 q10 1 16 15 q4 16 -6 47 q-12 31 -108 52 q-16 3 -23 0 q-6 -4 -3 -18 q4 -10 33 -32 ZM279 639 q-9 18 -18 25 q-19 16 -22 -11 q4 -27 -12 -52 q-16 -19 -41 -40 q-10 -12 -8 -33 q4 -31 13 -49 q15 -28 36 0 q3 6 55 122 q1 1 2 4 q18 -9 69 3 q130 37 312 54 q37 4 52 2 q18 -13 15 -21 q0 -3 -28 -80 q-6 -15 1 -18 q7 -4 24 9 q52 43 99 59 q37 15 35 23 q-1 10 -75 61 q-25 16 -101 1 q-129 -16 -310 -46 q-49 -7 -98 -13 Z" /><glyph glyph-name="uni5BA1" unicode="&#x5ba1;" d="M459 792 q30 -19 63 -44 q16 -12 32 -8 q10 1 15 16 q3 16 -11 46 q-9 19 -42 29 q-79 18 -92 8 q-4 -4 -2 -18 q6 -10 37 -29 ZM275 667 q-10 25 -22 33 q-19 16 -22 -11 q6 -37 -47 -95 q-37 -34 -9 -99 q15 -28 36 0 q19 25 33 65 q16 49 30 76 q24 -13 51 -8 q160 48 374 62 q15 0 22 -1 q19 -13 15 -22 q0 -3 -28 -80 q-6 -15 1 -18 q7 -4 24 9 q52 43 99 59 q37 15 35 23 q-1 10 -75 61 q-24 16 -92 4 q-132 -15 -325 -46 q-51 -7 -100 -12 ZM532 8 q1 31 3 194 q55 9 107 13 q1 -4 3 -10 q6 -16 19 -16 q15 1 23 17 q16 22 46 130 q19 55 59 88 q21 16 3 34 q-19 19 -73 48 q-13 9 -86 -5 q-60 -4 -100 -13 q0 37 10 78 q3 18 -12 27 q-34 22 -49 25 q-13 4 -29 -5 q-9 -7 -1 -19 q22 -54 24 -61 q0 -25 1 -53 q-31 -3 -60 -9 q-79 -13 -132 -19 q-18 10 -36 13 q-7 1 -12 -3 q-7 -7 3 -17 q36 -51 54 -191 q6 -69 46 -87 q13 -3 16 15 q10 -1 25 1 q49 7 96 13 q0 -222 16 -250 q0 -1 2 -3 q6 -7 13 -5 q15 9 21 70 ZM481 352 q-49 -10 -90 -20 q-16 -3 3 -18 q10 -7 33 -4 l54 8 q-1 -42 -1 -90 q-64 -10 -121 -19 q-3 25 -12 53 q-19 126 -23 153 q52 18 157 29 q0 -43 0 -92 ZM534 326 q39 7 77 11 q22 4 14 16 q-10 13 -34 19 q-21 3 -57 -6 q0 40 1 85 q126 21 152 7 q12 -7 4 -46 q-28 -138 -42 -169 q-18 13 -115 -6 q0 37 0 89 Z" /><glyph glyph-name="uni5BA2" unicode="&#x5ba2;" d="M470 817 q19 -21 39 -46 q13 -16 32 -16 q13 -1 19 14 q7 16 0 51 q-4 18 -32 32 q-69 30 -84 23 q-6 -4 -5 -19 q3 -13 31 -39 ZM261 652 q21 -7 53 -1 q145 43 394 59 q25 1 37 -1 q10 -12 4 -19 q0 -6 -30 -76 q-12 -18 -4 -22 q10 -4 31 9 q64 37 115 46 q43 9 42 20 q-3 12 -82 72 q-22 18 -50 15 q-75 -9 -166 -22 q-94 -10 -240 -31 q-51 -7 -98 -13 q-1 1 -1 4 q-13 27 -27 36 q-21 16 -23 -13 q9 -45 -53 -112 q-21 -27 10 -85 q22 -25 37 3 q16 25 29 64 q12 42 22 67 ZM392 -12 q6 -1 18 0 q72 12 227 16 q12 1 13 10 q1 9 -28 30 q31 75 66 94 q19 19 5 39 q-16 16 -71 46 q-19 10 -43 2 q-88 -30 -220 -41 q-12 7 -48 13 q-3 1 -5 0 q111 76 193 158 q141 -120 236 -169 q16 -6 38 -3 q94 13 168 39 q39 12 34 22 q-1 4 -44 10 q-162 15 -211 29 q-76 24 -194 98 q132 138 156 153 q16 10 11 20 q-1 10 -61 39 q-18 12 -66 -13 q-49 -15 -132 -29 q13 16 27 31 q12 10 -1 26 q-36 39 -61 36 q-10 -1 -10 -15 q1 -90 -113 -190 q-28 -22 -42 -36 q-10 -13 6 -11 q39 3 112 66 q34 -15 107 -72 q-40 -39 -84 -80 q-99 -85 -288 -200 q-16 -10 -1 -14 q10 0 60 18 q67 28 145 77 q0 -4 6 -15 q28 -61 46 -162 q3 -30 20 -50 q19 -22 24 -7 q4 13 5 35 ZM388 24 q-15 90 -18 124 q205 34 218 20 q12 -15 -22 -119 q-100 -18 -178 -25 ZM417 460 q-21 16 -40 22 q15 16 28 32 q7 10 15 20 q28 -22 131 3 q15 3 19 -4 q4 -19 -88 -122 q-31 24 -65 49 Z" /><glyph glyph-name="uni5BB3" unicode="&#x5bb3;" d="M485 827 q45 -52 80 -66 q16 -3 26 12 q6 13 3 31 q-7 25 -27 39 q-52 33 -94 27 q-3 0 -4 -1 q-7 -1 -3 -15 q1 -13 19 -27 ZM263 647 q27 -15 74 -2 q99 28 352 59 q82 10 103 5 q18 -4 15 -14 q0 -4 -39 -75 q-12 -16 -5 -20 q9 -4 29 6 q61 34 111 42 q40 7 41 18 q-3 10 -76 74 q-27 25 -104 10 q-42 -3 -382 -53 q-58 -10 -116 -16 q-13 25 -26 35 q-21 15 -22 -13 q6 -45 -55 -115 q-18 -24 10 -82 q21 -25 35 3 q18 25 30 65 q15 46 25 73 ZM486 311 q-141 -16 -301 -36 q-22 -1 -6 -20 q15 -15 33 -20 q22 -6 39 -1 q220 60 618 60 q21 0 26 9 q6 12 -11 26 q-55 42 -120 27 q-91 -16 -230 -38 q3 57 7 107 q30 7 131 19 q10 -1 17 10 q1 10 -18 18 q-27 21 -103 -3 q-13 -1 -25 -6 q0 18 6 68 q132 24 141 29 q7 6 4 14 q-6 10 -30 18 q-25 7 -109 -19 q1 4 3 9 q12 19 -2 32 q-34 28 -63 36 q-13 3 -28 -8 q-6 -7 0 -18 q15 -22 16 -66 q-55 -7 -116 -11 q-31 -3 -10 -19 q30 -19 103 -10 q10 1 23 2 q1 -33 2 -70 q-109 -15 -135 -18 q-25 -3 -6 -17 q21 -15 57 -16 q37 9 85 16 q0 -49 2 -104 ZM407 -17 q6 0 14 1 q94 16 299 26 q13 1 14 11 q1 9 -32 33 q-1 1 -2 1 q30 81 65 103 q19 21 3 41 q-18 16 -76 45 q-19 10 -44 1 q-114 -40 -284 -55 q-13 7 -46 11 q-13 3 -17 -3 q-7 -7 3 -24 q31 -61 52 -163 q4 -31 22 -51 q19 -24 26 -6 q4 12 3 29 ZM402 22 q-18 97 -21 131 q46 9 238 39 q28 6 39 -7 q9 -9 7 -27 q-10 -57 -24 -102 q-136 -25 -239 -34 Z" /></font>
</defs>
</svg>
